<svg xmlns="http://www.w3.org/2000/svg" width="74" height="74" viewBox="0 0 74 74">
  <g id="arrow-up-circle" transform="translate(0 74) rotate(-90)">
    <path id="Path_1051" data-name="Path 1051" d="M37,2.805C54.88,2.805,71.195,19.12,71.195,37S54.88,71.195,37,71.195,2.805,54.88,2.805,37,19.12,2.805,37,2.805ZM37,0A37,37,0,1,1,0,37,37,37,0,0,1,37,0Z" fill="#fff"/>
    <path id="Path_1052" data-name="Path 1052" d="M.679.68a2.313,2.313,0,0,1,3.275,0L16.191,12.921,28.429.678A2.315,2.315,0,1,1,31.7,3.953L17.829,17.828a2.313,2.313,0,0,1-3.275,0L.679,3.953a2.313,2.313,0,0,1,0-3.275Z" transform="translate(20.995 27.591)" fill="#fff"/>
  </g>
</svg>
