<svg xmlns="http://www.w3.org/2000/svg" width="358.184" height="145.081" viewBox="0 0 358.184 145.081">
  <g id="Group_620" data-name="Group 620" transform="translate(-116.157 -1250.657)">
    <path id="Path_1393" data-name="Path 1393" d="M185.667,177.553l-4.546-4.546a32.848,32.848,0,0,1-9.618-23.224V39.8c0-13.786-11.729-24.96-25.512-24.96h-6.636A27.789,27.789,0,0,1,119.7,6.7L113,0l-6.7,6.7a27.786,27.786,0,0,1-19.649,8.14H81.124A24.959,24.959,0,0,0,56.166,39.8V149.783a32.849,32.849,0,0,1-9.619,23.224L42,177.553l4.546,4.543a32.853,32.853,0,0,1,9.619,23.225V316.967a24.96,24.96,0,0,0,24.958,24.96h5.532a27.791,27.791,0,0,1,19.649,8.138l6.7,6.7,6.7-6.7a27.794,27.794,0,0,1,19.651-8.138h6.636c13.783,0,25.512-11.175,25.512-24.96V205.321a32.851,32.851,0,0,1,9.618-23.225Z" transform="translate(116.865 1437.031) rotate(-90)" fill="#f9f1f1" stroke="rgba(112,112,112,0.5)" stroke-width="1"/>
    <text id="WEDDINGS" transform="translate(227.365 1332.865)" fill="#4f4e4e" font-size="28" font-family="FiraSans-Bold, Fira Sans" font-weight="700"><tspan x="0" y="0">WEDDINGS</tspan></text>
  </g>
</svg>
