<svg xmlns="http://www.w3.org/2000/svg" width="74" height="74" viewBox="0 0 74 74">
  <g id="arrow-up-circle" transform="translate(0 74) rotate(-90)">
    <path id="Path_1051" data-name="Path 1051" d="M37,71.195C54.88,71.195,71.195,54.88,71.195,37S54.88,2.805,37,2.805,2.805,19.12,2.805,37,19.12,71.195,37,71.195ZM37,74A37,37,0,1,0,0,37,37,37,0,0,0,37,74Z" fill="#fff"/>
    <path id="Path_1052" data-name="Path 1052" d="M10.8,27.95a2.313,2.313,0,0,0,3.275,0L26.314,15.709,38.553,27.952a2.315,2.315,0,1,0,3.275-3.275L27.952,10.8a2.313,2.313,0,0,0-3.275,0L10.8,24.678a2.313,2.313,0,0,0,0,3.275Z" transform="translate(10.872 17.778)" fill="#fff"/>
  </g>
</svg>
