<svg xmlns="http://www.w3.org/2000/svg" width="275.338" height="66.702" viewBox="0 0 275.338 66.702">
  <g id="Group_207" data-name="Group 207" transform="translate(-452 -3783)">
    <g id="Group_202" data-name="Group 202" transform="translate(452 3783)">
      <g id="Group_203" data-name="Group 203" transform="translate(0 0)">
        <path id="Path_995" data-name="Path 995" d="M209.518,26.395c-2.577-2.647-7.73,3.047-7.782,3.282-.145-.677-.406-.073-.048-1.028s1.214-4.654-.486-3.333c-1.261,1.177-1.557,1.322-5.687,3.675l.824,1.764a6.51,6.51,0,0,1,1.557-.929c.37-.117.04.8-.292,1.81-1.46,4.46-4.618,13.18-4.618,13.18l.729.1s.486-.735,3.548-1.422A48.181,48.181,0,0,1,201.4,33.2c1.977-3.314,4.133-4.751,6.808-3.92Z" transform="translate(4.443 0.577)" fill="#f9f1f1"/>
        <path id="Path_996" data-name="Path 996" d="M242.849,28.118l.53,1.679a8.372,8.372,0,0,1,1.892-.838c.381-.08.661.042.381,1.065-1.083,3.981-6.288,14.667-6.288,14.667l.73.032s2.451-1.114,2.905-1.265c.079-.611,3.7-6.295,6-9.386s6.812-7.023,5.663-4.351c-.985,2.29-4.456,8.69-5.323,11.74a19.733,19.733,0,0,0-.632,3.489,23.685,23.685,0,0,0,7.059-3.32,1.782,1.782,0,0,0-.9-1.409c-.432.3-.53.368-1.431.905-.725.435-.812-.394.4-2.484,1.263-2.179,4.312-8.618,4.689-9.532s.834-3.816-2.2-2.9-8.481,6.484-8.556,6.715a12.118,12.118,0,0,1,1.266-3.742c.458-.918,1.632-4.153-.272-3.211-1.514.455-5.918,2.145-5.918,2.145" transform="translate(5.511 0.595)" fill="#f9f1f1"/>
        <path id="Path_997" data-name="Path 997" d="M228.51,14.733a96.162,96.162,0,0,1-3.979,11.856c1.234-.1,1.44,3.689,1.212,3.353a1.848,1.848,0,0,0-2.192-.879c-2.215,5.521-4.3,10.306-4.464,11.25s.124,1.205.718.853,1.516-.9,1.516-.9l1.132,1.157c-.643.4-5.45,3.349-7.726,3.652-.34.056,1.651-5.543,1.826-5.97.25-.606.454-1.552.1-1.082-3.1,4.08-7.444,6.694-8.727,6.979-1.827.4-3.476-.808-2.5-5.04.81-3.512,4.31-7.547,9.077-10.632,4.748-3.073,6.878-2.722,6.878-2.722.395-.9,2.736-6.772,2.785-7.723a4.929,4.929,0,0,0-1.988.547l-.811-1.723c-.436.1,5.192-2.254,6.814-3.223.513-.306.328.251.328.251m-17.242,19.5c-2.412,2.432-4.073,7.347-2.587,7.735,1.354.361,3.6-1.008,6.044-5.007a39.6,39.6,0,0,0,3.231-7.235s.3-.81.35-.228c.048.63.049,2.143.876,2.77l1.373-3.2c-3.726-1-7.5,3.365-9.286,5.164" transform="translate(4.723 0.332)" fill="#f9f1f1"/>
        <path id="Path_998" data-name="Path 998" d="M194.635,26.019c1.231-.1.149,3.21-.166,2.95-1.245-1.035-5.624-.045-5.748,0,.053.184-.05.455-.007.625.1.4.494-.014.546.334a8.155,8.155,0,0,1-1.061,4.676c-.3.677,2.493-1.151,2.2-.529-1.439,3.063-2.714,5.175-2.819,5.8-.159.931.056.98.653.63s1.247-.82,1.247-.82l1.25,1.422c-.648.4-5.163,3.4-7.438,3.7-.342.057.387-3.376,1.091-4.576.331-.566.447-1.247-.076-.686-2.859,3.045-6.125,4.949-7.21,5.187-1.823.4-3.474-.807-2.5-5.038.81-3.512,4.442-7.888,9.4-10.646,6.32-3.512,10.679-3.137,10.636-3.027m-7.974,3.445c-2.65.947-4.788,3.271-6.1,4.591-2.412,2.431-3.79,7.205-2.307,7.594,1.357.359,3.4-1.555,5.89-5.128a22.955,22.955,0,0,0,2.979-7.057s.5-.343-.462,0" transform="translate(4.013 0.598)" fill="#f9f1f1"/>
        <path id="Path_999" data-name="Path 999" d="M237.556,28.872c.413.292-.042,1.126-1.658,2.13s-5.031,1.221-4.6.752c3.481-3.8,5.847-3.175,6.26-2.882m-9.2,8.059a18.107,18.107,0,0,1,2.071-3.759c.293.375,1.453,1.819,5.97-.793,4.478-2.588,4.421-4.695,3.73-5.8-.707-1.128-4.271-.905-7.3,1.21-3.521,2.464-9.117,9.188-7.706,14.573s9.243.043,12.392-5.218c0-.417.54-3.508-.744-3.675-.168.794-3.195,8.435-7.752,8.182-1.692-.092-1.485-2.558-.663-4.717" transform="translate(5.178 0.597)" fill="#f9f1f1"/>
        <path id="Path_1000" data-name="Path 1000" d="M261.157,19.686h3.5v.523H263.2v3.829h-.581V20.208h-1.464Z" transform="translate(6.013 0.454)" fill="#fff"/>
        <path id="Path_1001" data-name="Path 1001" d="M268.668,24.038V21.469c0-.127.01-.678.01-1.084h-.011l-1.215,3.654h-.578l-1.216-3.647h-.01c0,.4.01.95.01,1.077v2.569h-.567v-4.35h.838l1.234,3.68.01,0,1.23-3.679h.83v4.352Z" transform="translate(6.104 0.454)" fill="#fff"/>
        <path id="Path_1002" data-name="Path 1002" d="M96.157,21.794a1.8,1.8,0,0,1-1.653,1.7,1.459,1.459,0,0,1-1.342-1.716,1.793,1.793,0,0,1,1.654-1.7,1.457,1.457,0,0,1,1.341,1.714" transform="translate(2.145 0.463)" fill="#f9f1f1"/>
        <path id="Path_1003" data-name="Path 1003" d="M33.321,11.716c4.622-.568,11.273,1.961,13.93,2.479a24.441,24.441,0,0,0,5.317.219l-.034.785s-.871,1.205-2.591,6.4c-3.12,9.416-6.131,16.121-14.357,22.141C27.877,49.378,1.861,50.9.024,32.261-.277,29.2,2.3,23.483,8.39,21.952c7.938-1.992,13.771,2.366,14.862,2.971,0,0,7.54-4.118,11.837,1.28S33.017,39.578,32.6,40c-1.83-4.04-9.294-12.032-9.769-11.451C21.581,30.084,17.9,32.108,20.1,40.474c0,0-.225.575-.373.351-5.92-8.794.557-13.072,1.127-13.986a12,12,0,0,0-6.323-2.117c-4.586-.7-10.116,3.034-9.134,8.6,1.972,11.164,18.094,14.546,27.4,8.215,7.742-5.259,12.229-19.146,12.652-21.348-4.387-.032-9.967-4.263-15.787-2.61a6.506,6.506,0,0,0-4.257,3.849l-1.1-.194c1.127-4.759,4.522-8.965,9.012-9.516M25.122,26.4a28.375,28.375,0,0,1,8.328,9.568,7.618,7.618,0,0,0-.817-7.608,6.056,6.056,0,0,0-7.511-1.96" transform="translate(0 0.268)" fill="#f9f1f1"/>
        <path id="Path_1004" data-name="Path 1004" d="M48.965,28.118,49.5,29.8a8.17,8.17,0,0,1,1.894-.838c.378-.08.658.041.379,1.064-1.087,3.98-6.29,14.666-6.29,14.666l.734.033s2.45-1.114,2.905-1.265c.076-.612,3.7-6.3,6-9.386s6.813-7.023,5.666-4.351c-.985,2.29-4.459,8.688-5.327,11.741a19.49,19.49,0,0,0-.63,3.489,23.706,23.706,0,0,0,7.059-3.323,1.778,1.778,0,0,0-.9-1.407c-.433.3-.533.367-1.431.9-.728.434-.813-.394.4-2.482,1.265-2.18,4.312-8.619,4.69-9.534s.836-3.816-2.194-2.9-8.483,6.486-8.559,6.715a12.14,12.14,0,0,1,1.269-3.742c.456-.916,1.628-4.152-.273-3.21-1.515.455-5.918,2.144-5.918,2.144" transform="translate(1.047 0.595)" fill="#f9f1f1"/>
        <path id="Path_1005" data-name="Path 1005" d="M116.014,28.116l.532,1.681a8.232,8.232,0,0,1,1.895-.838c.376-.079.657.043.378,1.065C117.732,34,112.53,44.691,112.53,44.691l.733.033s2.45-1.114,2.9-1.265c.075-.612,3.7-6.3,6-9.387s6.813-7.021,5.663-4.35c-.984,2.29-4.458,8.689-5.325,11.739a19.513,19.513,0,0,0-.63,3.491,23.737,23.737,0,0,0,7.058-3.322,1.779,1.779,0,0,0-.9-1.408c-.434.3-.534.367-1.433.9-.726.434-.811-.394.4-2.483,1.267-2.18,4.312-8.619,4.692-9.534s.833-3.815-2.2-2.9-8.482,6.484-8.559,6.714a12.145,12.145,0,0,1,1.271-3.741c.452-.919,1.628-4.152-.272-3.212-1.515.456-5.922,2.143-5.922,2.143" transform="translate(2.591 0.595)" fill="#f9f1f1"/>
        <path id="Path_1006" data-name="Path 1006" d="M88.334,14.733a96.653,96.653,0,0,1-3.98,11.856c1.232-.1,1.441,3.691,1.212,3.353a1.85,1.85,0,0,0-2.194-.879c-2.214,5.521-4.3,10.3-4.461,11.249-.159.929.121,1.205.717.854s1.514-.9,1.514-.9l1.137,1.155c-.647.4-5.452,3.349-7.727,3.651-.342.057,1.649-5.542,1.825-5.969.25-.606.454-1.55.1-1.083-3.1,4.081-7.444,6.7-8.727,6.98-1.826.4-3.475-.808-2.5-5.039.811-3.513,4.312-7.549,9.078-10.633C79.077,26.253,81.2,26.6,81.2,26.6c.4-.9,2.738-6.772,2.787-7.723A4.882,4.882,0,0,0,82,19.427L81.187,17.7c-.435.1,5.194-2.252,6.816-3.223.514-.306.33.251.33.251m-17.243,19.5c-2.413,2.432-4.073,7.347-2.591,7.735,1.359.36,3.6-1.008,6.047-5.007a39.465,39.465,0,0,0,3.23-7.237s.3-.808.351-.228c.05.632.051,2.145.876,2.773l1.375-3.2c-3.726-1-7.5,3.365-9.287,5.164" transform="translate(1.496 0.332)" fill="#f9f1f1"/>
        <path id="Path_1007" data-name="Path 1007" d="M114.776,26.02c1.233-.1.149,3.21-.163,2.952-1.248-1.038-5.627-.049-5.751,0,.054.182-.049.456-.007.626.1.4.5-.014.548.331a8.174,8.174,0,0,1-1.059,4.678c-.3.676,2.49-1.151,2.2-.529-1.44,3.064-2.715,5.175-2.822,5.8-.155.93.058.98.655.629s1.247-.819,1.247-.819l1.246,1.42c-.643.4-5.159,3.4-7.435,3.7-.343.056.384-3.376,1.091-4.576.329-.565.448-1.248-.078-.685-2.858,3.045-6.124,4.946-7.208,5.187-1.825.4-3.475-.807-2.5-5.039.81-3.513,4.443-7.888,9.4-10.647,6.318-3.511,10.677-3.137,10.635-3.025M106.8,29.464c-2.648.948-4.787,3.27-6.1,4.589-2.415,2.431-3.792,7.205-2.312,7.595,1.36.359,3.409-1.555,5.893-5.128a22.982,22.982,0,0,0,2.98-7.058s.5-.344-.464,0" transform="translate(2.175 0.598)" fill="#f9f1f1"/>
        <path id="Path_1008" data-name="Path 1008" d="M87.222,27.828l.488,1.854c.486-.165,2.053-.849,2.378-.957s.614.025.181.84S86.053,39.142,85.5,40.646a9.21,9.21,0,0,0-.328,4.218c.379-.219,5.342-3.007,6.153-2.9a7.542,7.542,0,0,0-.7-1.719,15.384,15.384,0,0,0-1.782.652c-.27.166-.274-.211,0-.815.513-1.125,4.556-10.077,5.028-12.417A20,20,0,0,0,94.035,25s-5.677,2.776-6.813,2.832" transform="translate(1.958 0.576)" fill="#f9f1f1"/>
        <path id="Path_1009" data-name="Path 1009" d="M71.511,1.385l.22.688a3.485,3.485,0,0,1,.785-.345c.158-.031.273.018.159.439-.452,1.63-4.382,10.97-4.382,10.97l.3.011s1.016-.454,1.2-.519a29.891,29.891,0,0,1,2.488-3.844C73.239,7.52,75.109,5.911,74.634,7a52.826,52.826,0,0,0-2.207,4.81,7.863,7.863,0,0,0-.261,1.428,9.89,9.89,0,0,0,2.924-1.36.73.73,0,0,0-.372-.577,6.519,6.519,0,0,1-.594.37c-.3.178-.335-.163.166-1.016.526-.893,1.789-3.53,1.945-3.9s.346-1.564-.909-1.187-3.515,2.655-3.548,2.749c-.032-.281,2.113-6.119,2.3-6.5s.675-1.7-.112-1.312c-.628.186-2.454.877-2.454.877" transform="translate(1.572 0.011)" fill="#f9f1f1"/>
        <path id="Path_1010" data-name="Path 1010" d="M68.4,6.926c.32.343.268.085.29.375.26,3.554-3.48,6.111-6.268,6.294-2.689.176-5.56-1.537-5.311-5.083C57.3,5.7,60.875,2.3,61.841,1.793A6.778,6.778,0,0,0,59.2,1.211c-1.428.055-4.844.315-3.935,5.6.037.213.114,1-.542.287a3.482,3.482,0,0,1-.481-3.825A5.672,5.672,0,0,1,58.419.092a10.615,10.615,0,0,1,5.4.873A8.249,8.249,0,0,1,68,0c2.519.046,3.927,1.6,3.457,1.972-2,1.6-2.832,1.737-3.434,1.656A21.565,21.565,0,0,1,63,2.172a9.354,9.354,0,0,0-4.2,6.316,3.365,3.365,0,0,0,3.554,3.674c2.877.044,5.18-1.813,5.713-5.488a1.227,1.227,0,0,1,.334.252m-.4-4.6c1,.066,2.4.034,2.513-.332s-1.188-.94-2.4-1.01c-1.418-.08-3.458.261-3.023.47A5.891,5.891,0,0,0,68,2.329" transform="translate(1.241 0)" fill="#f9f1f1"/>
        <path id="Path_1011" data-name="Path 1011" d="M81.409,6.566c.172.121-.015.47-.687.884s-2.094.508-1.915.314c1.448-1.581,2.43-1.321,2.6-1.2M77.582,9.919a7.528,7.528,0,0,1,.862-1.564c.121.157.6.753,2.483-.331,1.861-1.078,1.84-1.953,1.552-2.416s-1.778-.374-3.035.505c-1.466,1.026-3.793,3.821-3.206,6.063s3.845.017,5.154-2.172c0-.173.224-1.461-.31-1.529-.07.33-1.327,3.51-3.225,3.406-.7-.04-.619-1.066-.275-1.961" transform="translate(1.753 0.123)" fill="#f9f1f1"/>
        <path id="Path_1012" data-name="Path 1012" d="M18.824,34.643c0-.15-.007.233,0,0" transform="translate(0.433 0.797)" fill="#6f3031"/>
        <path id="Path_1013" data-name="Path 1013" d="M165.529,28.584l-.68,2.533H170.2c-.1,5.249-6.033,8.851-9.339,8.947s-7-2.334-7-8.072A11.35,11.35,0,0,1,159.5,22.07c3.424,1.081,7.393,2.529,10.7,2.527,1.846,0,6.516-1.749,6.515-3.7s-2.529-3.988-6.128-3.988a22.477,22.477,0,0,0-9.4,2.194,19.866,19.866,0,0,0-6.945-1.223c-7.585,0-11.476,4.087-11.476,8.365a6.418,6.418,0,0,0,3.5,6.031c.681.486,1.166.68.585-.39-4.866-8.948,3.5-10.894,7.2-10.991a12.006,12.006,0,0,1,3.2.5c-4.525,3.218-7.672,7.756-7.672,12.238,0,8.267,7.2,10.406,10.407,10.406a11.158,11.158,0,0,0,8.072-3.4c-2.431,7.1-8.074,20.813-19.257,20.815s-11.575-6.711-11.575-8.754,2.334-4.864,6.224-4.864a6.529,6.529,0,0,1,3.216,1.011c-5.207,4.631-1.82,8.849-1.173,9.495.681.681.973.777.487-.193-1.927-3.974-.2-6.791,2.086-8.363a35.9,35.9,0,0,1,6.959,7.876c7.119-7.307-.736-13.706-6.8-10-8.5-5.849-14.99-.055-14.99,4.65,0,5.933,4.767,11.865,15.175,11.865,16.731,0,23.247-22.274,24.706-26.554a49.115,49.115,0,0,1,3.7-9.045Zm4.671-9.627c4.18.1,6.319,2.722.29,2.722a17.124,17.124,0,0,1-6.782-1.59,20.45,20.45,0,0,1,6.492-1.132m-18,29.373c2.919,0,4.962,4.085,3.016,6.518a32.948,32.948,0,0,0-5.415-5.984,6.72,6.72,0,0,1,2.4-.534" transform="translate(3.068 0.39)" fill="#f9f1f1"/>
        <path id="Path_1014" data-name="Path 1014" d="M169.47,56.389a6.732,6.732,0,0,0,6.7,6.751l77.065-.005a6.746,6.746,0,0,0,.022-13.487l-77.088-.007a6.731,6.731,0,0,0-6.7,6.748" transform="translate(3.902 1.143)" fill="#f37435"/>
        <path id="Path_1015" data-name="Path 1015" d="M170.406,56.41H168.57l.013-.39.029-.389.046-.384.071-.379.082-.37.1-.362.121-.357.134-.35.157-.338.166-.33.183-.322.2-.31.212-.3.228-.292.235-.276.255-.267.261-.253.279-.24.286-.229.3-.215.312-.2.316-.185.333-.171.336-.152.347-.139.354-.121.361-.1.371-.086.371-.071.383-.047.389-.029.388-.008v1.831l-.3.009-.29.023-.288.04-.287.048-.276.064-.275.08-.267.092-.262.1-.257.118-.246.127-.245.142-.232.15-.227.164-.221.171-.207.184-.2.194-.189.2-.186.213-.17.219-.162.229-.149.237-.14.243-.13.251-.113.26-.106.264-.09.27-.077.276-.068.282-.048.286-.039.29-.024.3-.005.3Zm5.782-5.832V48.746l.221,0,.645,0,1.039,0,1.407,0h14.564l3.184,0,3.326,0h28.3l3.326,0,3.186,0h8.428l2.339,0,2.057,0h1.746l1.409,0h1.91v1.839h-1.91l-1.409,0h-1.746l-2.057,0-2.339,0h-8.428l-3.186,0-3.326,0h-28.3l-3.326,0-3.184,0H179.5l-1.407,0-1.039,0-.645,0Zm77.088-1.829.017,0-.161,0Zm0,1.839V48.748l.017,0,.384.016.379.036.373.057.368.076.359.092.354.11.347.126.338.142.332.158.318.173.313.187.3.2.29.215.282.23.27.241.256.252.246.267.235.276.22.285.208.3.191.307.18.319.167.327.148.335.132.342.118.351.1.358.079.366.069.369.046.376.028.382.009.382H258.9l-.008-.3-.021-.288-.039-.282-.046-.282-.066-.274-.074-.271-.089-.265-.1-.263-.113-.255-.123-.248-.137-.24-.148-.235-.159-.227-.169-.221-.177-.212-.188-.2-.2-.194-.206-.184-.211-.174-.225-.164-.229-.153-.235-.143-.246-.131-.247-.121-.258-.106-.261-.1-.267-.083-.273-.07-.275-.055-.28-.042-.285-.03-.29-.016Zm5.628,5.821h1.832l-.009.383-.028.382-.046.377-.069.369-.079.366-.1.358-.118.352-.132.342-.149.335-.167.327-.18.319-.191.307-.208.3-.22.286-.236.276-.245.266-.261.253-.267.242-.284.229-.289.216-.3.2-.314.187-.323.173-.33.159-.338.143-.349.125-.355.11-.361.092-.37.077-.375.056-.376.037-.385.016-.043-1.831.292-.017.291-.03.281-.042.277-.056.275-.07.268-.082.262-.1.259-.107.252-.121.243-.131.236-.143.23-.153.224-.164.213-.173.209-.184.2-.2.188-.2.178-.212.169-.222.159-.226.148-.236.137-.24.123-.248.114-.256.1-.262.089-.266.074-.271.066-.274.046-.282.039-.283.021-.288Zm-5.628,7.662Zm0,0h-.021l-77.066.006V62.245l77.066-.005Zm-77.088-1.826v1.832l-.391-.009-.386-.03-.383-.047-.371-.07-.371-.086-.361-.1-.354-.121-.347-.139-.34-.153-.325-.171-.32-.184-.311-.2-.3-.214-.285-.23-.276-.24-.264-.253-.256-.266-.238-.277-.225-.292-.212-.3-.2-.311-.183-.322-.166-.33-.157-.338-.134-.35-.121-.357-.1-.363-.082-.373-.07-.375-.046-.384-.029-.389-.009-.391h1.832l.008.3.024.3.039.291.047.288.069.281.076.276.091.271.105.263.114.26.129.252.141.242.148.237.162.229.174.219.182.214.19.2.2.2.211.183.22.172.228.164.231.15.241.141.254.128.253.118.262.1.267.091.275.08.276.065.287.048.288.04.294.024Z" transform="translate(3.881 1.123)" fill="#6f3031"/>
        <path id="Path_1016" data-name="Path 1016" d="M169.47,56.389a6.732,6.732,0,0,0,6.7,6.751l77.065-.005a6.746,6.746,0,0,0,.022-13.487l-77.088-.007a6.731,6.731,0,0,0-6.7,6.748" transform="translate(3.902 1.143)" fill="#6f3031"/>
        <path id="Path_1017" data-name="Path 1017" d="M171.758,58.476a6.732,6.732,0,0,0,6.7,6.75l77.066-.008a6.747,6.747,0,0,0,.017-13.489l-77.084,0a6.732,6.732,0,0,0-6.7,6.751" transform="translate(3.955 1.191)" fill="#f37435"/>
        <path id="Path_1018" data-name="Path 1018" d="M170.6,58.2h-1.825l.012-.376.03-.371.05-.367.068-.359.087-.357.1-.351.125-.341.137-.331.153-.325.172-.317.185-.308.2-.3.215-.287.231-.277.242-.266.257-.255.268-.241.278-.23.29-.216.3-.2.315-.192.32-.176.332-.164.344-.145.348-.131.358-.115.365-.1.374-.08.378-.068.386-.043.392-.03.392-.008v1.751l-.307.008-.3.021-.294.038-.292.047-.282.065-.278.073-.273.088-.27.1-.258.113-.254.122-.249.136-.236.144-.231.155-.224.168-.215.176-.2.185-.192.194-.185.2-.174.211-.165.218-.151.228-.142.232-.13.24-.119.245-.106.256-.09.258-.081.262-.065.267-.052.277-.037.277-.022.282-.005.287Zm5.885-5.579V50.868l.224,0,.654,0h1.055l1.427,0,1.771,0h4.457l2.63,0,2.858,0h3.059l3.232,0,3.374,0h3.489l3.574,0,3.632,0h3.661l3.66,0h3.633l3.574,0h3.49l3.375,0,3.231,0h3.06l2.86,0,2.63,0h4.459l1.772,0h3.365v1.759h-3.365l-1.772,0h-4.459l-2.63,0-2.86,0h-3.06l-3.231,0-3.375,0h-3.49l-3.574,0h-3.633l-3.66,0H211.92l-3.632,0-3.574,0h-3.489l-3.374,0-3.232,0h-3.059l-2.858,0-2.63,0h-4.457l-1.771,0-1.427,0h-1.055l-.654,0Zm78.206-1.75.021,0-.164,0Zm0,1.759V50.869l.021,0,.385.015.383.036.379.054.37.073.363.089.357.1.348.122.345.135.333.149.325.167.314.178.3.194.3.206.283.217.273.23.259.242.252.254.234.265.226.276.21.281.2.3.181.3.169.313.15.319.137.33.119.337.1.341.084.352.07.352.046.361.03.365.012.368h-1.829l-.005-.279-.023-.276-.038-.271-.049-.27-.063-.262-.078-.259-.091-.255-.1-.247-.115-.244-.126-.236-.139-.234-.151-.221-.161-.22-.169-.209-.183-.2-.188-.192-.2-.186-.209-.176-.219-.169-.224-.158-.234-.146-.242-.137-.247-.126-.255-.116L256.647,53l-.269-.089-.272-.082-.278-.068-.283-.052-.285-.041-.291-.029-.3-.015Zm5.727,5.569h1.829l-.012.368-.03.364-.046.362-.07.351-.084.352-.1.342-.119.337-.137.33-.151.319-.168.312-.182.3-.194.3-.211.284-.226.273-.238.265-.249.255-.26.241-.273.231-.288.216-.294.206-.306.194-.318.178-.326.166-.333.15-.343.137-.349.119-.358.1-.368.087-.371.073-.376.054-.384.036-.39.015-.036-1.752.3-.014.292-.029.289-.041.285-.052.276-.066.273-.082.27-.092.263-.1.256-.116.248-.125.239-.137.234-.146.23-.158.215-.168.21-.177.2-.185.192-.193.18-.2.169-.212.162-.217.151-.221.138-.233.126-.237.116-.243.1-.248.091-.254.078-.26.063-.262.049-.27.038-.271.023-.275Zm-5.726,7.321Zm0,0h-.018l-78.189.008V63.775l78.189-.009Zm-78.207-1.743V65.53l-.392-.012-.392-.029-.386-.045-.378-.068-.374-.078-.365-.1-.359-.116-.347-.129-.345-.147-.331-.164-.321-.175-.315-.192-.3-.2-.29-.216-.282-.23-.265-.242-.258-.255-.241-.265-.23-.277L170.1,62.3l-.2-.3-.189-.308-.172-.316-.153-.327-.137-.33-.125-.341-.1-.35-.086-.354-.071-.361-.047-.368-.03-.371-.009-.375H170.6l.009.286.022.282.039.278.05.272.065.271.08.261.09.258.107.256.118.245.129.24.139.232.156.227.164.219.174.21.185.2.193.193.207.186.212.176.225.168.23.156.236.144.249.135.255.122.258.113.269.1.273.089.278.074.283.064.292.047.293.038.3.02.307.005Z" transform="translate(3.886 1.172)" fill="#6f3031"/>
        <path id="Path_1019" data-name="Path 1019" d="M169.668,58.178a6.639,6.639,0,0,0,6.8,6.452l78.19-.008a6.45,6.45,0,1,0,.016-12.893l-78.206,0a6.638,6.638,0,0,0-6.8,6.453" transform="translate(3.906 1.191)" fill="#6f3031"/>
        <path id="Path_1020" data-name="Path 1020" d="M258.015,56.389h1.837l-.007.342-.025.342-.04.334-.057.332-.074.324-.091.318-.1.313-.12.3-.132.3-.143.291-.159.279-.174.273-.183.264-.194.256-.208.246-.217.234-.23.223-.239.214-.248.2-.259.19-.268.179-.274.164-.285.153-.292.138-.3.126-.308.11-.315.1-.319.08-.324.068-.332.05-.338.033-.338.014-.043-1.838.251-.014.243-.026.238-.036.238-.045.233-.059.228-.069.221-.081.216-.09.213-.1.207-.11.2-.121.194-.128.188-.139.183-.146.174-.156.166-.165.159-.171.15-.179.143-.184.134-.193.122-.2.116-.208.107-.211.1-.214.083-.225.079-.226.062-.232.052-.237.043-.238.032-.248.018-.247Zm-4.758,6.793Zm-.043-1.838.043,1.838h-.021l-.221,0h-1.683l-1.406,0h-1.744l-2.054,0-2.337,0H241.2l-2.816,0-3.014,0h-3.183l-3.324,0-3.437,0H207.535l-3.522,0-3.437,0h-3.326l-3.184,0-3.016,0h-2.818l-2.592,0H179.5l-1.409,0h-1.042l-.649,0-.251,0,.051-1.837.2,0,.649,0h1.042l1.409,0h6.143l2.592,0h2.818l3.016,0,3.184,0h3.326l3.437,0,3.522,0h17.892l3.437,0,3.324,0h3.183l3.014,0,2.816,0h2.59l2.337,0,2.054,0h1.744l1.406,0h1.683l.221,0Zm-77.043.005h0Zm.026,0-.051,1.837h.026l-.344-.007-.343-.026-.339-.041-.335-.063-.329-.076-.319-.09-.314-.106-.309-.123-.3-.136-.292-.151-.284-.164-.272-.178-.269-.189-.253-.2-.243-.214-.236-.223-.224-.237-.213-.246-.2-.258-.188-.267-.177-.274-.162-.286-.147-.293-.139-.3-.119-.307-.105-.317-.09-.321-.076-.328-.062-.336-.041-.342-.027-.346-.007-.346h1.838l.007.26.019.252.034.247.04.244.055.24.068.235.078.23.09.227.1.217.111.215.119.206.128.2.137.194.147.186.154.182.161.171.17.166.18.157.187.145.189.138.2.127.2.121.212.107.219.1.221.087.228.078.233.069.235.055.241.041.245.033.25.02.257.007Zm-4.941-4.96h-1.842l.011-.346.027-.345.041-.342.062-.332.072-.33.093-.322.106-.316.119-.31.138-.3.147-.293.162-.285.177-.275.187-.266.2-.258.213-.246.222-.236.234-.224.244-.213.253-.2.268-.189.273-.178.283-.163.292-.152.3-.135.308-.123.314-.106.32-.091.329-.076.334-.062.335-.042.347-.026.344-.007v1.838l-.257.007-.246.019-.249.034-.24.041-.236.054-.232.069-.228.079-.222.087-.219.1-.212.108-.2.12-.2.128-.189.138-.187.145-.18.157-.169.166-.166.171-.154.181-.143.186-.137.193-.128.2-.119.207-.109.214-.1.22-.09.223-.078.23-.063.235-.058.238-.04.246-.034.248-.019.252,0,.259Zm4.914-6.794h0Zm0,1.838V49.6h.874l1.043,0,1.409,0h1.747l2.057,0,2.34,0h2.592l2.818,0,3.016,0h9.947l3.523,0,3.579,0h3.607l3.606,0,3.578,0h3.521l3.437,0,3.324,0h3.184l3.014,0h5.406l2.337,0h2.054l1.744,0h3.089l.221,0v1.838l-.221,0h-3.089l-1.744,0h-2.054l-2.337,0h-5.406l-3.014,0h-3.184l-3.324,0-3.437,0h-3.521l-3.578,0-3.606,0h-3.607l-3.579,0-3.523,0h-9.947l-3.016,0-2.818,0h-2.592l-2.34,0-2.057,0h-1.747l-1.409,0-1.043,0h-.874ZM253.235,49.6h0Zm0,1.838V49.6h.017l.342.014.338.032.332.051.324.067.319.081.315.1.308.11.3.126.292.137.285.153.274.165.268.179.259.19.248.2.239.213.23.223.217.235.208.244.194.256.183.265.174.272.159.279.143.29.132.3.116.3.1.313.091.319.074.322.057.334.04.332.025.342.007.341h-1.837l-.008-.255-.018-.247-.032-.247-.043-.239-.052-.236-.062-.232-.075-.226-.087-.224-.1-.214-.107-.211-.116-.208-.122-.2-.134-.193-.143-.184-.15-.179-.159-.171-.166-.165-.174-.156-.183-.145-.188-.139-.194-.129-.2-.121-.207-.11-.213-.1-.216-.09-.221-.081-.228-.069-.233-.059-.238-.045-.238-.036-.243-.026-.248-.014Z" transform="translate(3.901 1.142)" fill="#fff"/>
        <path id="Path_1021" data-name="Path 1021" d="M258.913,56.369a5.854,5.854,0,0,0-5.7-5.87s-77.016,0-77.066-.005a5.877,5.877,0,0,0,0,11.754c.046,0,77.064-.005,77.064-.005a5.854,5.854,0,0,0,5.7-5.873" transform="translate(3.921 1.163)" fill="#6f3031"/>
        <path id="Path_1022" data-name="Path 1022" d="M252.086,54.876q-.646,0-1.3,1.031a3.487,3.487,0,0,0-.651,1.771.452.452,0,0,0,.152.409q.322.189,1.206-1.021a3.707,3.707,0,0,0,.883-1.858q0-.333-.294-.332m2.014,2.689a2.757,2.757,0,0,1-.832.912,1.962,1.962,0,0,1-1.116.523.466.466,0,0,1-.37-.151.775.775,0,0,1-.133-.514,3.073,3.073,0,0,1,.065-.575,6.8,6.8,0,0,1,.219-.793,5.222,5.222,0,0,1-1.215,1.463,1.962,1.962,0,0,1-1.16.493.8.8,0,0,1-.665-.313,1.419,1.419,0,0,1-.247-.893,2.885,2.885,0,0,1,1.083-2.355,3.427,3.427,0,0,1,2.166-.884.879.879,0,0,1,.713.247.322.322,0,0,1,.171-.256.988.988,0,0,1,.351-.048h.674c.045,0,.1,0,.158.009s.09.048.09.124a.521.521,0,0,1-.019.1l-.978,3.068a.654.654,0,0,0-.029.162c0,.089.032.133.1.133a.606.606,0,0,0,.327-.185,1.817,1.817,0,0,0,.338-.375c.083-.126.165-.189.247-.189s.105.044.105.133a.431.431,0,0,1-.038.171m-5.91.151a2.917,2.917,0,0,1-.831.969,1.57,1.57,0,0,1-.9.332.76.76,0,0,1-.546-.193.732.732,0,0,1-.2-.557,1.659,1.659,0,0,1,.085-.475l.9-2.394c.032-.159-.007-.237-.115-.237a.514.514,0,0,0-.289.166,2.856,2.856,0,0,0-.424.518,5.226,5.226,0,0,0-.536.87q-.215.44-.813,1.895a.2.2,0,0,1-.075.176.572.572,0,0,1-.295.052h-.674a.261.261,0,0,1-.3-.295l.893-2.992a.47.47,0,0,0,.029-.151c0-.064-.021-.1-.066-.1a.43.43,0,0,0-.223.124,4.226,4.226,0,0,0-.347.338c-.133.143-.237.214-.313.214s-.105-.032-.105-.1a1.078,1.078,0,0,1,.262-.432,3.014,3.014,0,0,1,.769-.646,1.733,1.733,0,0,1,.879-.319.525.525,0,0,1,.394.151.635.635,0,0,1,.148.456,3.023,3.023,0,0,1-.3,1.121,4.6,4.6,0,0,1,1.121-1.3,1.807,1.807,0,0,1,1.035-.4.829.829,0,0,1,.58.2.623.623,0,0,1,.218.475.513.513,0,0,1-.038.21l-.893,2.47a.957.957,0,0,0-.076.3c0,.05.019.076.057.076.07,0,.171-.069.3-.209a3.928,3.928,0,0,0,.347-.413c.1-.136.179-.2.242-.2s.114.059.114.18a.489.489,0,0,1-.019.114m-7.552-2.84q-.646,0-1.3,1.031a3.481,3.481,0,0,0-.652,1.771.452.452,0,0,0,.152.409q.322.189,1.206-1.021a3.711,3.711,0,0,0,.884-1.858q0-.333-.295-.332m2.014,2.689a2.744,2.744,0,0,1-.832.912A1.959,1.959,0,0,1,240.7,59a.466.466,0,0,1-.37-.151.781.781,0,0,1-.133-.514,3.163,3.163,0,0,1,.065-.575,6.8,6.8,0,0,1,.219-.793,5.222,5.222,0,0,1-1.215,1.463,1.962,1.962,0,0,1-1.159.493.8.8,0,0,1-.665-.313,1.413,1.413,0,0,1-.247-.893,2.884,2.884,0,0,1,1.082-2.355,3.432,3.432,0,0,1,2.167-.884.875.875,0,0,1,.712.247.322.322,0,0,1,.171-.256.992.992,0,0,1,.351-.048h.675q.066,0,.157.009c.06.006.09.048.09.124a.587.587,0,0,1-.018.1l-.979,3.068a.707.707,0,0,0-.029.162c0,.089.032.133.1.133a.607.607,0,0,0,.328-.185,1.815,1.815,0,0,0,.338-.375c.082-.126.164-.189.247-.189s.1.044.1.133a.413.413,0,0,1-.038.171M236.743,55.4a3.619,3.619,0,0,1-.561,1.648,3.869,3.869,0,0,1-1.04,1.321,4.035,4.035,0,0,1-.874.456,2.238,2.238,0,0,1-.727.137,1.074,1.074,0,0,1-.78-.276.935.935,0,0,1-.284-.7,1.344,1.344,0,0,1,.076-.418l.751-2.242a.244.244,0,0,0,.029-.1c0-.056-.032-.085-.1-.085a.545.545,0,0,0-.3.157,1.469,1.469,0,0,0-.323.375c-.089.145-.174.218-.256.218-.115,0-.172-.053-.172-.162a1.2,1.2,0,0,1,.21-.365,2.378,2.378,0,0,1,.755-.618,2.015,2.015,0,0,1,1-.318.648.648,0,0,1,.428.133.5.5,0,0,1,.162.408,1.419,1.419,0,0,1-.086.438l-.6,1.871c-.026.082-.056.2-.091.342a1.664,1.664,0,0,0-.051.381c0,.272.1.408.3.408q.485,0,1.173-.807a2.438,2.438,0,0,0,.69-1.549V55.92a2,2,0,0,0-.233-.579,1.5,1.5,0,0,1-.2-.494.428.428,0,0,1,.06-.219.7.7,0,0,1,.21-.2.517.517,0,0,1,.291-.1.451.451,0,0,1,.384.252,1.622,1.622,0,0,1,.158.823m-4.418-.228a.758.758,0,0,1-.241.66.885.885,0,0,1-.613.261.356.356,0,0,1-.409-.4.5.5,0,0,0-.038-.2.127.127,0,0,0-.124-.09q-.209,0-.65.674a10.338,10.338,0,0,0-.847,1.63,5.838,5.838,0,0,1-.5,1.04.473.473,0,0,1-.314.085h-.674c-.2,0-.3-.076-.3-.228l.9-2.992a.7.7,0,0,0,.028-.171c0-.1-.038-.152-.114-.152a.689.689,0,0,0-.522.361c-.172.241-.293.361-.361.361s-.1-.047-.1-.142l.018-.1a3.277,3.277,0,0,1,.87-.922,1.716,1.716,0,0,1,.964-.4.509.509,0,0,1,.4.167.8.8,0,0,1,.147.536,2.671,2.671,0,0,1-.071.561,5.649,5.649,0,0,1-.224.731,5.135,5.135,0,0,1,1.1-1.477,1.614,1.614,0,0,1,.993-.46.65.65,0,0,1,.494.19.658.658,0,0,1,.18.475m-5.234,2.47a2.84,2.84,0,0,1-.941.922,2.137,2.137,0,0,1-1.1.39.631.631,0,0,1-.451-.158.644.644,0,0,1-.166-.489,1.869,1.869,0,0,1,.061-.46,3.876,3.876,0,0,1,.2-.575l.816-1.871a.366.366,0,0,0,.029-.124.084.084,0,0,0-.1-.1.817.817,0,0,0-.589.38c-.2.254-.331.381-.389.381-.1,0-.152-.054-.152-.162a.229.229,0,0,1,.076-.162,3.539,3.539,0,0,1,.979-.827,2.016,2.016,0,0,1,.96-.3c.417,0,.627.2.627.589a1.372,1.372,0,0,1-.1.475l-.893,2.318a1.029,1.029,0,0,0-.048.209q0,.086.068.086c.076,0,.2-.076.37-.228a4.931,4.931,0,0,0,.5-.523.092.092,0,0,1,.085-.056.145.145,0,0,1,.109.061.208.208,0,0,1,.053.137.317.317,0,0,1-.019.086m.37-4.123a.8.8,0,0,1-.338.508,1,1,0,0,1-.6.2.531.531,0,0,1-.413-.185.651.651,0,0,1-.167-.451,2.34,2.34,0,0,1,.038-.271.707.707,0,0,1,.295-.412.919.919,0,0,1,.579-.2.588.588,0,0,1,.447.19.662.662,0,0,1,.18.475.836.836,0,0,1-.018.142m-2.841-.361c.026.145-.1.236-.39.271s-.452.144-.5.327l-1.577,4.93a.556.556,0,0,1-.133.237.26.26,0,0,1-.19.086.33.33,0,0,1-.223-.1.844.844,0,0,1-.194-.3l-2.176-4.331L218.2,57.794a1.107,1.107,0,0,0-.063.323q0,.295.38.322t.352.246c0,.127-.112.19-.332.19-.057,0-.174-.006-.352-.018s-.322-.019-.437-.019-.215,0-.342.01-.263.015-.408.028q-.295,0-.295-.19t.4-.209a.473.473,0,0,0,.49-.389l1.273-4.19a.831.831,0,0,0,.038-.237c0-.145-.106-.228-.318-.248s-.318-.1-.318-.256a.15.15,0,0,1,.081-.146.516.516,0,0,1,.241-.044c.063,0,.19.006.381.019s.3.019.342.019c.083,0,.214-.007.395-.019l.279-.019a.759.759,0,0,1,.276.044.309.309,0,0,1,.171.146l1.8,3.813.979-3.217a.236.236,0,0,0,.008-.061v-.042q0-.161-.418-.2c-.277-.026-.417-.123-.417-.293a.149.149,0,0,1,.114-.146.891.891,0,0,1,.314-.044c.082,0,.19.005.322.014s.282.017.447.025h.55a1.4,1.4,0,0,1,.409.036.121.121,0,0,1,.085.116m-11.076,1.8a.851.851,0,0,1,.029.228,2.673,2.673,0,0,1-.413,1.254,8.023,8.023,0,0,1-.812,1.206l-1.5,1.8a8.345,8.345,0,0,1-1.225,1.207,1.865,1.865,0,0,1-1.13.446h-.115a1.112,1.112,0,0,1-.726-.209.618.618,0,0,1-.252-.485.469.469,0,0,1,.156-.356.638.638,0,0,1,.452-.147.707.707,0,0,1,.556.295.66.66,0,0,0,.489.294q.485,0,.8-.736a3.167,3.167,0,0,0,.318-1.136q-.086-1.1-.138-1.738a10.979,10.979,0,0,0-.156-1.177,1.2,1.2,0,0,0-.142-.357.212.212,0,0,0-.171-.108.322.322,0,0,0-.233.142,3.213,3.213,0,0,0-.261.38c-.1.159-.184.237-.266.237-.063,0-.1-.05-.1-.151a1.2,1.2,0,0,1,.081-.3,2.364,2.364,0,0,1,.589-.7,1.472,1.472,0,0,1,.974-.475q.483,0,.788.632a5.333,5.333,0,0,1,.3,2.132v1.046a2.835,2.835,0,0,0,.747-.888,3.751,3.751,0,0,0,.389-.865,2.274,2.274,0,0,0,.072-.374,1.494,1.494,0,0,0-.128-.476,1.467,1.467,0,0,1-.129-.465,1.031,1.031,0,0,1,.043-.261.579.579,0,0,1,.2-.29.54.54,0,0,1,.351-.133.482.482,0,0,1,.323.133.814.814,0,0,1,.228.408m-4.646.219a.759.759,0,0,1-.242.66.883.883,0,0,1-.613.261.356.356,0,0,1-.408-.4.479.479,0,0,0-.039-.2.126.126,0,0,0-.123-.09q-.21,0-.651.674a10.34,10.34,0,0,0-.846,1.63,5.877,5.877,0,0,1-.5,1.04.469.469,0,0,1-.314.085h-.674c-.2,0-.3-.076-.3-.228l.9-2.992a.692.692,0,0,0,.028-.171c0-.1-.038-.152-.114-.152a.69.69,0,0,0-.522.361c-.172.241-.292.361-.361.361s-.1-.047-.1-.142l.019-.1a3.259,3.259,0,0,1,.869-.922,1.718,1.718,0,0,1,.964-.4.508.508,0,0,1,.4.167.8.8,0,0,1,.147.536,2.675,2.675,0,0,1-.071.561,5.807,5.807,0,0,1-.223.731,5.135,5.135,0,0,1,1.1-1.477,1.611,1.611,0,0,1,.992-.46.647.647,0,0,1,.494.19.659.659,0,0,1,.181.475m-7.325-.295q-.646,0-1.3,1.031a3.485,3.485,0,0,0-.65,1.771c0,.209.05.346.151.409q.324.189,1.207-1.021a3.717,3.717,0,0,0,.883-1.858q0-.333-.295-.332m2.014,2.689a2.745,2.745,0,0,1-.832.912A1.959,1.959,0,0,1,201.64,59a.467.467,0,0,1-.37-.151.781.781,0,0,1-.133-.514,3,3,0,0,1,.066-.575,6.6,6.6,0,0,1,.219-.793,5.223,5.223,0,0,1-1.216,1.463,1.957,1.957,0,0,1-1.159.493.8.8,0,0,1-.665-.313,1.413,1.413,0,0,1-.248-.893,2.885,2.885,0,0,1,1.083-2.355,3.431,3.431,0,0,1,2.166-.884.876.876,0,0,1,.713.247.322.322,0,0,1,.171-.256.994.994,0,0,1,.352-.048h.674q.066,0,.156.009c.06.006.09.048.09.124a.524.524,0,0,1-.019.1l-.977,3.068a.665.665,0,0,0-.03.162c0,.089.033.133.1.133a.607.607,0,0,0,.328-.185,1.782,1.782,0,0,0,.337-.375c.083-.126.165-.189.247-.189s.105.044.105.133a.413.413,0,0,1-.038.171m-5.909.151a2.907,2.907,0,0,1-.832.969,1.567,1.567,0,0,1-.9.332.762.762,0,0,1-.546-.193.736.736,0,0,1-.2-.557,1.63,1.63,0,0,1,.086-.475l.9-2.394c.032-.159-.006-.237-.114-.237a.516.516,0,0,0-.291.166,2.859,2.859,0,0,0-.423.518,5.238,5.238,0,0,0-.537.87q-.213.44-.812,1.895a.2.2,0,0,1-.076.176.572.572,0,0,1-.295.052h-.674a.26.26,0,0,1-.295-.295l.893-2.992a.472.472,0,0,0,.029-.151c0-.064-.023-.1-.066-.1a.426.426,0,0,0-.223.124,4.221,4.221,0,0,0-.348.338c-.132.143-.236.214-.313.214s-.1-.032-.1-.1a1.065,1.065,0,0,1,.262-.432,3,3,0,0,1,.769-.646,1.73,1.73,0,0,1,.878-.319.527.527,0,0,1,.395.151.634.634,0,0,1,.147.456,3.039,3.039,0,0,1-.3,1.121,4.586,4.586,0,0,1,1.12-1.3,1.812,1.812,0,0,1,1.036-.4.825.825,0,0,1,.579.2.624.624,0,0,1,.219.475.529.529,0,0,1-.038.21l-.893,2.47a.931.931,0,0,0-.076.3c0,.05.018.076.056.076.07,0,.172-.069.3-.209a3.932,3.932,0,0,0,.347-.413c.1-.136.179-.2.242-.2s.114.059.114.18a.535.535,0,0,1-.018.114m-5.463-.076a2.837,2.837,0,0,1-.94.922,2.14,2.14,0,0,1-1.1.39.631.631,0,0,1-.451-.158.64.64,0,0,1-.167-.489,1.872,1.872,0,0,1,.061-.46,4,4,0,0,1,.2-.575l.817-1.871a.393.393,0,0,0,.029-.124.084.084,0,0,0-.1-.1.817.817,0,0,0-.589.38q-.3.381-.39.381c-.1,0-.151-.054-.151-.162a.225.225,0,0,1,.076-.162,3.538,3.538,0,0,1,.979-.827,2.013,2.013,0,0,1,.959-.3q.628,0,.627.589a1.35,1.35,0,0,1-.1.475l-.893,2.318a1,1,0,0,0-.047.209c0,.057.021.086.066.086.076,0,.2-.076.37-.228a4.831,4.831,0,0,0,.5-.523.094.094,0,0,1,.086-.056.147.147,0,0,1,.109.061.207.207,0,0,1,.052.137.318.318,0,0,1-.019.086m.37-4.123a.8.8,0,0,1-.337.508,1,1,0,0,1-.6.2.533.533,0,0,1-.413-.185.651.651,0,0,1-.167-.451,2.2,2.2,0,0,1,.039-.271.7.7,0,0,1,.295-.412.917.917,0,0,1,.579-.2.588.588,0,0,1,.447.19.662.662,0,0,1,.18.475.764.764,0,0,1-.019.142m-2.84-.816-1.567,5.092a1.273,1.273,0,0,0-.047.266c0,.088.028.133.085.133.076,0,.189-.077.342-.228a2.3,2.3,0,0,0,.37-.475.228.228,0,0,1,.19-.105c.1,0,.142.045.142.134a1.683,1.683,0,0,1-.223.4,2.408,2.408,0,0,1-.722.674,1.719,1.719,0,0,1-.935.327.706.706,0,0,1-.508-.175.682.682,0,0,1-.185-.518,1.56,1.56,0,0,1,.076-.437l1.34-4.266a.237.237,0,0,0,.018-.085v-.057a.13.13,0,0,0-.052-.119.251.251,0,0,0-.138-.033c-.082.006-.145.009-.189.009a.283.283,0,0,1-.176-.048A.231.231,0,0,1,187.5,53c0-.089.236-.139.708-.147a2.71,2.71,0,0,0,1.24-.3.388.388,0,0,1,.21-.076c.069,0,.1.038.1.114Zm-3.591,4.939a3.7,3.7,0,0,1-.913.993,1.623,1.623,0,0,1-.921.374.526.526,0,0,1-.428-.18.877.877,0,0,1-.151-.57,4.014,4.014,0,0,1,.322-1.369,5.473,5.473,0,0,1-1.335,1.54,2.3,2.3,0,0,1-1.363.485.571.571,0,0,1-.442-.266,1.088,1.088,0,0,1-.138-.571,1.651,1.651,0,0,1,.039-.342,1.927,1.927,0,0,1,.094-.323l.827-1.938a.661.661,0,0,0,.029-.172c0-.075-.032-.114-.1-.114q-.227,0-.513.366t-.4.365a.161.161,0,0,1-.142-.227,3.388,3.388,0,0,1,.97-.96,1.863,1.863,0,0,1,.969-.323.81.81,0,0,1,.527.166.554.554,0,0,1,.2.452.9.9,0,0,1-.057.294l-.817,2.167a1.159,1.159,0,0,0-.094.389c0,.1.038.152.114.152.248,0,.652-.368,1.216-1.1a4.8,4.8,0,0,0,1.007-2.052.29.29,0,0,1,.086-.228.3.3,0,0,1,.209-.076h.827c.2,0,.295.05.295.151l-.969,3.145a.775.775,0,0,0-.029.18c0,.1.029.143.085.143.083,0,.192-.072.328-.214a2.522,2.522,0,0,0,.322-.4c.079-.127.158-.19.233-.19.094,0,.142.045.142.134a.249.249,0,0,1-.038.123m-5.007-4.417-.38,1.273a.24.24,0,0,1-.266.171.246.246,0,0,1-.19-.085.4.4,0,0,1-.076-.266,1.119,1.119,0,0,1,.018-.176,1.544,1.544,0,0,0,.019-.271.57.57,0,0,0-.114-.38.534.534,0,0,0-.418-.133,5.349,5.349,0,0,0-.96.162,3.1,3.1,0,0,0-1.535,1.149,3.13,3.13,0,0,0-.821,2.005,1.944,1.944,0,0,0,.476,1.377,1.485,1.485,0,0,0,1.129.514,1.62,1.62,0,0,0,.913-.284,2.07,2.07,0,0,0,.7-.865c.07-.189.178-.285.323-.285a.229.229,0,0,1,.167.062.148.148,0,0,1,.033.157l-.295,1.046q-.058.227-.646.413a4.936,4.936,0,0,1-1.454.185,4.1,4.1,0,0,1-2.072-.528,1.766,1.766,0,0,1-.921-1.648,3.147,3.147,0,0,1,1.163-2.489,4.975,4.975,0,0,1,2.024-1.182,12.48,12.48,0,0,1,1.326-.233,8.229,8.229,0,0,1,.827-.048,3.106,3.106,0,0,1,.793.081c.193.054.27.147.232.28" transform="translate(4.024 1.209)" fill="#fff"/>
      </g>
    </g>
  </g>
</svg>
