<svg xmlns="http://www.w3.org/2000/svg" xmlns:xlink="http://www.w3.org/1999/xlink" width="81" height="81" viewBox="0 0 81 81">
  <defs>
    <linearGradient id="linear-gradient" x1="0.086" y1="-0.037" x2="0.913" y2="1.035" gradientUnits="objectBoundingBox">
      <stop offset="0" stop-color="#edbc4f"/>
      <stop offset="0.039" stop-color="#9f6a31"/>
      <stop offset="0.259" stop-color="#895830"/>
      <stop offset="0.549" stop-color="#f5ef8e"/>
      <stop offset="0.812" stop-color="#895830"/>
      <stop offset="0.949" stop-color="#ce904c"/>
      <stop offset="1" stop-color="#895830"/>
    </linearGradient>
    <linearGradient id="linear-gradient-2" x1="0.202" y1="-0.031" x2="0.797" y2="1.029" gradientUnits="objectBoundingBox">
      <stop offset="0" stop-color="#edbc4f"/>
      <stop offset="0.102" stop-color="#9f6a31"/>
      <stop offset="0.341" stop-color="#895830"/>
      <stop offset="0.459" stop-color="#f5ef8e"/>
      <stop offset="0.651" stop-color="#895830"/>
      <stop offset="0.82" stop-color="#ce904c"/>
      <stop offset="1" stop-color="#895830"/>
    </linearGradient>
    <linearGradient id="linear-gradient-3" x1="-0.081" y1="0.092" x2="1.075" y2="0.9" gradientUnits="objectBoundingBox">
      <stop offset="0" stop-color="#edbc4f"/>
      <stop offset="0.012" stop-color="#9f6a31"/>
      <stop offset="0.02" stop-color="#895830"/>
      <stop offset="0.459" stop-color="#f5ef8e"/>
      <stop offset="0.82" stop-color="#ce904c"/>
      <stop offset="0.988" stop-color="#895830"/>
      <stop offset="1" stop-color="#895830"/>
    </linearGradient>
    <linearGradient id="linear-gradient-4" x1="-0.151" y1="0.156" x2="1.141" y2="0.839" xlink:href="#linear-gradient-3"/>
    <linearGradient id="linear-gradient-5" x1="-0.008" y1="0.016" x2="1.008" y2="0.982" gradientUnits="objectBoundingBox">
      <stop offset="0" stop-color="#edbc4f"/>
      <stop offset="0.012" stop-color="#f5ef8e"/>
      <stop offset="0.702" stop-color="#ce904c"/>
      <stop offset="0.988" stop-color="#df7e30"/>
      <stop offset="1" stop-color="#895830"/>
    </linearGradient>
  </defs>
  <g id="Group_1" data-name="Group 1" transform="translate(-904 29)">
    <path id="Path_994" data-name="Path 994" d="M40.5,0A40.5,40.5,0,1,1,0,40.5,40.5,40.5,0,0,1,40.5,0Z" transform="translate(904 -29)" fill="#f9f1f1"/>
    <g id="Layer_x0020_1" transform="translate(910.502 -11.408)">
      <path id="Path_1" data-name="Path 1" d="M37.015,15.7c1.374-.807,3.178-.258,4.8-.272a29.244,29.244,0,0,0,4.253-.724,42.469,42.469,0,0,1,10.044-.543c5.214.416,9.976,2.438,12.85,5.428,3.212,3.343,4.122,8.327,4.072,14.926a17.009,17.009,0,0,1,1.719.994c.547.323,1.4.489,1.448,1.086-.523.774-1.616-.635-2.986-.181a7.489,7.489,0,0,0,2.353,4.071c.9-.4,1.9-1.529.905-2.533,2.51.462,1.565,3.81-.634,3.618-.986-.086-2.722-2.31-3.168-3.166-.3-.575-.331-1.314-.633-1.9-.675.109-.684.884-1.176,1.176-.373,4.046.3,7.939,2.624,9.95.836.722,1.851.883,2.715,1.628a8.94,8.94,0,0,1-2.986,5.609c-.314.232-1.254.76-1.719.633-.6-.165-.765-1.58-1.086-2.171-1.519-2.8-6.354-4.048-6.424-7.961A9.4,9.4,0,0,0,61.718,50.8c-.3,3.583.693,7.507-3.348,7.417a17.548,17.548,0,0,1-3.439-.543c-.34-.092-.746-.171-.814-.543-.371.462-.5,1.177-1.086,1.447-1.913.884-6.11.221-6.334-1.266-.132-.874.772-1.72.9-2.533a7.164,7.164,0,0,0,0-1.718c-.37-3.971-3.4-6.993-5.067-9.68-3.194,1.917-4.547,6.014-5.972,10.041-.793,2.244-1.056,4-3.891,4.161-1.491.086-5.106-.758-5.158-2.171-.027-.736.976-1,1.538-1.447,2.376-1.871,2.438-6.268,3.71-9.86,1.006-2.842,2.946-4.82,4.162-6.875-.578-.808-.161-1.528-.814-2.262a5.191,5.191,0,0,0-.994,2.8,2.67,2.67,0,0,1-2.9-2.08c1.552-.047,2.1-1.1,3.167-1.628-.827-1.071-.836-3.219-2.534-3.347a13.591,13.591,0,0,0-4.614,1.628,2.512,2.512,0,0,0-1.086,2.623c-.647-.015-.757-.569-1.267-.723-3.387,1.671-8.138,2.168-10.858,0a8.27,8.27,0,0,1-2.986-6.513c0-5.818,4.145-7.67,6.877-10.946-1.939.475-3.094-1.325-2.444-3.166.688-1.947,3.944-2.043,4.977-.542,1.952,2.835-.688,5.51-2.171,7.508-1.125,1.513-2.39,3-2.624,4.7a5.128,5.128,0,0,0,.181,2.262A2.154,2.154,0,0,0,19.822,28c1.458-1.246.62-5.338,1.991-6.6.164-.214-.124-.606.09-.9,1.627-1.118,2.147-3.342,3.891-4.342a7.839,7.839,0,0,1,2.534-2.985c3.007-1.757,7.852.026,8.687,2.533h0Zm17.1,39.892c.783-.138,1.169-1.247,1.267-2.171.332-3.139-1.214-7.734.272-10.4a9.4,9.4,0,0,1-4.887-.18c.506,4.862,3.075,7.661,3.348,12.755h0Z" transform="translate(-11.436 -11.441)" fill="#862e32"/>
      <path id="Path_1_-_Outline" data-name="Path 1 - Outline" d="M7.664-.015A3.373,3.373,0,0,1,10.493,1.28c1.974,2.866-.109,5.539-1.63,7.49-.194.249-.382.49-.554.721-.134.18-.269.359-.4.539A9.114,9.114,0,0,0,5.8,13.917a4.775,4.775,0,0,0,.124,1.911,1.416,1.416,0,0,0,1.2.523,1.325,1.325,0,0,0,.849-.262c.559-.478.7-1.745.828-2.97a6.432,6.432,0,0,1,.992-3.46V9.652a1.237,1.237,0,0,1,.164-.963l.062-.086.087-.06a6.83,6.83,0,0,0,1.659-1.93A7.43,7.43,0,0,1,13.9,4.258l0-.006a8.09,8.09,0,0,1,2.667-3.061A6.193,6.193,0,0,1,19.694.4c2.583,0,5.172,1.317,6.163,3.041A4.9,4.9,0,0,1,27.5,3.2c.484,0,.976.044,1.452.087s.911.082,1.339.082h.059a13.387,13.387,0,0,0,2.675-.414c.486-.108.989-.219,1.484-.3A46.5,46.5,0,0,1,42,2c.927,0,1.835.035,2.7.1,5.32.425,10.269,2.523,13.238,5.612s4.255,7.589,4.242,14.966c.3.158.6.346.892.529.175.11.351.22.527.324a4.262,4.262,0,0,0,.429.208c.53.236,1.257.558,1.315,1.355l.015.209-.117.173a1.146,1.146,0,0,1-.4.372l.281.052A2.223,2.223,0,0,1,67.1,28.351a2.594,2.594,0,0,1-2.778,2.367c-1.419-.123-3.3-2.812-3.651-3.488a4.842,4.842,0,0,1-.365-1.077l-.009-.037a2.122,2.122,0,0,1-.319.42c-.342,4.206.542,7.545,2.439,9.184a5.246,5.246,0,0,0,1.2.713,6.415,6.415,0,0,1,1.511.915l.246.212-.041.322A9.605,9.605,0,0,1,62.115,43.9a4.071,4.071,0,0,1-1.919.771,1.216,1.216,0,0,1-.319-.041c-.723-.2-.984-1.041-1.214-1.785a4.578,4.578,0,0,0-.244-.68,9.656,9.656,0,0,0-2.678-2.65c-1.412-1.1-2.975-2.307-3.571-4.108a8.913,8.913,0,0,0-1.3,3.986c-.059.705-.066,1.437-.073,2.144-.027,2.732-.058,5.829-3.743,5.829l-.148,0a18.03,18.03,0,0,1-3.583-.564l-.074-.02a3.137,3.137,0,0,1-.446-.145,2.126,2.126,0,0,1-.97,1.035,6.193,6.193,0,0,1-2.485.453c-1.757,0-4.457-.58-4.7-2.178a2.991,2.991,0,0,1,.535-1.88,3.081,3.081,0,0,0,.371-.84,6.7,6.7,0,0,0-.005-1.564c-.262-2.811-1.986-5.188-3.506-7.286-.4-.555-.788-1.087-1.137-1.611-2.556,1.842-3.78,5.311-5.072,8.972l-.152.431c-.082.233-.159.46-.233.681-.642,1.908-1.248,3.71-4.193,3.882q-.121.007-.258.007c-1.6,0-5.467-.794-5.539-2.76-.033-.89.728-1.324,1.284-1.641a4.177,4.177,0,0,0,.484-.3c1.435-1.13,1.96-3.434,2.516-5.874a33.419,33.419,0,0,1,1-3.712,19.785,19.785,0,0,1,2.842-4.957q.21-.292.412-.577l-.418.009a3.24,3.24,0,0,1-3.407-2.6l-.1-.674.681-.021a2.829,2.829,0,0,0,1.83-.83c.168-.134.339-.27.523-.4-.144-.287-.263-.593-.379-.893-.382-.986-.653-1.593-1.368-1.647h0a14.011,14.011,0,0,0-4.232,1.528,1.92,1.92,0,0,0-.821,2.054l.075.686-.69-.016a1.639,1.639,0,0,1-1.164-.548c-.041-.039-.076-.072-.107-.1A14.787,14.787,0,0,1,8.377,24.84a8.213,8.213,0,0,1-5.183-1.577A8.94,8.94,0,0,1-.02,16.277c0-4.571,2.417-6.839,4.755-9.032.461-.432.931-.873,1.38-1.332a2.463,2.463,0,0,1-1.353-.967,3.278,3.278,0,0,1-.313-2.983A3.257,3.257,0,0,1,7.664-.015ZM7.125,17.56a2.528,2.528,0,0,1-2.285-1.2A5.646,5.646,0,0,1,4.6,13.753,10.091,10.091,0,0,1,6.94,9.3c.134-.177.267-.354.4-.531.177-.238.37-.487.571-.744C9.343,6.187,10.969,4.1,9.5,1.965a2.216,2.216,0,0,0-1.833-.772A2.118,2.118,0,0,0,5.588,2.366a2.076,2.076,0,0,0,.161,1.882,1.291,1.291,0,0,0,1.1.555,1.975,1.975,0,0,0,.468-.06L9.1,4.306,7.926,5.718A27.589,27.589,0,0,1,5.562,8.126c-2.249,2.11-4.373,4.1-4.373,8.151a7.723,7.723,0,0,0,2.758,6.04,7.033,7.033,0,0,0,4.429,1.314,13.544,13.544,0,0,0,5.784-1.383l.214-.106.228.069a1.532,1.532,0,0,1,.5.263,2.91,2.91,0,0,1,1.344-2.087,14.509,14.509,0,0,1,4.87-1.733q.066,0,.125,0c1.512.114,2.007,1.39,2.4,2.416a4.9,4.9,0,0,0,.562,1.164l.452.585-.007,0,.251.283a2.484,2.484,0,0,1,.589,1.472,1.677,1.677,0,0,0,.265.84l.229.32-.2.339c-.42.71-.91,1.392-1.428,2.113a18.548,18.548,0,0,0-2.684,4.655,32.522,32.522,0,0,0-.958,3.578c-.6,2.654-1.176,5.161-2.947,6.555a5.084,5.084,0,0,1-.633.4c-.3.173-.681.388-.675.546.024.671,2.534,1.6,4.331,1.6.066,0,.129,0,.188-.005,2.129-.124,2.48-1.167,3.117-3.061.076-.227.155-.46.239-.7l.152-.43c1.383-3.917,2.812-7.967,6.079-9.928l.511-.307.314.506c.407.656.9,1.338,1.425,2.06,1.612,2.223,3.438,4.743,3.731,7.882a7.645,7.645,0,0,1-.005,1.872,3.926,3.926,0,0,1-.5,1.228,2.12,2.12,0,0,0-.4,1.117c.069.457,1.5,1.149,3.5,1.149a4.942,4.942,0,0,0,1.98-.342c.181-.083.3-.291.471-.625a3.812,3.812,0,0,1,.4-.652l.433-.539-.528.093-.037-.682a20.475,20.475,0,0,0-1.666-6.592,23.234,23.234,0,0,1-1.679-6.133l-.1-.918.88.28a9.276,9.276,0,0,0,2.694.4,7.2,7.2,0,0,0,1.851-.222l1.384-.376-.7,1.253c-.83,1.492-.593,3.8-.363,6.038a21.076,21.076,0,0,1,.164,4.135,3.1,3.1,0,0,1-1.445,2.61l.162.876a2.148,2.148,0,0,0,.306.1l.081.022a16.9,16.9,0,0,0,3.294.522h.121c2.377,0,2.5-1.588,2.534-4.632.007-.729.015-1.483.077-2.232a9.992,9.992,0,0,1,2.411-5.778L53.1,32.35l.028,1.555c.037,2.085,1.648,3.334,3.352,4.656a10.633,10.633,0,0,1,3,3.027,5.12,5.12,0,0,1,.337.9,3.723,3.723,0,0,0,.393.973,3.2,3.2,0,0,0,1.186-.533,8.334,8.334,0,0,0,2.694-4.863,6.884,6.884,0,0,0-.989-.542,6.261,6.261,0,0,1-1.47-.888c-2.267-1.959-3.273-5.675-2.831-10.463l.028-.307.265-.157a1.07,1.07,0,0,0,.236-.324,1.614,1.614,0,0,1,1.152-.929l.433-.07.2.39.008.016-.031-.248.471-.156a2.431,2.431,0,0,1,.767-.123q.077,0,.152,0l-.053-.033a8.587,8.587,0,0,0-1.094-.618l-.37-.158,0-.4c.055-7.26-1.112-11.6-3.9-14.5C54.3,5.672,49.638,3.711,44.6,3.309c-.83-.066-1.7-.1-2.6-.1a45.268,45.268,0,0,0-7.3.636c-.463.077-.95.185-1.422.289a14.462,14.462,0,0,1-2.925.442h-.069c-.482,0-.973-.044-1.448-.087s-.913-.082-1.343-.082a3.35,3.35,0,0,0-1.486.278l-.567,1.135-.461-1.384c-.51-1.531-2.933-2.825-5.292-2.825a4.988,4.988,0,0,0-2.516.623,7.047,7.047,0,0,0-2.239,2.637l-.163.272-.137.078a6.132,6.132,0,0,0-1.871,2.063A8.409,8.409,0,0,1,10.977,9.4c0,.021.006.043.009.061a1.043,1.043,0,0,1-.149.849l-.031.041-.038.035c-.507.468-.638,1.684-.764,2.86-.157,1.46-.32,2.969-1.244,3.759A2.5,2.5,0,0,1,7.125,17.56Zm16,8.12a5.733,5.733,0,0,1,1.031-2.505,5.208,5.208,0,0,0-.824.575,4.519,4.519,0,0,1-1.763.986A2.122,2.122,0,0,0,23.121,25.68Zm1.643.089a2.732,2.732,0,0,1-.23-.762,4.829,4.829,0,0,0-.271,1.345l-.011.19C24.431,26.281,24.6,26.024,24.763,25.768Zm38.669,0-.082-.032a3.443,3.443,0,0,0-.872-.255,7.246,7.246,0,0,0,1.738,2.8,1.422,1.422,0,0,0,.6-.78.607.607,0,0,0-.23-.572Zm1.127,3.753A1.388,1.388,0,0,0,65.9,28.241a1.268,1.268,0,0,0,0-.18,2.94,2.94,0,0,1-1.414,1.456ZM42.191,32.411a10.821,10.821,0,0,1-2.16-.219,24.432,24.432,0,0,0,1.49,4.955,24.445,24.445,0,0,1,1.618,5.622,3.9,3.9,0,0,0,.189-.866,19.951,19.951,0,0,0-.165-3.885,15.774,15.774,0,0,1,.065-5.662A9.51,9.51,0,0,1,42.191,32.411Z" transform="translate(0.02 0.015)" fill="#6a2d3d"/>
      <path id="Path_2" data-name="Path 2" d="M1145.494,290.651h-.793l-.673-.745-.168-.6.072-.889.432-.649.6-.168.48.144.5.481.24,1.033-.168.864-.528.529h0Zm-.12-.384-.409-.072-.336-.216-.216-.648-.072-.528.264-.288a.557.557,0,0,1,.264.024,2.9,2.9,0,0,1,.553.336l.1.408.1.528-.24.456h0Z" transform="translate(-1086.537 -273.187)" fill="#d82b40"/>
      <path id="Path_3" data-name="Path 3" d="M1191.671,332.644a1.324,1.324,0,0,1,.349.109v.042l.27,2.653a.809.809,0,0,1-.424.121,1.577,1.577,0,0,1-1.338-1.526,2.883,2.883,0,0,1,.045-1.04A1.028,1.028,0,0,1,1191.671,332.644Zm.193,2.5-.288-.024-.288-.216-.24-.408-.12-.769.288-.288.5.168.264.192.169.913-.288.433h0Z" transform="translate(-1130.842 -315.951)" fill="#d82b40"/>
      <path id="Path_4" data-name="Path 4" d="M112.333,379.18a4.146,4.146,0,0,1-1.091,1.009,7.694,7.694,0,0,1-2.033,1.234,20.084,20.084,0,0,1-6.129,1.061c.116.405.625.513,1.222.683a11.629,11.629,0,0,0,3.884.328,10.55,10.55,0,0,0,5.209-2.612s.42-1.021.04-1.322a2.618,2.618,0,0,0-1.1-.38Z" transform="translate(-97.913 -360.177)" fill="#fff"/>
      <path id="Path_5" data-name="Path 5" d="M1085.47,311.16l1.256.673,1.144.762,1.681,1.435,1.7,1.659,1.1,1.144.2.919-.493.135-.4-.135-.224-.516-.045-.6-.516-.112-.224-.4-.112-.337-.494-.112-.269-.269-.022-.493-.359-.023-.4-.135-.157-.4-.045-.269h-.449l-.336-.381-.18-.538-.516-.022-.381-.247-.18-.292-.291-.09-.381.023Z" transform="translate(-1031.073 -295.566)" fill="#d82b40"/>
      <path id="Path_6" data-name="Path 6" d="M621.173,54.89l-3.836.19-7.317,1.208,2.573,1.182L614.41,59.7l.466,1.976-.058,2.538-.605,2.709-1.065,1.611-1.561,2.408.9,3.31,1.279,3.536,2.182,3.085,2.107,1.73,1.58-.752,3.687.075,3.987-.075,1.731-.226,4.213-1.806,3.988-2.107,3.536-.677,1.137-.181.894.256,1.279.3-.789-.8-1.619-.929L638.6,74.327,636.642,72.9l-1.956-3.01L632.5,64.32,631,58.9l-1.354-2.182-1.053-.9-3.762-.6Z" transform="translate(-579.449 -52.139)" fill="url(#linear-gradient)"/>
      <path id="Path_7" data-name="Path 7" d="M625.869,52.889a15,15,0,0,1,3.149,7.008,54.905,54.905,0,0,0,2.641,9.242,6,6,0,0,0,2.742,3.149,9.709,9.709,0,0,0-3.25,1.016c-1.422.813-1.219,2.133-8.938,2.032a5.251,5.251,0,0,0-2.559.544,19.577,19.577,0,0,1-2.925-5.115A26.782,26.782,0,0,1,615.6,64.6l.008-.029c.683-2.641.555-7.258-1.737-9.2A7.668,7.668,0,0,0,611.04,53.8a39.807,39.807,0,0,1,7.516-1.32c2.64,0,5.383-.711,7.313.406h0Z" transform="translate(-580.418 -49.641)" fill="url(#linear-gradient-2)"/>
      <path id="Path_8" data-name="Path 8" d="M1031.314,444.53l-1,.54-.159.4,1.25-.282.834-.135-.122-.343Z" transform="translate(-978.525 -422.253)" fill="#70312e"/>
      <path id="Path_9" data-name="Path 9" d="M981.71,428.285l.331-1.461.527-.626,1.042-.662.957-.356.576.577-.7.062-1.214.822-.49.81v.467l-.834.442Z" transform="translate(-932.513 -403.872)" fill="#70312e"/>
      <path id="Path_10" data-name="Path 10" d="M766.63,497.81l.875,1.175.2.1.751-.4-.125-.35-.575-.425-.7-.15Z" transform="translate(-728.211 -472.815)" fill="#70312e"/>
      <path id="Path_11" data-name="Path 11" d="M753.66,470.935l1.375-.125,1.426.451.85.95.1.55-.65.025-.175-.2-.6-.625-.8-.4h-.975l-.25.025Z" transform="translate(-715.891 -447.216)" fill="#70312e"/>
      <path id="Path_12" data-name="Path 12" d="M542.333,343.347c.228,0,.5-.044.659.108.109.1.127.268.227.371.144.15.294.188.385.339a1.072,1.072,0,0,1,.034.429,1.047,1.047,0,0,1-.579.9c-.169.092-.215.406-.407.455-.292.075-.347-.1-.529-.147s-.386.022-.538-.077-.247-.364-.34-.531c-.379-.673-.093-.431-.088-.779,0-.271-.19-.566-.012-.766.118-.132.372-.051.558-.107.027-.008.034-.136.058-.145a1.621,1.621,0,0,1,.573-.048h0Z" transform="translate(-513.934 -326.135)" fill="#d82b40"/>
      <path id="Path_13" data-name="Path 13" d="M416.56,456.782l.787-.074.443-.1.762-.714.787-.641.492-.025.369.148.1.394-.344.566-.517,1.108-.123.566.049.714-.714-.049-.59-.172-.517-.3-.492-.369-.27-.444Z" transform="translate(-395.684 -432.416)" fill="#d12c3f"/>
      <path id="Path_14" data-name="Path 14" d="M240.271,133.14l.416.1.146.245-.171.367-.343.416-.367.073-.294-.269.245-.44Z" transform="translate(-227.649 -126.467)" fill="#d52d27"/>
      <path id="Path_15" data-name="Path 15" d="M202.819,54.279l1.37-.856.906-.415,1.982-.636,1.664-.906.636-.856.073-.856-.049-.342.563.342h.808l.44-.2.171.2.294-.122.367.269.71.025.661-.294.367-.1.22-.1.538.147.587-.171.343-.343.465-.1.122-.269.318.123.465-.147.171-.342.294-.171.489-.343.049-.245-.318-.587-.783-.808-.636-.416-.44-.025.391.245-.269.465-.807.465-1.395.514-1.224.024-1.664-.171-.93-.294-.759-.563-.294-.612-.171.073-1.052,1.126-.636,1.15-.832.661-.4.487.351.589.478.21.275-.168.194-.286-.039-.584.347.271.362.163.059.285.018.363-.191.428-.693.425-3.074,1.211-.647.446-.171.954-.343.686Z" transform="translate(-192.399 -43.447)" fill="#d82b40"/>
      <path id="Path_16" data-name="Path 16" d="M303.15,54.75l-1.233,1.593-.057.324.308.152,1.2-1.856Z" transform="translate(-286.732 -52.006)" fill="#d52d27"/>
      <path id="Path_17" data-name="Path 17" d="M331.636,71.12l-.836,1.92.3.31.308.152.649-2.238Z" transform="translate(-314.222 -67.555)" fill="#d52d27"/>
      <path id="Path_18" data-name="Path 18" d="M375.375,79l-.115,2.138.331.182.339-.175,0-2.085Z" transform="translate(-356.454 -75.04)" fill="#d52d27"/>
      <path id="Path_19" data-name="Path 19" d="M416.41,77.651l.188,2.008.339.148.2-.141-.43-2.056Z" transform="translate(-395.541 -73.72)" fill="#d52d27"/>
      <path id="Path_20" data-name="Path 20" d="M442.18,70.424l.993,1.852.37.018.21-.29-1.121-1.724Z" transform="translate(-420.02 -66.757)" fill="#d52d27"/>
      <path id="Path_21" data-name="Path 21" d="M462.62,58.179l1.411,1.578.224.012.1-.256-1.438-1.623Z" transform="translate(-439.436 -54.988)" fill="#d52d27"/>
      <path id="Path_22" data-name="Path 22" d="M108.466,203.413l.791-.278.471-.471.235-.085.577.15.6.342.406.705.064,1.026-.342.876-.535.941-.791,1.175-.94,1.134-.492.449-.471.384-.791.535-.47.257-.791.149-.6-.107-.406-.192-.705-.534-.556-.685.556-.128.941.47.962-.043.941-.492.427-.6.278-.983.321-2.416Z" transform="translate(-98.521 -192.427)" fill="#d62c26"/>
      <path id="Path_23" data-name="Path 23" d="M125.878,219.885l.558-.493.771-.082.8.46.328,1.083L127.9,222.2l-1.969,2.675-1.3.936-.935.213-1.247-.2-.148-.3,1.165-.115.985-.263.9-1.115.115-1.362.246-1.3s.2-1.51.164-1.493Z" transform="translate(-116.17 -208.319)" fill="#d12c3f"/>
      <path id="Path_24" data-name="Path 24" d="M1106.94,679.451l1.286-.728,1.48-1.165.97-1.067.7-1.237.242-.364.267.728.485.485.388.655.51.558-.534,1.261-1.019,1.383-1.067,1.067-.631.63-.388.049-.267-.243-1.383-1.164Z" transform="translate(-1051.467 -641.068)" fill="#d12c3f"/>
      <path id="Path_25" data-name="Path 25" d="M876.51,773.17l.971.509,1.189.243,1.334.267,2.111.169.606-.024v2.79l-.17.388-.7.073-2.038-.1-1.771-.412-1.358-.315.024-1.165-.146-2.014Z" transform="translate(-832.584 -734.423)" fill="#d12c3f"/>
      <path id="Path_26" data-name="Path 26" d="M720.15,780.6l.558.121.849.024,1.334-.218,1.116-.437,1.091-.412.315-.219.461.994.461,1.771-.025.486-.339.194-.461.388-.873.267-1.771.291-1.674.048-.9.049.169-.8-.146-1.359Z" transform="translate(-684.06 -740.398)" fill="#d12c3f"/>
      <path id="Path_27" data-name="Path 27" d="M385.839,739.53l.245.049,1.079.785,1.323.573,1.765.425,1.242.147-.017.2-.572,1.865-.6,1.325-.458-.033-2.027-.638-1.177-.507-1.667-.7-.163-.294.686-1.914Z" transform="translate(-365.525 -702.469)" fill="#d12c3f"/>
      <path id="Path_28" data-name="Path 28" d="M697.922,209.432l.534.916.534.051.661-.28.28.026.1,1.042.738-.076.432-.1-.051.636-.381,1.017.559.051.661.025.941.28.255.178-.763.915.153.458.991.458.229.254-1.042.585.432.28.966.687-.1.28-.94.534-.254.33.28.381-.992.306-.687.025.305,2.06-.356.127-1.145-.509-.255-.2-.228,1.068-.381.178-.966-2.161-.559-2.339L697.617,215l-.076-1.4-.331-.305.127-1.17.28-1.475.127-1.322Z" transform="translate(-662.27 -198.839)" fill="#70312e"/>
      <path id="Path_29" data-name="Path 29" d="M652.713,67.632l.474-.034.455-.226.594-.113.474.068.677.169,1.285.338.541.1-.27.541-1.285.608-.1.237.812.744.575.947-.372.034h-1.353l.135.338.271.744-.338.372-.338-.034-.372-.744L654.1,70.71l-.422-.751-.493-.568-.256-.607-.62-1.077Z" transform="translate(-619.62 -63.889)" fill="#70312e"/>
      <path id="Path_30" data-name="Path 30" d="M839.52,57.309l.788.788.58.324,1-.046-1.228.371-.858.765-.255.464.834.533,1.135.092.533-.047.673-.347-.6.742-.208,1.715.185.394.672-.44.95-.348.533-.765.209.88.625.9.51.278-.208-1-.463-1.251-.371-1.089-.973-1.645-.811-1.3-1.622-.116Z" transform="translate(-797.448 -54.304)" fill="#70312e"/>
      <path id="Path_31" data-name="Path 31" d="M877.787,200.68l-.31.642-.244.133-1.176-.466-.532-.089.133,1.219-.044.267-1.508.022.6,1.064-.089.333-1.108.642-.177.289.865.621.554.4-.71.976.377.266.776.421-.621,1.065-.266.6H876.5l-.288,1.219.067.288,1.419-.51.089,1.042.177.111,1.2-.953,1.331.842.776.177-.288-.554-1.109-3.259-.665-2.195-.577-2.239-.465-1.663Z" transform="translate(-829.564 -190.623)" fill="#70312e"/>
      <path id="Path_32" data-name="Path 32" d="M704.45,66.436l1.665-1.67L707.29,63.1l.432-1.422.247-2.164h.31l1.731,2.474.927,1.113,3.339,2.6.618.556-.989.928-.814,1.285-.3,1.25-.185,3.587-.618-.742-2.35-3.216-2.659-1.979-1.546-.556Z" transform="translate(-669.147 -56.527)" fill="#8c3d30"/>
      <path id="Path_33" data-name="Path 33" d="M1098.57,251.554c1,.172,1.126,1.192,1.085,1.962a.949.949,0,0,1-.891.963,1.576,1.576,0,0,1-1.337-1.526,2.878,2.878,0,0,1,.045-1.039,1.028,1.028,0,0,1,1.1-.358Zm.464,2.432-.432.144-.36-.216-.408-.841.216-.6.456.072.457.408.144.264-.072.769h0Z" transform="translate(-1042.407 -238.924)" fill="#d82b40"/>
      <path id="Path_34" data-name="Path 34" d="M1056.479,210.881a1.324,1.324,0,0,1-1.2,1.269c-.286,0-.6-.907-.4-1.2.135-.2.751.067.828-.195.064-.215-.274-.554-.274-.732,0-.288-1.019-.124-.994-.565.019-.343-.26-.679-.09-.77.136-.073.358.066.555.167a3.257,3.257,0,0,1,1.583,2.028h0Z" transform="translate(-1001.451 -198.209)" fill="#d52d27"/>
      <path id="Path_35" data-name="Path 35" d="M806.322,344.3a6.689,6.689,0,0,0,2.693,3.056,11.966,11.966,0,0,0,3.494,1.019,10.415,10.415,0,0,0-1.71,2.038,14.289,14.289,0,0,0-.583,1.6l-2.766.328a10.722,10.722,0,0,0-2.039-1.528c-.8-.364-2.4-.983-2.4-.983a11.593,11.593,0,0,0,2.511-2.437,8.11,8.11,0,0,0,.8-3.093h0Z" transform="translate(-762.768 -327.045)" fill="#8c3d30"/>
      <path id="Path_36" data-name="Path 36" d="M831.12,379.3l-.185.4h0l-.125-.062-.12-.066-.117-.072-.113-.076-.108-.08-.1-.083-.1-.085-.1-.088-.092-.089-.089-.091-.085-.092-.081-.093-.077-.092-.073-.091-.069-.091-.065-.089-.061-.087-.058-.086-.054-.083-.05-.079-.046-.076-.042-.071-.039-.067-.034-.062-.031-.057-.026-.051-.022-.044-.02-.037-.015-.03-.01-.024-.006-.014,0-.007.4-.178v0l.006.012.009.019.013.027.016.034.021.041.025.046.028.052.032.057.035.062.039.067.043.07.046.074.05.076.053.079.057.082.06.082.064.083.066.084.07.084.074.084.076.083.08.082.083.081.086.078.089.076.092.073.095.069.1.066.1.062.1.058.106.052h0Zm0,0Zm2.552,1.058-.311-.312.134.375h-.017l-.019,0-.025,0-.033-.005-.038,0-.045-.006-.049-.007-.056-.009-.061-.01-.066-.011-.071-.014-.075-.014-.08-.016-.083-.017-.088-.02-.091-.021-.1-.023-.1-.024-.1-.027-.1-.028-.107-.031-.109-.033-.111-.035-.113-.037-.115-.039-.116-.041-.118-.044-.119-.047-.119-.049-.12-.051-.12-.055.185-.4.113.051.113.049.113.046.112.043.111.042.11.04.109.037.108.035.106.033.1.031.1.029.1.027.1.025.094.024.09.021.088.02.083.017.08.017.076.015.072.014.067.012.062.011.057.009.052.008.048.007.04.006.036.005.028,0,.023,0,.016,0h.012l.134.375h0Zm-1.148,1.389-.4-.186h0l.029-.057.031-.059.036-.059.038-.06.041-.061.043-.061.045-.062.048-.063.049-.062.049-.062.051-.063.052-.062.052-.061.052-.061.053-.059.052-.058.051-.057.049-.054.049-.053.046-.051.045-.048.043-.046.04-.041.037-.039.034-.035.03-.031.028-.028.023-.024.017-.018.014-.014.008-.008,0,0,.311.312,0,0-.008.008-.014.012-.017.018-.021.022-.026.026-.03.031-.032.034-.037.037-.039.041-.041.044-.044.047-.046.049-.047.051-.048.054-.049.054-.05.056-.05.057-.05.058-.05.059-.049.059-.048.058-.048.059-.045.059-.042.056-.041.056-.038.054-.035.052-.032.05-.028.047-.025.043-.019.04h0Zm0,0Zm-.752,1.982-.078-.433-.174.161v0l0-.012.005-.019.007-.026.009-.032.01-.038.012-.044.014-.048.014-.054.016-.057.017-.062.018-.065.02-.069.021-.07.021-.074.021-.075.023-.077.023-.077.025-.079.024-.079.024-.079.026-.079.024-.077.026-.077.025-.075.026-.073.025-.07.025-.068.024-.065.025-.062.024-.058.024-.055.4.186-.02.044-.021.05-.021.055-.023.06-.023.063-.023.067-.024.069-.025.071-.024.073-.025.076-.024.076-.025.077-.024.077-.023.077-.023.077-.023.075-.022.074-.021.072-.02.071-.02.067-.018.065-.017.06-.016.057-.015.052-.013.048-.012.042-.01.038-.009.032-.007.025,0,.019,0,.012v0l-.174.161h0Zm-.977.1.1-.389.8-.145.078.433-.8.145-.176-.044Zm-2.347-1.675.176-.4h0l.067.031.071.038.075.042.08.048.083.052.088.057.092.061.095.064.1.067.1.069.1.072.1.073.1.075.1.074.1.075.1.075.1.074.1.073.094.071.089.069.087.067.081.063.076.059.072.056.064.05.058.045.051.04.042.034.034.027.025.02.016.012.005,0-.275.345-.005,0-.015-.013-.025-.02-.034-.027-.042-.033-.049-.04-.058-.045-.064-.05-.07-.054-.076-.059-.081-.063-.085-.065-.089-.069-.092-.07-.1-.072-.1-.074-.1-.074-.1-.074-.1-.074-.1-.073-.1-.072-.1-.07-.1-.068-.094-.065-.091-.062-.087-.057-.083-.053-.078-.049-.072-.043-.065-.037-.057-.029-.047-.023h0Zm.176-.4Zm-2-.73.252.362-.042-.385,0,0,.01,0,.017.007.023.01.029.012.034.014.039.016.044.018.048.02.053.022.056.023.06.025.063.026.065.027.068.028.07.029.071.03.073.031.074.031.074.031.075.031.075.032.074.032.073.031.073.031.072.03.069.03.067.029.066.028.062.028.06.026.055.024-.176.4-.055-.024-.058-.026-.062-.026-.064-.028-.067-.029-.069-.029-.07-.03-.072-.031-.074-.031-.074-.031-.074-.031-.075-.031-.074-.031-.074-.031-.073-.03-.071-.03-.07-.029-.068-.028-.065-.027-.062-.026-.06-.025-.056-.023-.053-.022-.048-.02-.044-.018-.039-.016-.034-.014-.029-.012-.023-.009-.016-.007-.011,0,0,0-.042-.385h0Zm1.729-1.614.373.237h0l-.054.08-.057.08-.061.079-.064.079-.067.078-.07.077-.071.077-.073.076-.075.075-.076.074-.076.072-.077.07-.078.069-.076.067-.075.065-.075.063-.074.06-.071.059-.069.055-.066.052-.064.049-.06.046-.056.043-.052.038-.047.035-.042.031-.037.027-.031.022-.025.018-.018.013-.013.01,0,0-.252-.362,0,0,.009-.006.018-.013.023-.017.03-.022.035-.026.041-.03.045-.034.05-.038.054-.041.058-.044.06-.048.064-.051.066-.053.069-.055.07-.059.071-.06.073-.063.073-.064.073-.066.073-.067.073-.069.071-.069.07-.07.068-.07.066-.07.063-.071.06-.071.057-.069.053-.069.048-.068.044-.066h0Zm0,0Zm.959-2.1-.4.178.422-.077v.038l0,.028,0,.033,0,.041,0,.045,0,.051-.006.056-.007.061-.009.066-.01.07-.01.073-.013.077-.013.08-.015.082-.016.085-.019.088-.02.089-.021.091-.023.092-.025.093-.027.093-.03.093-.032.093-.033.092-.036.091-.037.09-.042.089-.044.087-.047.084-.049.083-.373-.237.041-.066.039-.071.036-.073.035-.075.034-.078.031-.081.03-.082.027-.084.026-.084.025-.085.023-.084.021-.085.02-.084.018-.084.017-.081.016-.08.014-.079.013-.075.011-.072.01-.07.009-.065.008-.062.007-.058.006-.053.005-.048,0-.043,0-.036,0-.031,0-.024,0-.018v-.012h0l.422-.077h0Z" transform="translate(-785.195 -358.401)" fill="#dcac63"/>
      <path id="Path_37" data-name="Path 37" d="M831.529,379.08a4.647,4.647,0,0,0,1.92,2.1,8.729,8.729,0,0,0,2.489.7,8.172,8.172,0,0,0-1.193,1.452,17.028,17.028,0,0,0-.59,1.859l-.8.145a22.274,22.274,0,0,0-2.4-1.7c-.571-.25-1.789-.751-1.789-.751a8.166,8.166,0,0,0,1.789-1.677,5.426,5.426,0,0,0,.571-2.128h0Z" transform="translate(-787.617 -360.082)" fill="#70312e"/>
      <path id="Path_38" data-name="Path 38" d="M855.947,406.29l.1-.276.051.245-.082.076-.077.072-.073.068-.068.066-.064.063-.06.061-.056.058-.052.056-.048.054-.045.053-.042.052-.039.051-.037.05-.034.05-.032.051-.03.051-.028.053-.026.054-.025.055-.023.058-.023.06-.022.063-.021.067-.021.069-.021.074-.02.078-.02.082-.02.088-.02.092-.02.1-.02.1-.021.109-.288-.055.021-.11.022-.1.021-.1.02-.1.02-.09.021-.087.021-.082.021-.079.022-.076.024-.072.024-.071.026-.068.028-.066.029-.064.031-.063.033-.061.035-.06.037-.059.04-.058.041-.058.045-.058.047-.058.05-.058.053-.059.056-.06.059-.062.062-.063.066-.065.07-.067.074-.071.078-.073.082-.076.051.245h0Zm.1-.276.228.081-.177.164-.051-.245Zm-2.465-1.423-.277-.093.257-.04.071.094.071.089.072.084.072.081.072.076.073.072.073.069.074.065.074.061.075.059.075.055.076.052.076.049.076.048.077.045.077.043.078.04.079.039.079.037.079.036.08.034.081.033.081.032.081.031.082.03.083.03.082.03.084.029.083.029.084.029.085.029.085.03-.1.276-.084-.03-.084-.029-.084-.029-.085-.029-.084-.029-.085-.03-.084-.031-.084-.031-.085-.032-.084-.033-.084-.034-.084-.036-.084-.038-.084-.04-.083-.041-.084-.044-.084-.046-.083-.048-.083-.051-.082-.054-.082-.057-.082-.061-.081-.063-.081-.067-.08-.071-.08-.074-.079-.078-.079-.082-.078-.086-.076-.091-.077-.1-.075-.1.257-.04h0Zm-.277-.093.09-.268.167.228-.257.04Zm-.226,1.156-.244-.161h0l.026-.039.025-.039.024-.039.023-.038.022-.038.021-.038.021-.037.02-.038.02-.036.018-.036.018-.035.017-.036.016-.035.016-.034.015-.033.014-.033.013-.032.013-.031.013-.031.011-.03.012-.029.011-.028.011-.027.009-.026.01-.026.009-.025.008-.024.008-.023.007-.022.007-.02.007-.02.006-.019.277.093-.006.019-.007.02-.007.022-.008.023-.008.024-.008.025-.01.026-.009.027-.011.029-.01.029-.012.03-.012.031-.013.032-.013.032-.014.034-.015.035-.016.035-.016.037-.016.036-.018.037-.019.038-.019.039-.02.039-.021.04-.022.04-.022.041-.024.041-.023.041-.025.041-.026.041-.026.042-.028.042h0Zm-.92.759-.1.275-.049-.245.019-.017.019-.018.021-.02.021-.021.023-.022.024-.023.024-.024.025-.025.026-.027.026-.027.027-.028.028-.029.028-.03.028-.031.028-.031.029-.032.029-.032.029-.033.029-.033.028-.034.029-.034.029-.034.028-.035.028-.035.028-.035.028-.035.026-.035.026-.035.026-.035.025-.035.024-.035.023-.034.244.161-.026.038-.026.038-.027.037-.027.038-.028.038-.029.037-.029.037-.029.037-.03.037-.03.036-.03.036-.03.035-.031.036-.03.035-.03.034-.03.034-.03.033-.03.032-.029.032-.029.031-.029.03-.028.029-.028.028-.027.027-.026.027-.026.026-.025.024-.024.023-.022.022-.022.021-.021.02-.019.018-.049-.245h0Zm-.1.275-.225-.083.176-.162.049.245Zm2.563,1.649.288.055-.255.068-.092-.107-.089-.1-.086-.1-.082-.09-.08-.085-.078-.081-.075-.075-.073-.071-.071-.067-.069-.063-.069-.059-.068-.056-.068-.054-.066-.05-.067-.048-.068-.045-.068-.044-.069-.041-.07-.04-.073-.039-.074-.038-.077-.037-.08-.037-.083-.037-.085-.036-.09-.037-.094-.038-.1-.039-.1-.039-.107-.041-.112-.042-.117-.043.1-.275.118.044.112.042.108.041.1.04.1.039.1.039.092.038.09.039.086.038.084.039.082.04.08.041.078.042.077.044.075.046.075.047.073.05.073.052.073.055.072.057.073.061.073.064.074.067.075.071.076.075.078.079.08.083.082.088.085.093.088.1.091.1.095.109-.255.068h0Zm.288.055-.058.3-.2-.23Z" transform="translate(-809.141 -383.972)" fill="#dcac63"/>
      <path id="Path_39" data-name="Path 39" d="M860,414.31a2.948,2.948,0,0,1,1.233-2.212,4.485,4.485,0,0,1-2.555-1.608,4.21,4.21,0,0,1-.485,1.028,6.2,6.2,0,0,1-.849.977A4.818,4.818,0,0,1,860,414.31h0Z" transform="translate(-814.375 -389.918)" fill="url(#linear-gradient-3)"/>
      <path id="Path_40" data-name="Path 40" d="M313.736,187.871c-.148,1.232-1.6,1.014-2.353,1.628-.528.431-.518.968-.9,1.628-.545-1.909,2.258-2.019,2.986-3.257h.272Z" transform="translate(-294.852 -178.455)" fill="#e5be6f"/>
      <path id="Path_41" data-name="Path 41" d="M323.013,209.277c.409.145.6-.388.271-.452C323.2,208.985,322.917,208.941,323.013,209.277Zm1.628-1.537c-.417.7-.99,2.025-2.262,2.17C322.189,208.6,324.1,208.617,324.641,207.74Z" transform="translate(-306.21 -197.329)" fill="#e5be6f"/>
      <path id="Path_42" data-name="Path 42" d="M326.25,225.79h.272a2.2,2.2,0,0,1-2.081,1.628c.57-.575,1.656-.635,1.81-1.628Z" transform="translate(-308.18 -214.474)" fill="#e5be6f"/>
      <path id="Path_43" data-name="Path 43" d="M743.648,108.478l.416.147-.354.092-.07-.063-.07-.068-.071-.072-.07-.075-.071-.08-.072-.082-.072-.085-.073-.088-.073-.091-.075-.094-.076-.1-.076-.1-.077-.1-.079-.1-.079-.1-.08-.1-.081-.106-.082-.106-.083-.107-.084-.109-.085-.107-.086-.108-.088-.108-.088-.107-.09-.107-.09-.106-.092-.1-.093-.1-.094-.1-.094-.1-.1-.1-.1-.1.307-.316.1.1.1.1.1.105.1.106.1.108.1.108.094.109.092.11.091.11.089.11.088.11.087.11.086.109.084.109.083.108.081.106.08.1.079.1.077.1.077.1.075.1.074.094.073.091.072.088.07.085.069.082.067.077.066.073.065.069.062.064.061.059.06.055-.354.091h0Zm.416.147-.109.307-.245-.216.354-.091Zm1.222-4.278.3-.326-.028.347-.094.068-.088.074-.083.081-.077.087-.072.094-.067.1-.063.106-.059.113-.055.117-.051.124-.048.128-.044.133-.041.137-.039.141-.036.144-.034.147-.032.15-.03.152-.03.154-.029.156-.028.156-.028.157-.029.158-.029.157-.03.157-.032.157-.034.156-.036.154-.039.152-.042.151-.045.148-.049.145-.416-.147.045-.133.042-.136.039-.14.037-.144.034-.147.032-.149.031-.151.03-.154.029-.156.029-.156.028-.157.029-.158.029-.157.03-.157.032-.157.034-.155.036-.154.038-.153.041-.151.044-.149.049-.145.053-.143.058-.139.063-.137.069-.131.075-.127.083-.123.089-.116.1-.111.105-.1.114-.1.123-.087-.028.347h0Zm.3-.326.21.191-.237.156.028-.347Zm-3.06-2.1.323-.3h0l.051.054.059.06.066.064.073.069.079.074.083.077.089.081.093.083.1.086.1.088.1.09.1.09.107.092.107.092.108.093.108.092.107.091.106.09.1.089.1.087.1.085.1.082.094.079.089.075.085.072.08.068.075.064.068.058.062.054.055.048.048.042.04.036-.3.326-.036-.033-.045-.04-.053-.046-.06-.052-.068-.058-.073-.062-.08-.068-.085-.072-.089-.076-.094-.079-.1-.082-.1-.085-.1-.087-.1-.089-.107-.09-.108-.092-.108-.092-.108-.092-.109-.094-.106-.092-.106-.092-.1-.09-.1-.089-.1-.088-.095-.085-.09-.082-.087-.079-.081-.076-.076-.073-.071-.069-.064-.065-.058-.061h0Zm.323-.3Zm-1.7-1.813-.419-.135.4-.042.034.059.037.059.039.06.042.061.044.062.047.062.047.063.05.064.051.064.054.065.054.065.055.065.057.066.058.065.059.066.059.065.06.065.06.065.06.064.061.065.06.063.061.064.06.062.06.062.059.062.059.061.058.06.057.059.056.059.054.057.054.057.052.056-.323.3-.051-.054-.052-.055-.054-.057-.055-.057-.057-.059-.058-.06-.059-.061-.059-.062-.06-.062-.062-.064-.061-.064-.062-.065-.061-.065-.062-.066-.062-.067-.061-.067-.061-.067-.06-.067-.06-.068-.059-.068-.059-.069-.058-.068-.055-.068-.055-.069-.053-.068-.052-.069-.05-.069-.049-.068-.046-.068-.045-.068-.042-.068-.041-.067.4-.042h0Zm-2.156,4.006-.242.369-.032-.343.078-.08.079-.089.081-.1.08-.108.081-.115.08-.122.079-.129.08-.134.078-.14.078-.144.076-.148.076-.151.074-.154.073-.155.071-.157.069-.157.067-.157.065-.157.063-.155.061-.153.059-.151.056-.147.054-.143.052-.14.048-.135.046-.128.043-.123.039-.115.037-.108.033-.1.03-.091.027-.081.419.134-.026.083-.03.092-.034.1-.037.109-.041.117-.043.124-.046.131-.05.136-.052.141-.055.147-.058.151-.059.153-.063.157-.065.159-.067.16-.069.161-.071.162-.073.161-.075.161-.077.159-.078.157-.08.155-.081.151-.083.147-.083.143-.086.138-.087.132-.088.127-.09.119-.091.113-.093.1-.1.1-.032-.344h0Zm-.242.369-.232-.151.2-.192Zm2.661,1.142-.307.316h0l-.04-.037-.048-.041-.056-.045-.062-.047-.068-.049-.073-.052-.078-.053-.082-.054-.084-.055-.088-.056-.091-.056-.092-.056-.094-.056-.095-.056-.095-.056-.1-.055-.094-.055-.093-.053-.092-.053-.089-.051-.088-.048-.084-.047-.08-.045-.076-.043-.073-.04-.067-.038-.062-.035-.056-.032-.051-.029-.043-.025-.037-.022-.032-.02.242-.369.02.013.032.019.04.023.047.027.055.031.061.034.067.038.071.04.076.043.082.045.084.048.087.05.091.051.092.053.095.055.1.055.1.057.1.056.1.058.1.058.1.058.093.058.091.057.089.057.085.057.083.056.078.055.075.055.07.054.065.052.06.052.056.051h0Zm0,0Z" transform="translate(-701.51 -94.637)" fill="#dcac63"/>
      <path id="Path_44" data-name="Path 44" d="M747.947,107.542c1.069,1.039,1.913,2.468,2.6,3.071.52-1.462.379-3.58,1.579-4.368-.361-.329-2.211-1.835-2.75-2.415a13.612,13.612,0,0,1-1.745-2.031c-.263.821-1.143,3.37-2.067,4.258a19.644,19.644,0,0,1,2.387,1.484h0Z" transform="translate(-708.197 -96.698)" fill="#70312e"/>
      <path id="Path_45" data-name="Path 45" d="M770.091,135.665l.345.129-.292.077-.041-.036-.041-.039-.042-.04-.041-.042-.041-.045-.042-.046-.042-.047-.042-.049-.043-.051-.042-.051-.044-.054-.044-.054-.044-.055-.045-.056-.045-.057-.046-.057-.047-.057-.047-.059-.047-.058-.048-.059-.049-.059-.048-.059-.05-.058-.051-.059-.05-.058-.051-.058-.052-.057-.053-.055-.054-.055-.053-.054-.054-.053-.055-.052.252-.271.059.056.059.057.058.058.056.058.055.06.055.06.054.06.054.061.052.06.051.061.051.061.049.061.049.06.049.06.047.059.047.059.046.057.045.056.045.056.044.054.043.054.042.051.041.05.04.048.04.046.039.044.038.042.037.039.036.037.035.034.034.031.033.029-.292.077h0Zm.345.129-.092.246-.2-.169Zm.609-2.315.243-.278-.023.295-.051.035-.046.038-.045.041-.041.044-.039.048-.036.052-.034.055-.032.059-.03.062-.028.065-.026.069-.025.071-.023.073-.022.076-.02.078-.019.079-.018.082-.018.082-.016.084-.017.085-.016.085-.016.086-.016.087-.017.087-.018.087-.018.087-.02.086-.021.086-.023.085-.025.084-.027.083-.029.082-.345-.129.025-.07.023-.073.022-.075.02-.078.02-.079.018-.081.018-.082.017-.084.017-.085.016-.085.016-.086.016-.087.017-.087.018-.087.018-.087.02-.086.02-.086.023-.085.024-.084.026-.083.029-.082.031-.08.034-.079.037-.078.041-.075.046-.073.049-.07.054-.067.059-.064.063-.06.069-.055.074-.051-.023.295h0Zm.243-.278.187.163-.21.132.023-.3Zm-1.827-1.053.265-.258h0l.028.028.033.032.037.035.041.037.045.04.047.042.051.044.053.045.055.047.057.048.059.049.059.049.06.05.062.051.062.05.061.05.062.05.061.05.06.049.058.047.058.046.055.045.054.043.051.041.049.04.045.037.042.035.04.032.035.03.033.027.028.023.024.021-.243.278-.019-.017L771,133.44l-.029-.025-.035-.028-.038-.032-.042-.035-.046-.037-.048-.039-.051-.041-.054-.043-.055-.045-.058-.047-.06-.048-.06-.049-.061-.049-.062-.05-.063-.051-.062-.051-.062-.051-.062-.05-.061-.051-.059-.05-.058-.048-.056-.048-.055-.047-.052-.046-.05-.044-.047-.042-.044-.041-.041-.038-.038-.036-.034-.034h0Zm.265-.258Zm-.956-.924-.35-.117.333-.036.018.03.021.031.022.032.023.033.025.033.026.034.027.034.027.034.029.035.03.035.03.035.032.035.031.036.033.035.033.036.034.036.034.035.034.035.034.035.035.036.034.034.035.035.034.034.034.034.034.034.034.034.033.033.033.033.033.033.031.031.031.032.03.031-.265.258-.029-.03-.03-.03-.031-.031-.031-.031-.033-.033-.033-.033-.034-.034-.034-.034-.034-.034-.035-.035-.035-.035-.036-.036-.035-.035-.036-.037-.036-.037-.035-.037-.035-.037-.035-.037-.034-.038-.034-.037-.034-.038-.033-.038-.032-.038-.032-.038-.031-.038-.03-.038-.03-.038-.028-.039-.028-.038-.026-.038-.025-.039-.024-.039.333-.036h0Zm-.35-.117.127-.379.206.343Zm-.91,2.231-.2.314-.028-.293.042-.041.044-.047.044-.052.045-.057.045-.061.044-.065.045-.069.045-.072.045-.076.043-.078.043-.08.043-.082.042-.083.041-.084.04-.086.04-.085.038-.086.037-.085.037-.085.035-.083.034-.082.032-.081.031-.078.029-.076.028-.073.026-.07.025-.067.022-.062.021-.059.019-.054.017-.049.015-.044.35.117-.015.046-.018.051-.019.056-.021.06-.024.065-.025.068-.027.072-.028.076-.03.078-.031.081-.034.082-.035.085-.036.086-.037.088-.039.088-.04.089-.041.089-.043.089-.043.089-.045.088-.045.087-.046.086-.048.084-.048.081-.049.08-.049.077-.052.074-.051.071-.053.067-.054.064-.055.06-.057.055-.028-.293h0Zm-.2.314-.206-.129.178-.164.028.293Zm1.589.52-.252.271h0l-.021-.019-.026-.022-.031-.023-.034-.026-.038-.026-.041-.028-.044-.028-.046-.029-.048-.03-.05-.03-.052-.031-.052-.031-.054-.031-.054-.031-.054-.03-.054-.031-.054-.029-.053-.03-.053-.028-.051-.028-.05-.027-.048-.026-.046-.025-.044-.024-.041-.022-.039-.021-.035-.019-.032-.018-.029-.015-.026-.015-.022-.013-.02-.011.2-.314.011.007.017.01.022.012.027.015.031.017.035.019.038.021.041.022.043.023.046.025.049.026.05.027.052.028.053.029.055.03.055.031.056.031.055.032.055.031.055.032.055.032.053.032.053.032.051.032.05.032.048.031.046.031.044.031.041.03.038.03.036.029.034.03h0Zm-.252.271Z" transform="translate(-728.667 -123.931)" fill="#dcac63"/>
      <path id="Path_46" data-name="Path 46" d="M774.525,142.362c.612.568,1.095,1.349,1.485,1.679.3-.8.217-1.958.9-2.389-.206-.18-1.264-1-1.573-1.32a7.6,7.6,0,0,1-1-1.111,7.138,7.138,0,0,1-1.182,2.33,11.187,11.187,0,0,1,1.365.812h0Z" transform="translate(-734.414 -132.243)" fill="url(#linear-gradient-4)"/>
      <path id="Path_47" data-name="Path 47" d="M470.54,396.038l.271.813.418.468.344.345.344.69.2.714.271.985.59.3.517.172.024-.714.738.049.123-.172v-.444l-.074-.2.492.1.2-.025.172-.246v-.542l.32.049.344-.221.172-.345-1.5-.542-.714-.591-.812-1.133-.492-1.256-.861.715Z" transform="translate(-446.959 -374.53)" fill="#d12c3f"/>
      <path id="Path_48" data-name="Path 48" d="M190,246.11l.543.174.2.076-.076.282-.173.5-.358.565-.315.239-.066-.1.076-1.292Z" transform="translate(-180.24 -233.776)" fill="#d62c26"/>
      <path id="Path_49" data-name="Path 49" d="M539.03,344.124c.295.023.435-.108.452-.362-.07-.021-.1-.076-.09-.181h-.453a.771.771,0,0,0,.091.543h0Zm-.362-.272C538.579,342.621,537.595,344.33,538.668,343.852Zm.814-.814v.362a.445.445,0,0,0,.543,0v-.362A.639.639,0,0,0,539.482,343.038Zm-1.628.272q.482.031.451-.453A.32.32,0,1,0,537.854,343.31Zm.814-.091c.616.142.846-.3.633-.724C538.708,342.121,538.232,342.812,538.667,343.219Zm.905-.633c.14.109.352.289.543.09.042-.284-.113-.37-.272-.452C539.816,342.409,539.6,342.4,539.572,342.586Zm-1.719-.09h.362a.444.444,0,0,0,0-.543h-.362A.631.631,0,0,0,537.854,342.5Zm1.356-.272h.453c.037-.309-.028-.515-.362-.452a.591.591,0,0,0-.091.452Zm-.271-.181c.064-.334-.143-.4-.452-.362C538.371,342.078,538.714,342.256,538.938,342.043Zm.724-.452a1.808,1.808,0,0,0,.633.724c.14,1.118-.386,1.45-.995,1.99-.594-.055-.485-.329-1.177-.181a2.46,2.46,0,0,0-.634-1c.287-.4.016-.822.181-1.266.849-.252.951-.478,1.99-.272h0Z" transform="translate(-510.554 -324.395)" fill="#dcac63"/>
      <path id="Path_50" data-name="Path 50" d="M50.042,58.612c.26.123.854-.077,1.358,0a1.392,1.392,0,0,0-.09-.994c-.682-.429-1.488-.014-1.267.994Zm3.981-2.985c.783-.138,1.169-1.246,1.267-2.171.332-3.139-1.214-7.733.272-10.4a9.4,9.4,0,0,1-4.887-.18c.506,4.862,3.075,7.661,3.348,12.755h0ZM28.79,15.124a1.142,1.142,0,0,0,.211.095c-.15.658-.381,1.327-.565,1.995a1.469,1.469,0,0,0-.286-.368c.18-.514.478-1.191.64-1.722h0Zm1.588.448.315.036s-.045,1.38-.077,1.961a.26.26,0,0,1-.319-.044c.041-.8.081-1.954.081-1.954Zm.571.061s-.037,1.407-.074,1.989a1.1,1.1,0,0,0,1.443-.169c-.074-.492-.23-1.807-.23-1.807l-1.14-.012h0Zm2.753-.34.849,1.516s.122.1.218.024a.257.257,0,0,0,.1-.231l-.922-1.443-.243.133h0Zm1.177-.74L36.164,16l-.133.194-1.274-1.5.122-.133h0Zm.327-.594s1.4,1.431,1.456,1.589-.28.473-.352.376-1.3-1.528-1.3-1.528l.194-.436ZM49.921,36.588a1.338,1.338,0,0,1,.995.073,1.727,1.727,0,0,1,.631.655l-.184.048-.568.194-.812-.889-.062-.082h0Zm-.388-.626a2.355,2.355,0,0,1,1.5.115,3.1,3.1,0,0,1,1.02.921l-.34.172a1.614,1.614,0,0,0-.841-.825,1.7,1.7,0,0,0-1.181-.1l-.161-.288Zm-.315-.611a3.4,3.4,0,0,1,2.038.146,4.083,4.083,0,0,1,1.384,1.165l-.462.218a2.1,2.1,0,0,0-1.14-1.043,2.466,2.466,0,0,0-1.6-.122l-.219-.364h0Zm4.353-18.169a2.634,2.634,0,0,1,2.443-1.447c.176.277.289,1.239.531,1.45a2.826,2.826,0,0,1-2.974,0ZM56.1,23.423c.242.06,2.624-.369,3.315,1.013a.991.991,0,0,1-.351,1.249c-1.231.534-2.409-1.278-2.964-2.263h0Zm-.091,4.161c.489-.971,2.055-2.066,3.439-1.266-.037.428.161.622.09,1.085-.632,1.1-2.446,1.047-3.529.181h0Zm-1.119,1.145a6.689,6.689,0,0,0,2.693,3.056A11.963,11.963,0,0,0,61.082,32.8a10.416,10.416,0,0,0-1.71,2.038,14.4,14.4,0,0,0-.583,1.6l-.9.107-.01.039-.8.145-.1-.077-.958.114a10.747,10.747,0,0,0-2.039-1.528c-.8-.364-2.4-.983-2.4-.983a11.583,11.583,0,0,0,2.511-2.437,8.11,8.11,0,0,0,.8-3.093h0Zm-8.045-7.411c1.755-1.6,3.612-3.56,3.349-6.874.6.215.789.979,1.176,1.537A15.012,15.012,0,0,0,53.245,18.2a31.037,31.037,0,0,0,3.649,2.869c-1.815,1.113-2.513,3.816-2.263,6.694a21.91,21.91,0,0,0-4.08-4.809,8.117,8.117,0,0,0-3.7-1.638h0Zm1.563,37.113c.45,0,1.024.36,1.448.09-.167-.316-.046-.919-.362-1.085-.788-.094-.939.448-1.085,1ZM57.1,57.8c.49-.008.753.213,1.267.181A.654.654,0,1,0,57.1,57.8Zm-10.134-.724c-.136.619.7,1.047,1.267,1.266C48.714,57.428,47.582,56.3,46.965,57.074Zm8.506.453c.545-.033.811.213,1.357.18a1.264,1.264,0,0,0-.362-1.085C55.773,56.562,55.5,56.922,55.471,57.527Zm-24.432-.272c.511-.028.8.16,1.357.09C33.064,55.807,30.663,55.5,31.039,57.255ZM54.294,55.9a1.421,1.421,0,0,0,0,1.357c.324.039.484.241.906.181.052-.866.016-1.645-.906-1.538ZM29.41,56.8c.434.108.808.278,1.267.361C31.664,55.461,28.8,54.609,29.41,56.8Zm-1.719-1.357a1.9,1.9,0,0,0,1.177,1C29.928,55.364,28.042,53.839,27.691,55.446ZM71.035,54.36c-.012.4.223.561.271.905a1.907,1.907,0,0,0,1.538-.634C72.435,54.271,71.489,53.624,71.035,54.36Zm-23.347.724a11.928,11.928,0,0,1-.633,1.538c.731-.233,1.249.407,1.538.905.1-.26.388-.336.724-.362.3.089.451.333.633.543a.958.958,0,0,1,1.719.814c2.337.339,2.394-2.817,1.809-4.523-1.271,1.02-3.467,1.117-5.791,1.085h0Zm6.877.633c.686-.023.709.618,1,.995.474-.721,1.444-.15,1.538.543.483-.852,1.611-.249,1.539.724,1.939.007,2.647-1.692,2.623-3.348-2.164.34-4.032-.36-5.791-.723a2.721,2.721,0,0,1-.905,1.809ZM47.96,54.089c.335-.064.389.155.724.091a1.01,1.01,0,0,0-.452-.724c-.075.226-.248.355-.272.632Zm5.339-.723c-.909.924-2.835,1.108-4.434,1.086-.4-.007-1-.437-1.177.271a10.264,10.264,0,0,0,2.353.091c1.328-.1,3.071-.406,3.438-1.357-.02-.071-.076-.1-.181-.091h0Zm-4.162.814h1.085a1.781,1.781,0,0,0-.724-.905c-.045.377-.316.528-.362.905Zm6.424-.905v.272a13.773,13.773,0,0,0,3.71.905c.608.043,1.756.243,2.081-.363a20.4,20.4,0,0,1-5.791-.814h0Zm-4.887.814c.4.064.51-.153.9-.09.109-.3-.39-.668-.724-.814.022.384-.237.487-.181.9Zm21.718-.9a1.805,1.805,0,0,0,.543,1.357,2.577,2.577,0,0,0,1.177-1.266c-.381-.239-1.361-.644-1.719-.091Zm-11.673.633c.314.073.348-.134.633-.09a.922.922,0,0,0-.272-.814c-.013.41-.37.474-.362.9h0Zm-1.448-.09c.219.173.727.057,1.086.09a2.125,2.125,0,0,0-.543-.994c-.188.294-.376.589-.543.9Zm-7.329.09a6.3,6.3,0,0,0,.724-.271c-.088-.364-.4-.509-.633-.724.052.413-.16.563-.09.994h0Zm6.153-.18c.4-.071.543.121.9.09-.112-.37-.134-.831-.453-.995C58.4,53.04,58.125,53.216,58.094,53.637Zm-1.177-.272a2.057,2.057,0,0,1,.815.181c-.072-.381-.025-.88-.362-1-.052.37-.484.361-.453.814ZM55.923,53c.156.033.559.274.633.09-.208-.153-.119-.6-.362-.725-.041.261-.32.284-.271.634Zm-2.986.271c.458.065.464-.757.181-.905A4.969,4.969,0,0,0,52.937,53.275Zm-17.555-.452c.263-.016.638.317.814.09-.209-.122.017-.68-.271-.723-.126.267-.418.366-.543.633Zm-6.7,1.718c.543,0,.494.591.814.814.11-.252.555-.168.9-.181.385.158.45.636.724.9.727-.728,1.911.036,1.538,1.266,2.155-.048,2.876-1.527,3.258-3.347-2.1-.309-3.462-1.365-5.249-1.99a5.964,5.964,0,0,1-1.99,2.533h0Zm45.606-1.357c.175-.428.537-.669.634-1.176C73.625,51.186,73.152,52.844,74.292,53.185Zm-40-.724c.216.146.58.144.815.271-.049-.373-.051-.793-.362-.9C34.663,52.1,34.308,52.112,34.3,52.461Zm-1.177-.453a1.884,1.884,0,0,0,.815.272c-.029-.364.047-.831-.272-.9C33.537,51.643,33.244,51.742,33.119,52.008Zm-2.262-.271a14.123,14.123,0,0,0,3.981,1.718c.392.115,1.072.519,1.358,0-1.7-.74-3.593-1.293-5.248-2.08.021.171-.1.2-.091.362Zm16.831.9c.119.274.009.776.181,1a1.609,1.609,0,0,1,.362-.724c.344.229.379.767.724,1,.243-.3.2-.888.634-1a4.847,4.847,0,0,0,.9.9,2.1,2.1,0,0,1,.362-1.176,4.431,4.431,0,0,0,.815.814c.164-.318-.006-.97.272-1.176.309.2.376.649.814.724-.076-.8.445-1.12.09-1.719a12.664,12.664,0,0,1-5.158,1.357h0Zm8.053.091c.175-.337.272-.753.634-.9.148.364.153.871.452,1.085a4.662,4.662,0,0,1,.815-.995c.048.435.192.772.271,1.177.428-.146.364-.781.815-.9a4.145,4.145,0,0,1,.362,1.085c.527-.078.36-.846.905-.905a3.628,3.628,0,0,0,.543,1.086c.334-.261.289-.89.634-1.086-.055.032.38.462.18,0-.186-.59-.886-.173-1.267-.18a20.442,20.442,0,0,1-4.524-1,5.714,5.714,0,0,0,.18,1.538ZM32.033,51.556c.24.153.575.21.814.362v-.9c-.428.025-.556.35-.814.543Zm15.473.272c.148.844,1.385.48,2.082.362,1.138-.193,2.729-.768,3.167-1.448-1.324.393-3.072,1.536-5.249,1.085h0Zm-16.288-.633c.265-.024.278.2.543.181-.039-.293.119-.783-.181-.815C31.606,50.918,31.194,50.838,31.218,51.195Zm37.824.272c.407-.166.828-.318,1-.724-.464-.018-.726-.239-1.176-.271,0,.391.209.574.18,1h0ZM55.47,50.833a14.96,14.96,0,0,0,4.8,1.085c.314-.014.932.036,1.085-.362-2.208-.114-4.377-.267-5.881-1.085v.362h0Zm14.93-.181c.1-.326.732-.488.543-.814a3.378,3.378,0,0,1-1-.18A1.294,1.294,0,0,0,70.4,50.652Zm-39.182-.091c.387-.035.311-.534.724-.542a3.734,3.734,0,0,0,.091,1.085c.41-.074.735-.709,1-.633,0,.418-.051.9.181,1.085.246-.267.418-.606.814-.723a5.414,5.414,0,0,1,.09,1.085c.356.167.549-.509.906-.633a5.489,5.489,0,0,1,.271,1.085c.48-.062.4-.685.9-.723.134.288.035.809.271.995a8.613,8.613,0,0,0,.453-1.357,13.887,13.887,0,0,1-5.429-1.809,6.908,6.908,0,0,1-.272,1.085h0Zm40.177-.9a3.685,3.685,0,0,0,.453-.814c-.371.094-.74-.279-1,0C71.113,49.035,71.086,49.514,71.4,49.658Zm-35.653.814a7.424,7.424,0,0,1-3.71-1.719.248.248,0,0,0-.362,0v.272a7.508,7.508,0,0,0,5.52,1.81c-.306-.463-.98-.285-1.448-.362h0Zm34.024,1.809a2.831,2.831,0,0,1,1.086,1.808,1.486,1.486,0,0,1,1.358-.18c-.3-.882.38-1.521,1.267-1.176-.521-1.214.885-1.361,1.628-.9a6.82,6.82,0,0,0,.724-2.442c-.867-.49-1.731-.984-2.624-1.448-.7,1.9-2.136,3.052-3.439,4.343h0Zm2.353-3.8c.153-.239.209-.575.362-.814-.115-.1-.714-.182-.814,0,.226.2.131.714.453.814Zm-2.8,3.347c.4.27.9-.289,1.177-.542a8.492,8.492,0,0,0,2.533-3.709c-.116-.005-.125-.116-.271-.09-.48,2.113-2.058,3.129-3.439,4.341h0Zm-1.448-1.447c.139.374.513.512.814.724.045-.468-.257-.588-.181-1.085.415.187.912.294,1.358.452-.019-.493-.342-.684-.362-1.176a12.02,12.02,0,0,0,1.448.272c-.072-.472-.43-.656-.453-1.177.49-.008.753.213,1.266.181-.113-.46-.359-.787-.452-1.267h1.266a2.107,2.107,0,0,0-.723-1.085,11.34,11.34,0,0,1-3.981,4.161Zm-.091-.09c-.055-.005-.107-.014-.09-.091a14.81,14.81,0,0,0,2.444-2.08c.682-.682,1.822-1.6,1.357-2.623a10.84,10.84,0,0,1-4.434,4.432c.28.026.533.546.724.362h0ZM53.93,41.335c-1.575-.075-3.781-.1-3.258,1.266a8.786,8.786,0,0,0,4.977.09c.172-.46.484-.783.634-1.266C55.719,41.4,54.874,41.379,53.93,41.335Zm13.3.452c-.711.648-3.023,2.365-3.167,3.347a5.949,5.949,0,0,0,.9,2.714,5.435,5.435,0,0,0,1.9,1.809A11.9,11.9,0,0,0,70.037,47.3a4.974,4.974,0,0,0,1.267-2.17,9.408,9.408,0,0,0-.543-1.719,17.126,17.126,0,0,1-.272-5.337,18.91,18.91,0,0,1-3.257,3.709h0ZM37.19,37.355a23.322,23.322,0,0,0-5.339,11.126c1.4,1.217,3.024,1.722,5.52,1.9,1.02-3.051,2.45-5.691,4.977-7.237a8.936,8.936,0,0,1-4.615-5.7c-.277.065-.33-.092-.543-.091h0Zm33.933-.633c-5.249,1.115-7.819,4.909-14.387,4.7-1.524,1.781-1.8,5.509-1.358,8.684A11.193,11.193,0,0,0,61.35,51.2c.6-7.477,6.886-9.278,9.773-14.473Zm-37.462.633a2.6,2.6,0,0,0,1.267.272,1.1,1.1,0,0,0-.724-1.085c.051.5-.366.539-.543.814Zm39.182-.814c-.116-.005-.125-.116-.272-.09-.015.105-.142.1-.271.09a5.026,5.026,0,0,0,1,2.352c.438.626.863,1.5,1.719,1.719-.6-1.12-1.978-2.244-2.172-4.071Zm-39.634.453a.543.543,0,0,0,.814-.543A.537.537,0,0,0,33.208,36.994Zm4.614.271a1.077,1.077,0,0,0-1.176-1.176A1.076,1.076,0,0,0,37.823,37.265ZM32.3,35.908a1.353,1.353,0,0,0,.724.9c.028-.394.328-.516.543-.724a1.381,1.381,0,0,0-1.267-.18Zm5.067-.181a1.132,1.132,0,0,0,1.267.905C38.744,35.886,37.73,35.143,37.371,35.727Zm.272-.452c.171-.021.2.1.362.09.026-.206-.022-.34-.181-.362-.022.13-.149.153-.18.272Zm1.81.633a1.088,1.088,0,0,0-1.267-1.085A1.089,1.089,0,0,0,39.452,35.908Zm.633-.814c-.214-.42-1.1-.648-1.358-.724C39.048,34.726,39.439,35.348,40.086,35.094Zm-6.606.724c.654.129.928.64,1.448.9.1-.925.9-1.15.814-2.262-.943-.39-1.6.884-2.262,1.357Zm29.526-1.135a5.25,5.25,0,0,1,1.8-.584,1.2,1.2,0,0,0-.961-.163c-.4.09-.848.448-.834.748h0Zm-1.385.592c1.066-.382,1.311-1.584,2.624-1.719A2.354,2.354,0,0,0,61.621,35.275ZM35.2,33.647c.3.157.427.478.725.633.447-.4-.184-.769-.453-1-.091.121-.245.178-.272.362Zm.814.905a10.2,10.2,0,0,0,.634,1.085,4.006,4.006,0,0,0,1.719-1.628,6.006,6.006,0,0,0-.814-.905c-.374.621-1.081.91-1.539,1.447h0ZM26.24,34.19c-.13-.352-.01-.956-.362-1.085C25.5,33.431,25.993,33.942,26.24,34.19Zm37.191-1.266c-1.449.42-2.7,1.038-2.715,2.9.256-.047.384-.219.633-.272.061-1.537,1.141-2.056,2.444-2.352-.184-.027-.178-.245-.362-.272h0Zm-27.69.181c.32.253.393.753,1,.724.191-.507-.391-.823-.725-1.085-.026.185-.244.177-.271.362Zm36.738.542c.026-.6-.051-1.094-.633-1.085C71.66,33.039,71.839,33.716,72.479,33.647Zm-36.1-1.176c.2.343.306.78.814.814C37.4,32.907,36.853,32.162,36.374,32.47Zm35.2,0a.653.653,0,0,0-.543-.9A.621.621,0,0,0,71.574,32.47ZM35.107,33.1a5.006,5.006,0,0,0,1.719-1.538A3.42,3.42,0,0,0,35.107,33.1ZM59.72,32.38c.564.19,1.468.04,1.81.453a5.344,5.344,0,0,0-2.443,3.619A7.625,7.625,0,0,0,60.443,36c-.042-2.063,1.2-2.842,2.805-3.256-.435-.8-1.763-.709-2.262-1.447-.287.5-.873.7-1.266,1.085Zm-10.587.272c.16.106,1.41.656,1.436.538a9.963,9.963,0,0,0-.169-1.715,4.349,4.349,0,0,1-1.357-.271A4.969,4.969,0,0,1,49.133,32.652Zm23.527-.9v-.633c-.216.055-.656-.114-.724.09.308.115.342.5.724.543Zm-1.991-.181c.331-.281-.052-.9-.542-.9A.713.713,0,0,0,70.669,31.566Zm-23.165-.9a11.6,11.6,0,0,0,1.177,3.076c.149-1.172.329-3-.814-3.166a.71.71,0,0,0-.362.09ZM24.339,33.827c1.333-.657,4.028-2.522,1.538-3.256-1.978,2.123-4.969,3.233-9.049,3.256,1.862,1.422,5.373,1.053,7.511,0ZM40.808,35c-.658-.337-.438.533-1.177.362.029.36.006.669-.18.814-.294.052-.421-.062-.634-.091.091.235.159.606-.09.724-.167.271-.648-.115-.724.09.013,2.572,2.134,4.462,3.981,5.79-.732-1.762-2.072-4-1.81-6.151.856,6.562,5.588,9.249,7.239,15.016a7.232,7.232,0,0,0,5.158-1.176c-.87-2.718-2.08-5.1-2.353-8.412a.4.4,0,0,1-.362.18c-3.471-2.53-5.4-6.6-6.424-11.578-.02-.071-.076-.106-.181-.09-.88,1.441-2.639,2-2.444,4.522h0ZM24.792,31.2a4.488,4.488,0,0,0,.814-.814C25.158,30.427,24.678,30.907,24.792,31.2Zm34.747-.181a2.041,2.041,0,0,0,.181.9,2.568,2.568,0,0,0,1.086-.9c-.183-.239-.12-.724-.453-.814-.111.431-.5.581-.814.814Zm0,1.176a1.95,1.95,0,0,1-.272-.995c-.485.088-.774.372-1.358.362a2.556,2.556,0,0,1,.182-1.448c-.374.031-1.6-.077-1.991,0C57,31,58.162,32.1,59.54,32.2h0Zm10.406-1.537c-.046-.437-.212-.753-.724-.724C69.044,30.273,69.542,30.892,69.945,30.662ZM19.181,29.3h-.453C18.657,29.686,19.214,29.613,19.181,29.3Zm29.5-.09c-1.364,1.3,1.478,2.349,2.918,1.668C51.607,30.209,50.159,29.124,48.68,29.215ZM18,29.395a.588.588,0,0,0,.452.091C18.492,29.205,18.021,29.117,18,29.395Zm1.448,0c.225.014.439.017.453-.18C19.769,29.071,19.39,29.082,19.453,29.395Zm49.5.362c0-.479-.308-.657-.633-.814C68.006,29.41,68.553,29.98,68.95,29.757Zm1-.542c.356.217.549.6.9.814-.11-.537.067-.88-.09-1.267-.071.352-.557.288-.815.453ZM56.759,14.93c-1.019.388-.122,3.2,1.674,2.765C58.16,17.368,56.943,15.319,56.759,14.93Zm4.828,13.728c-1.856.163-.655,3.3,1.219,3.255-.274-.327-1.035-2.867-1.219-3.255Zm-41.5.465c.31.038.516-.028.452-.362A.453.453,0,0,0,20.086,29.124Zm30.313.091c.645.169.907.546,1.539.9a4.122,4.122,0,0,0,.995-.632,1.769,1.769,0,0,0-2.534-.272h0ZM72.66,34.371v-.543c-.734.291-1.176-.356-1.086-1.176-.594-.009-.819-.387-.905-.9a.8.8,0,0,1-.814-.814c-.6-.006-.838-.368-.905-.9-.641.038-.837-.369-.995-.814-.7.069-.788-.479-1.177-.724h-.271c1.142,2.869,2.984,5.038,6.153,5.88h0ZM56.915,28.49c-.179.455-.467.8-.633,1.266a5.278,5.278,0,0,0,1.81,0c.219-.443.483-.843.723-1.266a5.2,5.2,0,0,1-1.9,0h0Zm11.04.453a.69.69,0,0,0-.815-.724C67.14,28.732,67.409,28.976,67.955,28.943ZM20.72,28.671c.384.082.456-.147.543-.362C21.033,28.106,20.712,28.359,20.72,28.671ZM58.182,31.2c1.37-.35,2.425-1.013,2.353-2.8C59.222,27.548,58.267,29.676,58.182,31.2ZM21.353,28.129c.33.05.669-.41.272-.543C21.5,27.732,21.3,27.808,21.353,28.129Zm45.606.09a.787.787,0,0,0-.724-.724C65.944,27.943,66.592,28.411,66.959,28.218Zm4.072.091c.335-.056.413-.37.9-.272-.234-.4-.683-1.065-.995-1.085a1.593,1.593,0,0,1,.091,1.357ZM21.805,27.4c.191.146.594-.077.543-.452C22.1,26.751,21.78,27.054,21.805,27.4Zm26.614.181a1.619,1.619,0,0,1,.171,1c1.322.764,2.931-.253,3.981-.634-1.274-1.243-3.56-1.341-4.152-.362Zm-1.005,2.533c1.068-.617,1.208-3.215-.554-3.407A8.448,8.448,0,0,0,47.414,30.118Zm18.279-3.256a21.465,21.465,0,0,1,6.244,4.975c.188.2.4.682.724.542A18.644,18.644,0,0,0,65.6,26.59c.1.016.1.143.09.272Zm-43.344-.181q.565.021.543-.543Q22.276,26.066,22.348,26.681ZM67.229,24.2c-1.5.165-.435,3.68.905,2.442C68.7,26.12,68.441,24.07,67.229,24.2Zm.543,2.261c.249-.6-.06-1.371-.724-1.357C66.8,25.712,67.109,26.479,67.772,26.465Zm-1.086-1.447a.248.248,0,0,0,.272-.181c1.258-.151,1.626,1.918.724,1.99C67.041,26.878,66.6,25.962,66.686,25.018ZM72.4,28.333a.873.873,0,0,0-.536-.1c-1.442.159-.517,3.4.744,2.57.054-.035-.174-1.658-.207-2.468Zm.007,2.159c.25-.6-.06-1.371-.724-1.357C71.433,29.738,71.743,30.505,72.407,30.491Zm-1.086-1.447a.248.248,0,0,0,.272-.181.971.971,0,0,1,.885.354c.053.628.125.774.147,1.5a.475.475,0,0,1-.309.139c-.64.05-1.078-.866-.995-1.809h0Zm-1.738-3c-1.5.166-.435,3.68.905,2.442C71.058,27.962,70.794,25.913,69.583,26.047Zm-13.574,3.8c.042-.712.511-1,.634-1.629a2.006,2.006,0,0,1-1-.633,4.364,4.364,0,0,1,.725-1,4.356,4.356,0,0,1-1.358-.9c-.345,1.706.005,3.489,1,4.161ZM22.89,25.956c.26-.012.43-.113.362-.453h-.271a.589.589,0,0,0-.09.453Zm38.186,1.235c-.288-.526-.254-1.374-.543-1.9C60.147,25.867,60.385,27.44,61.077,27.191ZM49.494,26.5c.709-.141,1.117.208,1.719.181.337-.206.452-.634.725-.9C50.946,25.2,49.4,25.416,49.494,26.5ZM23.252,25.233c.327.024.627.023.544-.362C23.458,24.835,23.265,24.943,23.252,25.233Zm33.12-.453c-.356.248-.753.454-1.086.724a5.234,5.234,0,0,0,1.358.905c.274-.329.782-.424,1.086-.724C57.134,25.526,57.006,24.9,56.372,24.78Zm4.124.057a1.148,1.148,0,0,0-.11-.473c-1.528.86-.5,4.147,1.1,3.82.081,0-.061-.315-.122-.473-.534.073-1.317-.8-1.371-1.54a1.572,1.572,0,0,1,.5-1.334h0Zm7.458,2.3c-.988.214-1.544-.713-1.719-1.718a1.4,1.4,0,0,1-1,0c.014.287.205.4.181.724a16.856,16.856,0,0,1,3.348,2.08c-.515-1.139.065-2.67,1.177-2.442a17.1,17.1,0,0,0-1.719-1.447c.566.731.787,2.574-.271,2.8h0ZM23.615,24.69c.4.073.5-.161.543-.453C23.788,24.2,23.587,24.33,23.615,24.69Zm-2.533.814c.085-.578.548-.778.633-1.357-.161-.081-.231-.253-.544-.181.069.553-.348,1.1-.09,1.538Zm29.046-1.628a3.324,3.324,0,0,0-2.8,2.443,4.986,4.986,0,0,1,.814.633,4.109,4.109,0,0,0,1.991-3.076ZM35.74,24.961c1.257,2.9-2.542,4.882-.905,7.689a8.948,8.948,0,0,0,1.9-1.538c-1.044-2.032.486-6.637-1.81-7.418.057.544.583.732.814,1.266Zm-12.035-1a.554.554,0,0,0,.633-.543C23.919,23.4,23.713,23.582,23.7,23.966Zm-3.076,2.986c.55-1.139,1.56-1.819,1.719-3.348-.11-.179-1.079-.579-1.086,0,.027.365.739.046.634.543-.124,1.174-1.343,1.733-1.267,2.8h0Zm44.791-2.9a.938.938,0,0,0-.905-.995C64.681,23.53,64.652,24.193,65.42,24.057Zm2.352-.09a20.5,20.5,0,0,0-1.81-1.085c.16.474.51.757.543,1.357C66.735,23.947,67.518,23.959,67.773,23.967Zm-20.089.814a3.545,3.545,0,0,1,1.277-.925,1.863,1.863,0,0,0-.1-.974,1.809,1.809,0,0,0-1.086.362c.033.487-.137,1.337-.091,1.537Zm-24.16-1.447c.4-.027.686-.158.633-.633C23.816,22.781,23.438,22.826,23.524,23.333ZM20.267,28.58a15.7,15.7,0,0,0,2.9-3.709c.689-1.435-.789-3.1-1.81-1.809.561-.018.98.105,1.177.453a4.754,4.754,0,0,1-1.267,2.9c-1.029,1.519-1.488,2.5-3.529,2.351a2.53,2.53,0,0,0,2.533-.18h0ZM65.19,25.274c2.02-1.383.048-3-.91-3.238a.785.785,0,0,0,.145.546c.346.4,1.408.42,1.27,1.564-.09.27-.644.084-.812.277.128.328.216.56.306.851ZM46.96,22.339c-.032,1.217-.546,2.58-.452,3.619A2.885,2.885,0,0,0,46.96,22.339ZM23.071,22.7c.315.177.788-.144.724-.634C23.432,22.156,23.057,22.234,23.071,22.7Zm36.92,1.537c.5-.128-.037-1.864-.362-2.351C59.142,22.472,58.839,24.167,59.991,24.238Zm-2.444-1.176a2.66,2.66,0,0,0,1.266.362,8.429,8.429,0,0,0,.181-.9c-.327-.233-1.265-.763-1.538-.453a3.386,3.386,0,0,1,.091,1Zm-9.773-.18c.314-.322.947-.27,1.267-.362a1.925,1.925,0,0,1,.181,1.176,2.669,2.669,0,0,1,1.358-.181,7.324,7.324,0,0,1-.362,1.628A4.672,4.672,0,0,1,52.3,25.6a6.238,6.238,0,0,1-.734,1.357,4.429,4.429,0,0,1,1.729.905c-.263.37-.864.4-1.177.724.527.287,1.135.493,1.357,1.085a4.437,4.437,0,0,1-1.357.814,2.743,2.743,0,0,1,.187,1.145,6.284,6.284,0,0,1-1.545-.15,13.563,13.563,0,0,1,.181,2.262,4.426,4.426,0,0,1-1.81-.724A6.021,6.021,0,0,0,49.041,35c1.954-.312,3.541.411,4.072,1.81a10.42,10.42,0,0,0,2.624,0,10.615,10.615,0,0,0-4.8-2.442c1.88-1.317,3.694-2.7,3.71-5.88-1.932-2.8-3.767-6.184-7.692-6.694.5.132.438.829.814,1.086h0Zm-25.337-.543c.468.045.721-.124.725-.543C22.868,21.615,22.422,21.925,22.437,22.339Zm41.625-.633a19,19,0,0,1,6.515,4.343,9.689,9.689,0,0,0,1.72,1.719,15.059,15.059,0,0,0-8.325-6.333c.1.016.1.143.09.271ZM56.19,20.259c.383.31,1.013.374,1.086.994a4.574,4.574,0,0,0-2.173,3.98,4.838,4.838,0,0,1,1.177-.724c-.137-.5-.532-.735-.634-1.266.347-.287,1.2-.063,1.63-.272a3.87,3.87,0,0,1-.091-1.447,6.169,6.169,0,0,1,1.99.633c.013-.409.37-.473.362-.905a5.766,5.766,0,0,1-1.629-2.08c-.364.57-1.216.653-1.719,1.086h0ZM47.5,20.077c-.131.14-.464.08-.724.091a.808.808,0,0,0,.181.633,9.007,9.007,0,0,0,1.81-2.081,3.16,3.16,0,0,1-1.629,0c.014.56.364.782.362,1.357Zm-.815-.452c.037-.154.117.019.272,0a3.949,3.949,0,0,0-.181-.905c-.232.043-.513-.32-.634-.09C46.359,18.929,46.431,19.372,46.688,19.625Zm12.488.452c-.289-.247-.178-1.452-.724-1.718C58.009,18.98,58.7,20.427,59.176,20.077Zm-35.11-1.266a.341.341,0,0,0,.362-.362C24.137,18.2,23.883,18.542,24.066,18.812Zm-.091-.091c-.317-.015-.285.318-.452.453.237.048.308-.525.543-.181-.142.009-.314-.013-.271.181C24.152,19.142,24.2,18.9,23.975,18.721Zm32.576-1.085a2.758,2.758,0,0,0-.633,2.261,3.1,3.1,0,0,0,2.172-1.628c-.746.022-.94-.509-1.539-.633Zm-32.033-.181c-.034.3-.264.4-.362.633a.432.432,0,0,1,.453.452c-.083.6-.89,1.229-1.358.633a6.428,6.428,0,0,0-.724,1.086c1.279-.682,2.948-.974,3.981-1.9v-.724c-.208-.093-.292-.311-.633-.272.137,1.325-1.277.9-1.358.09Zm23.8,1c-.5-.913-.84-1.735-2.444-1.357.043.284-.243.239-.271.452.31.878,1.4.907,1.9.905S48.136,18.45,48.317,18.45Zm-21.174,0c.356-.838-.333-1.882-1.177-1.266.463.152.651.241.724.633.225,1.215-1.452,1.459-2.534,1.9-.919.373-2.048.681-2.081,1.357.732-.579,4.58-1.477,5.068-2.623h0Zm.724.633a1.754,1.754,0,0,0-1.085-2.714c-1.639-.3-2.726,1.4-1.358,1.719.469-.129.357-.7.272-1.176A1.174,1.174,0,0,1,27.5,18c-.059,2.305-5.4,2.228-5.791,4.16,1.518-1.561,4.878-1.495,6.153-3.075h0Zm4.871-3.546s.219,1.5.287,1.828a.907.907,0,0,0,1.24-.449c-.338-.6-.83-1.568-.83-1.568l-.7.189Zm31.143,5.536a19.347,19.347,0,0,1,8.144,5.608A13.784,13.784,0,0,0,61.257,15.737c1.5,1.157,1.995,3.312,2.624,5.337h0Zm-18.46-2.986c-1.291-2.21-6.908-3.745-9.229-1.357,2.732-1.237,4.324,1.186,5.52,2.623-.145-1.783,2.661-1.512,3.709-1.266h0Zm-12.887-.745a.148.148,0,0,0,.273.009c-.082-.482-.27-1.782-.27-1.782l-.218.046s.151,1.228.215,1.728Zm12.706-.25c.572-.487.115-1.692-.814-1.719A6.537,6.537,0,0,0,45.24,17.093Zm-1.448-1.719c-.241.272-1.017.008-1.177.362.771.195,1.5.911,2.081.994-.376-.377-.329-1.179-.9-1.357h0Zm-15.2,1.987a1.4,1.4,0,0,0,1.42.182c.076-.72.115-2.032.115-2.032l-.906-.229s-.448,1.47-.629,2.078ZM34.557,14.8l-.449.279s.873,1.273,1.141,1.637c.224.019.594-.157.594-.424-.316-.411-1.286-1.491-1.286-1.491h0Zm11.136.758c-.033.485.268.636.18,1.176a3.246,3.246,0,0,0,2.805-1.085c-.886-.336-2.221-.888-2.986-.091h0Zm-.634-.271c.1.019.141.1.181.18.3-.032.392-.271.543-.453-.268.065-.639.026-.725.272Zm-18.119.883a2.662,2.662,0,0,1,1.023.49c.2-.435.626-1.63.626-1.63l-.582-.387s-.661.962-1.067,1.527h0Zm34.77,12.052a15.957,15.957,0,0,0,1.719,4.252c.607.773,1.728,1.136,2.081,1.99-2.306-.088-3.455,1.062-4.886,1.719a9.892,9.892,0,0,1-3.62.994c-1.389.093-2.849-.2-4.614,0-.8.092-.96.494-1.629.725a17.989,17.989,0,0,1-4.162-9.86c-.068-.539.123-1.289-.362-1.718-.4.637-.806,1.209-1.267,1.9-.375.562-1.194,1.424-1.266,1.99a8.593,8.593,0,0,0,.362,1.81c.912,4.09,3.22,7.986,5.882,9.77,2.039-1.437,5.79-.423,8.688-.633,6.006-.437,10.8-6.679,17.192-4.522-2.076-1.792-4.177-1.966-6.063-3.166-2.439-1.553-3.967-5.193-4.886-8.051-.932-2.9-1.623-7.5-3.62-9.407-.983-.937-2.694-1.15-4.253-1.357-.055.006-.107.014-.09.09,2.807,3.162,3.262,8.974,4.8,13.478h0ZM47.865,15.1a4.213,4.213,0,0,1,1.358.452c-.278.657-.983.887-1.629,1.176a18.66,18.66,0,0,0,1.357,1.9,6.314,6.314,0,0,0,.905-3.98c-.733.081-1.742-.113-1.99.453Zm6.063-.543c.329,1.2,2.223,1.076,2.172,0a6.775,6.775,0,0,0-2.444,0Zm-.814-.091a6.2,6.2,0,0,0-2.262.181,18.3,18.3,0,0,0,4.8,5.156,6.992,6.992,0,0,1,.181-1.9,2.876,2.876,0,0,1-2.624-.814,5.129,5.129,0,0,1,1.448-1.448,3.989,3.989,0,0,1-1.538-1.177h0Zm-25.567-.461a13.593,13.593,0,0,0-1.58,2.089l.307-.008,1.4-1.9.092.132L26.492,16.1h.2c.494-.7,1.183-1.628,1.183-1.628Zm.411.009c.831,1.78,6.055,1.7,6.877,0-.02-.071-.076-.105-.18-.091-1.018,1.455-5.546,1.348-6.7.091Zm.272-.181c1.182,1.169,5.094,1.288,6.152-.091C33.3,12.6,29.186,12.531,28.229,13.836ZM24.343,24.268c-.3.835-3.4,6.163-6.158,5.4a3.131,3.131,0,0,1-1.719-1.357c-.068-.279.248-.174.18-.453-2-4.8,4.7-8.712,5.068-11.941a3.953,3.953,0,0,0-.633-2.714c-1.007-1.4-3.873-1.03-4.434.543-1.071,3,2.507,3.69,2.735,1.929.083-.642-.124-1.13-.8-1.231-.451-.068-.895.046-.759.659.2.62.975.063,1.177.362a.878.878,0,0,1-1.448-.9c.315-.906,1.76-.313,1.99,0,1.012,1.373-.92,3.054-1.719,3.8-2.589,2.415-5.61,4.633-5.61,9.408a7.438,7.438,0,0,0,7.058,7.779c2.567.145,4.132-.764,6.425-1.628a.444.444,0,0,1-.181-.453c-1.765,1.445-5.354,1.91-7.873,1.085-.474-.155-1.271-.215-1.267-.814,3.012-.367,6.1-.66,7.963-2.171a5.338,5.338,0,0,1,1.448-2.443c.278.375-.658.7-.362,1.085a1.37,1.37,0,0,1,1.81,1.357c-.014.729-.572.942-.905,1.447.117.517.055,1.212.453,1.448.011-3.359,4.26-2.962,6.424-4.343,1.623-1.034,3.613-4.6,1.357-6.151.07-.231.09-.513.272-.633,1.25.375,1.555,1.352,1.629,2.8.194,3.836.375,7.992,4.072,8.5-.056-1.881,1.061-2.7,1.991-3.708,2.066-2.25,3.8-4.556,4.072-8.323a6.3,6.3,0,0,0-.543-3.618c-.554-.835-3.138-1.216-3.891-.362-.383.434-.083.879-.181,1.447-1.376-1.539-3.26-4.737-6.153-2.8a2.907,2.907,0,0,1,.147-.742.689.689,0,0,1-.885.388c-.1.34-.364.254-.559.205a1.156,1.156,0,0,1-1.58.436.322.322,0,0,1-.418.037,1.444,1.444,0,0,1-1.91.191c-.091.054-.359.154-.465-.055a1.776,1.776,0,0,1-1.66-.1c.089,2.174-1.867,2.547-3.348,3.075a7.149,7.149,0,0,0-2.07.89c1.164.145,1.626,1.649,1.261,2.668h0Zm12.572-8.532c1.374-.808,3.178-.258,4.8-.272a29.244,29.244,0,0,0,4.253-.724A42.494,42.494,0,0,1,56.008,14.2c5.214.416,9.976,2.438,12.85,5.428,3.212,3.343,4.122,8.328,4.072,14.926a17.013,17.013,0,0,1,1.719.995c.547.323,1.4.489,1.448,1.086-.523.774-1.616-.635-2.986-.181a7.486,7.486,0,0,0,2.353,4.07c.9-.4,1.9-1.529.905-2.532,2.51.462,1.565,3.81-.634,3.618-.986-.086-2.722-2.31-3.168-3.166-.3-.575-.331-1.314-.633-1.9-.675.109-.684.884-1.176,1.176-.373,4.046.3,7.939,2.624,9.951.836.722,1.851.883,2.715,1.628A8.94,8.94,0,0,1,73.111,54.9c-.314.232-1.254.76-1.719.633-.6-.165-.765-1.58-1.086-2.171-1.519-2.8-6.354-4.048-6.424-7.96a9.4,9.4,0,0,0-2.262,5.428c-.3,3.582.693,7.507-3.348,7.417a17.546,17.546,0,0,1-3.439-.543c-.34-.092-.746-.171-.814-.543-.371.462-.5,1.177-1.086,1.447-1.913.884-6.11.22-6.334-1.266-.132-.874.772-1.72.9-2.532a7.164,7.164,0,0,0,0-1.718c-.37-3.972-3.4-6.993-5.067-9.68-3.194,1.917-4.547,6.014-5.972,10.041-.793,2.244-1.056,4-3.891,4.161-1.491.087-5.106-.758-5.158-2.171-.027-.736.976-1,1.538-1.447,2.376-1.871,2.439-6.268,3.71-9.86,1.006-2.842,2.946-4.82,4.162-6.875-.578-.808-.161-1.528-.814-2.262a5.19,5.19,0,0,0-.994,2.8,2.67,2.67,0,0,1-2.9-2.08c1.552-.047,2.1-1.1,3.167-1.628-.827-1.071-.836-3.219-2.534-3.347a13.6,13.6,0,0,0-4.614,1.628A2.513,2.513,0,0,0,27.051,35c-.647-.016-.757-.569-1.267-.723-3.387,1.671-8.138,2.168-10.858,0a8.268,8.268,0,0,1-2.986-6.512c0-5.818,4.145-7.671,6.877-10.946-1.939.475-3.094-1.326-2.444-3.166.688-1.947,3.944-2.044,4.977-.542,1.952,2.834-.688,5.509-2.171,7.508-1.125,1.514-2.39,3-2.624,4.7a5.126,5.126,0,0,0,.181,2.261,2.153,2.153,0,0,0,2.986.453c1.458-1.246.62-5.338,1.991-6.6.164-.214-.124-.606.09-.9,1.627-1.118,2.147-3.342,3.891-4.342A7.841,7.841,0,0,1,28.228,13.2c3.007-1.757,7.852.026,8.687,2.534h0Z" transform="translate(-11.341 -11.475)" fill="url(#linear-gradient-5)"/>
      <path id="Path_51" data-name="Path 51" d="M233.24,415.061c.076.127.14.242.2.35v0l.01.019a3.142,3.142,0,0,1,.264.7v.009l0,.016c.018.075.035.152.05.236v0h0c.02.108.039.224.057.352l.655-.178a2.936,2.936,0,0,0-.562-1.763l-.677.261Z" transform="translate(-221.551 -394.012)" fill="#d12c3f"/>
      <path id="Path_51_-_Outline" data-name="Path 51 - Outline" d="M221.754,411.891l.055.074a2.706,2.706,0,0,1,.436.854,4.308,4.308,0,0,1,.15.973l.006.1-.882.24-.02-.135c-.02-.137-.038-.247-.056-.346v0c-.015-.081-.031-.156-.049-.229l-.006-.026a3.006,3.006,0,0,0-.254-.668l-.006-.012v0l0-.006c-.044-.086-.1-.179-.157-.285l-.575,0Zm.392,1.818a2.752,2.752,0,0,0-.479-1.526l-.457.176c.047.082.088.157.124.228h0l.013.025a3.281,3.281,0,0,1,.273.721l.006.026c.019.077.035.156.051.241v0c.013.068.025.14.038.222Z" transform="translate(-209.345 -391.249)" fill="#fff"/>
      <path id="Path_52" data-name="Path 52" d="M219.89,420.551a3.738,3.738,0,0,1,.584,1.68l.655-.178c-.011-.161-.024-.309-.042-.45a3.551,3.551,0,0,0-.513-1.3l-.007-.009-.677.261Z" transform="translate(-208.87 -399.227)" fill="#d62c26"/>
      <path id="Path_52_-_Outline" data-name="Path 52 - Outline" d="M217.251,417.4l.067.086,0,.007a3.657,3.657,0,0,1,.528,1.344v.006c.017.132.031.278.043.457l.006.1-.882.24L217,419.5a3.63,3.63,0,0,0-.568-1.635l-.073-.123Zm.361,1.477a3.35,3.35,0,0,0-.452-1.183l-.45.173a4.021,4.021,0,0,1,.332.706,4.29,4.29,0,0,1,.175.761l.428-.116C217.636,419.087,217.625,418.977,217.611,418.876Z" transform="translate(-205.513 -396.48)" fill="#fff"/>
      <path id="Path_53" data-name="Path 53" d="M1152.344,304.891c.248-.6-.06-1.372-.724-1.357C1151.371,304.137,1151.68,304.9,1152.344,304.891Zm-1.087-1.448a.247.247,0,0,0,.272-.181c1.258-.15,1.626,1.919.724,1.99C1151.613,305.3,1151.175,304.387,1151.258,303.443Z" transform="translate(-1093.554 -288.056)" fill="#ce904c"/>
    </g>
  </g>
</svg>
