<svg xmlns="http://www.w3.org/2000/svg" width="614.685" height="342.415" viewBox="0 0 614.685 342.415">
  <path id="Path_1393" data-name="Path 1393" d="M341,172.131l-8.227-8.227a59.446,59.446,0,0,1-17.406-42.029V72.028A45.171,45.171,0,0,0,270.2,26.857H218.187a50.291,50.291,0,0,1-35.562-14.731L170.5,0,158.375,12.127a50.285,50.285,0,0,1-35.56,14.731H70.8A45.169,45.169,0,0,0,25.636,72.028v49.847A59.449,59.449,0,0,1,8.227,163.9L0,172.131l8.227,8.222a59.455,59.455,0,0,1,17.409,42.032V541.241A45.17,45.17,0,0,0,70.8,586.412h52.012a50.294,50.294,0,0,1,35.56,14.728L170.5,613.27l12.125-12.13a50.3,50.3,0,0,1,35.562-14.728H270.2a45.173,45.173,0,0,0,45.171-45.171V222.385a59.452,59.452,0,0,1,17.406-42.032Z" transform="translate(0.708 341.707) rotate(-90)" fill="#fff" stroke="rgba(112,112,112,0.5)" stroke-width="1"/>
</svg>
