<svg xmlns="http://www.w3.org/2000/svg" width="117.083" height="56" viewBox="0 0 117.083 56">
  <path id="Path_1383" data-name="Path 1383" d="M21.131,56a6.917,6.917,0,0,1-6.755-7.05v-2.3h-.1A7.379,7.379,0,0,1,9.1,44.5l-.144-.139-.033-.031-.05-.052c-.023-.023-.031-.033-.052-.056l-.031-.033c-.069-.079-.142-.157-.209-.236s-.138-.157-.207-.249a32.475,32.475,0,0,1-3.42-6.151A80.361,80.361,0,0,0,0,28,80.778,80.778,0,0,0,4.958,18.44a32.611,32.611,0,0,1,3.436-6.173c.065-.081.134-.164.2-.238.081-.091.16-.18.244-.269l.046-.05.058-.06c.061-.058.123-.118.186-.174a7.341,7.341,0,0,1,5.15-2.13h.1V7.05A6.917,6.917,0,0,1,21.131,0h74.82A6.916,6.916,0,0,1,102.7,7.05v2.3h.1a7.35,7.35,0,0,1,5.15,2.13c.063.056.125.116.183.174l.059.06.046.05c.086.089.165.178.244.269.069.075.136.157.2.238a32.709,32.709,0,0,1,3.439,6.173A80.56,80.56,0,0,0,117.082,28a80.06,80.06,0,0,0-4.956,9.563,32.367,32.367,0,0,1-3.422,6.151c-.069.091-.14.174-.207.249s-.138.157-.209.236l-.031.033c-.021.023-.029.033-.052.056l-.05.052-.033.031-.144.139a7.374,7.374,0,0,1-5.173,2.15h-.1v2.3A6.916,6.916,0,0,1,95.951,56Z" transform="translate(0 0)" fill="#910d11"/>
</svg>
