<svg xmlns="http://www.w3.org/2000/svg" xmlns:xlink="http://www.w3.org/1999/xlink" width="298.5" height="298.537" viewBox="0 0 298.5 298.537">
  <defs>
    <clipPath id="clip-path">
      <path id="Union_14" data-name="Union 14" d="M123.095,271.03a124.55,124.55,0,0,1-18.3-14.448,124.685,124.685,0,0,1-23.149-2.729,87.019,87.019,0,0,0-37.939.959,87.043,87.043,0,0,0,.959-37.942,124.608,124.608,0,0,1-2.726-23.157,125.3,125.3,0,0,1-14.433-18.268A87.172,87.172,0,0,0,0,149.282a87.172,87.172,0,0,0,27.505-26.164,125.3,125.3,0,0,1,14.439-18.286,125.273,125.273,0,0,1,2.711-23.146,87.183,87.183,0,0,0-.95-37.951,87.164,87.164,0,0,0,37.948.95,125.292,125.292,0,0,1,23.15-2.72A124.987,124.987,0,0,1,123.095,27.52,86.849,86.849,0,0,0,149.243,0a86.85,86.85,0,0,0,26.149,27.52,125.149,125.149,0,0,1,18.293,14.441,124.933,124.933,0,0,1,23.153,2.722,86.838,86.838,0,0,0,37.948-.968,86.859,86.859,0,0,0-.968,37.952,125.1,125.1,0,0,1,2.724,23.163,125.365,125.365,0,0,1,14.44,18.288A87.135,87.135,0,0,0,298.5,149.282a87.136,87.136,0,0,0-27.518,26.164,125.305,125.305,0,0,1-14.444,18.28,125.348,125.348,0,0,1-2.72,23.136,87.149,87.149,0,0,0,.959,37.961,87.126,87.126,0,0,0-37.958-.959,125.343,125.343,0,0,1-23.113,2.711,124.711,124.711,0,0,1-18.314,14.456,87.034,87.034,0,0,0-26.149,27.507A87.033,87.033,0,0,0,123.095,271.03Z" transform="translate(-2203.707 1057.375)" fill="#fff" stroke="rgba(0,0,0,0)" stroke-width="1"/>
    </clipPath>
    <clipPath id="clip-path-2">
      <rect id="Rectangle_149" data-name="Rectangle 149" width="29.607" height="63.657" fill="none"/>
    </clipPath>
    <clipPath id="clip-path-3">
      <rect id="Rectangle_150" data-name="Rectangle 150" width="19.355" height="41.197" fill="none"/>
    </clipPath>
    <linearGradient id="linear-gradient" x1="5.587" y1="1.973" x2="5.587" y2="0.973" gradientUnits="objectBoundingBox">
      <stop offset="0" stop-color="gray" stop-opacity="0.251"/>
      <stop offset="0.54" stop-color="gray" stop-opacity="0.122"/>
      <stop offset="1" stop-color="gray" stop-opacity="0.102"/>
    </linearGradient>
    <linearGradient id="linear-gradient-2" x1="0.502" y1="0.985" x2="0.502" y2="-0.017" xlink:href="#linear-gradient"/>
    <linearGradient id="linear-gradient-3" x1="0.505" y1="0.995" x2="0.505" y2="-0.005" xlink:href="#linear-gradient"/>
    <linearGradient id="linear-gradient-4" x1="0.505" y1="0.995" x2="0.505" y2="-0.005" xlink:href="#linear-gradient"/>
    <linearGradient id="linear-gradient-5" x1="0.502" y1="0.998" x2="0.502" y2="-0.002" xlink:href="#linear-gradient"/>
  </defs>
  <g id="Group_609" data-name="Group 609" transform="translate(-104.5 -2378)">
    <g id="Mask_Group_1" data-name="Mask Group 1" transform="translate(2308.207 1320.625)" clip-path="url(#clip-path)">
      <g id="Group_584" data-name="Group 584" transform="translate(-2227.51 1042.58)">
        <g id="Group_598" data-name="Group 598" transform="translate(0)">
          <rect id="Rectangle_146" data-name="Rectangle 146" width="353.684" height="319.232" transform="translate(0.688)" fill="#4d0303"/>
          <g id="Group_603" data-name="Group 603" transform="translate(0 38.018)">
            <g id="Group_600" data-name="Group 600" transform="translate(345.232 255.653) rotate(-180)">
              <g id="Group_602" data-name="Group 602" transform="translate(0 0)">
                <g id="Group_599" data-name="Group 599" transform="translate(199.223 0)">
                  <path id="Path_3492" data-name="Path 3492" d="M41.419,144.994,20.914,11.652,0,0,30.019,141.886Z" transform="translate(26.032 15.112)" fill="#c72b17"/>
                  <path id="Path_3508" data-name="Path 3508" d="M48.074,168.293,24.274,13.525,0,0,34.843,164.686Z" transform="translate(74.949 37.403) rotate(11)" fill="#c72b17"/>
                  <path id="Path_3493" data-name="Path 3493" d="M33.181,145.819,20.914,11.646,0,0,27.953,144.4Z" transform="translate(36.664 11.397)" fill="#eb472a"/>
                  <path id="Path_3505" data-name="Path 3505" d="M55.975,160.13,59.21,12.69,0,0,11.794,181.382Z" transform="translate(87.886 35.526) rotate(11)" fill="#eb472a"/>
                  <path id="Path_3494" data-name="Path 3494" d="M22.982,146.12,20.914,11.645,0,0,17.754,144.7Z" transform="translate(50.741 8.1)" fill="#c72b17"/>
                  <path id="Path_3495" data-name="Path 3495" d="M0,113.891C11.083,50.862,30.426,6,67.478,0V113.891Z" transform="translate(0 141.762)" fill="#c72b17"/>
                  <path id="Path_3496" data-name="Path 3496" d="M0,104.085C11.083,46.482,24.713,14.386,58.452,0V104.085Z" transform="translate(9.026 141.762)" fill="#eb472a"/>
                  <path id="Path_3497" data-name="Path 3497" d="M0,87.394C9.565,43.877,25.3,11.2,53.279,0V87.394Z" transform="translate(14.201 145.417)" fill="#c72b17"/>
                  <path id="Path_3498" data-name="Path 3498" d="M0,112.126C12.512,55.291,27.415,19.737,58.966,0V112.126Z" transform="translate(23.771 136.797)" fill="#eb472a"/>
                  <g id="Group_592" data-name="Group 592" transform="translate(32.149 157.792)" opacity="0.33">
                    <g id="Group_591" data-name="Group 591" transform="translate(0 0)">
                      <g id="Group_590" data-name="Group 590" clip-path="url(#clip-path-2)">
                        <path id="Path_3499" data-name="Path 3499" d="M.025,63.657c1.184-5.906,2.509-11.7,4.2-17.381A129.444,129.444,0,0,1,10.37,29.7,115.079,115.079,0,0,1,18.8,14.189,125.138,125.138,0,0,1,29.607,0,62.844,62.844,0,0,0,16.723,12.716,79.172,79.172,0,0,0,7.4,28.357a85.74,85.74,0,0,0-5.634,17.3,76.9,76.9,0,0,0-1.737,18" transform="translate(-0.001 0)" fill="#ff6d5a"/>
                      </g>
                    </g>
                  </g>
                  <g id="Group_595" data-name="Group 595" transform="translate(31.887 201.348)" opacity="0.33">
                    <g id="Group_594" data-name="Group 594" transform="translate(0 0)">
                      <g id="Group_593" data-name="Group 593" clip-path="url(#clip-path-3)">
                        <path id="Path_3500" data-name="Path 3500" d="M0,41.2A147,147,0,0,1,7.73,19.653,106.565,106.565,0,0,1,19.355,0,55.412,55.412,0,0,0,5.827,18.78,64.62,64.62,0,0,0,0,41.2" transform="translate(0 0.001)" fill="#ff6d5a"/>
                      </g>
                    </g>
                  </g>
                  <path id="Path_3502" data-name="Path 3502" d="M20.914,148.468V11.625L0,0,15.684,147.047Z" transform="translate(57.578 1.765)" fill="#eb472a"/>
                  <path id="Path_3504" data-name="Path 3504" d="M20.914,148.468V11.625L0,0,15.684,147.047Z" transform="translate(63.266 0)" fill="#eb472a"/>
                  <path id="Path_3506" data-name="Path 3506" d="M24.274,172.326V13.492L0,0,18.2,170.677Z" transform="translate(120.72 28.432) rotate(11)" fill="#eb472a"/>
                  <path id="Path_3503" data-name="Path 3503" d="M14.055,0,58.9,15.994,52.458,26.051,0,15.994C0,8,8.395,0,14.055,0" transform="translate(46.467 130.84)" fill="#fff"/>
                  <path id="Path_3509" data-name="Path 3509" d="M54.1,16.806s.921-.691-14.5-6.216S2.532,0,2.532,0L0,4.6S19.338,7.367,30.618,10.59,54.1,16.806,54.1,16.806Z" transform="translate(47.588 137.553)" fill="#f8dcdc"/>
                  <path id="Path_3510" data-name="Path 3510" d="M55.155,17.378s.921-.691-14.5-6.216S4.64,0,4.64,0L0,4.7s20.393,3.242,31.673,6.465S55.155,17.378,55.155,17.378Z" transform="translate(52.339 130.83) rotate(8)" fill="#f8dcdc"/>
                </g>
                <g id="Group_601" data-name="Group 601" transform="translate(0 0)">
                  <path id="Path_3492-2" data-name="Path 3492" d="M0,144.994,20.505,11.652,41.419,0,11.4,141.886Z" transform="translate(78.558 15.112)" fill="#c72b17"/>
                  <path id="Path_3508-2" data-name="Path 3508" d="M48.074,0l-23.8,154.768L0,168.293,34.843,3.607Z" transform="translate(103.171 202.604) rotate(169)" fill="#c72b17"/>
                  <path id="Path_3493-2" data-name="Path 3493" d="M0,145.819,12.267,11.646,33.181,0,5.227,144.4Z" transform="translate(76.164 11.397)" fill="#eb472a"/>
                  <path id="Path_3505-2" data-name="Path 3505" d="M55.975,21.252l3.236,147.44L0,181.382,11.794,0Z" transform="translate(92.732 213.576) rotate(169)" fill="#eb472a"/>
                  <path id="Path_3494-2" data-name="Path 3494" d="M0,146.12,2.068,11.645,22.982,0,5.227,144.7Z" transform="translate(72.285 8.1)" fill="#c72b17"/>
                  <path id="Path_3495-2" data-name="Path 3495" d="M67.478,113.891C56.4,50.862,37.053,6,0,0V113.891Z" transform="translate(78.53 141.762)" fill="#c72b17"/>
                  <path id="Path_3496-2" data-name="Path 3496" d="M58.452,104.085C47.369,46.482,33.739,14.386,0,0V104.085Z" transform="translate(78.53 141.762)" fill="#eb472a"/>
                  <path id="Path_3497-2" data-name="Path 3497" d="M53.279,87.394C43.715,43.877,27.98,11.2,0,0V87.394Z" transform="translate(78.528 145.417)" fill="#c72b17"/>
                  <path id="Path_3498-2" data-name="Path 3498" d="M58.966,112.126C46.454,55.291,31.551,19.737,0,0V112.126Z" transform="translate(63.271 136.797)" fill="#eb472a"/>
                  <g id="Group_592-2" data-name="Group 592" transform="translate(84.253 157.792)" opacity="0.33">
                    <g id="Group_591-2" data-name="Group 591" transform="translate(0 0)">
                      <g id="Group_590-2" data-name="Group 590" clip-path="url(#clip-path-2)">
                        <path id="Path_3499-2" data-name="Path 3499" d="M29.582,63.657c-1.184-5.906-2.509-11.7-4.2-17.381A129.444,129.444,0,0,0,19.237,29.7a115.079,115.079,0,0,0-8.431-15.509A125.139,125.139,0,0,0,0,0,62.844,62.844,0,0,1,12.885,12.716a79.172,79.172,0,0,1,9.327,15.641,85.74,85.74,0,0,1,5.634,17.3,76.9,76.9,0,0,1,1.737,18" transform="translate(0 0)" fill="#ff6d5a"/>
                      </g>
                    </g>
                  </g>
                  <g id="Group_595-2" data-name="Group 595" transform="translate(94.766 201.348)" opacity="0.33">
                    <g id="Group_594-2" data-name="Group 594" transform="translate(0 0)">
                      <g id="Group_593-2" data-name="Group 593" clip-path="url(#clip-path-3)">
                        <path id="Path_3500-2" data-name="Path 3500" d="M19.355,41.2a147,147,0,0,0-7.73-21.543A106.565,106.565,0,0,0,0,0,55.412,55.412,0,0,1,13.528,18.78,64.62,64.62,0,0,1,19.355,41.2" transform="translate(0 0.001)" fill="#ff6d5a"/>
                      </g>
                    </g>
                  </g>
                  <path id="Path_3502-2" data-name="Path 3502" d="M0,148.468V11.625L20.914,0,5.229,147.047Z" transform="translate(67.517 1.765)" fill="#eb472a"/>
                  <path id="Path_3504-2" data-name="Path 3504" d="M0,148.468V11.625L20.914,0,5.229,147.047Z" transform="translate(61.828 0)" fill="#eb472a"/>
                  <path id="Path_3506-2" data-name="Path 3506" d="M24.274,0V158.833L0,172.326,18.2,1.649Z" transform="translate(58.169 197.591) rotate(169)" fill="#eb472a"/>
                  <path id="Path_3503-2" data-name="Path 3503" d="M44.849,0,0,15.994,6.446,26.051,58.9,15.994C58.9,8,50.509,0,44.849,0" transform="translate(40.637 130.84)" fill="#fff"/>
                  <path id="Path_3509-2" data-name="Path 3509" d="M.01,16.806s-.921-.691,14.5-6.216S51.578,0,51.578,0l2.532,4.6S34.773,7.367,23.492,10.59.01,16.806.01,16.806Z" transform="translate(44.31 137.553)" fill="#f8dcdc"/>
                  <path id="Path_3510-2" data-name="Path 3510" d="M55.155,0s.921.691-14.5,6.216S4.64,17.378,4.64,17.378L0,12.681S20.393,9.439,31.673,6.216,55.155,0,55.155,0Z" transform="translate(96.088 148.039) rotate(172)" fill="#f8dcdc"/>
                </g>
              </g>
            </g>
          </g>
          <g id="Group_610" data-name="Group 610" transform="translate(829.467 -2938.805)">
            <ellipse id="Ellipse_49" data-name="Ellipse 49" cx="6.92" cy="16.989" rx="6.92" ry="16.989" transform="translate(-663.337 3117.305)" fill="url(#linear-gradient)"/>
            <path id="Path_1196" data-name="Path 1196" d="M759.276,771.227l-50.336-.3v-.848c0-9.035,7.319-10.861,16.358-10.865h17.617c9.035,0,16.358,1.815,16.358,10.849Z" transform="translate(-1390.514 2383.91)" fill="url(#linear-gradient-2)"/>
            <path id="Path_1197" data-name="Path 1197" d="M658.785,581.977l-2.058-.148c-9.111-.654-15.452-3.876-18.857-9.583-6.505-10.9.449-26.629.761-27.3l.548-1.217h22.444ZM641.91,547.865c-1.388,3.663-4.945,14.779-.472,22.273,2.427,4.059,6.977,6.532,13.543,7.365l2.184-29.646Z" transform="translate(-1344.764 2517.419)" fill="url(#linear-gradient-3)"/>
            <path id="Path_1198" data-name="Path 1198" d="M846.419,581.911l-2.849-38.25h22.444l.548,1.217c.3.666,7.266,16.392.761,27.295-3.4,5.706-9.742,8.936-18.849,9.6Zm1.605-34.119,2.21,29.642c6.566-.837,11.112-3.313,13.539-7.376,4.474-7.5.9-18.61-.491-22.273Z" transform="translate(-1473.929 2517.462)" fill="url(#linear-gradient-4)"/>
            <path id="Path_1199" data-name="Path 1199" d="M723.459,596.549h0A31.144,31.144,0,0,1,692.3,565.419l-.023-49.389,62.281-.03.023,49.389A31.144,31.144,0,0,1,723.459,596.549Z" transform="translate(-1380.192 2534.6)" fill="url(#linear-gradient-5)"/>
            <ellipse id="Ellipse_53" data-name="Ellipse 53" cx="6.695" cy="16.434" rx="6.695" ry="16.434" transform="translate(-663.12 3116.906)" fill="#e2c5b1"/>
            <path id="Path_1213" data-name="Path 1213" d="M662.526,584.5l-1.99-.145c-8.81-.631-14.95-3.751-18.26-9.271-6.292-10.545.434-25.761.723-26.4l.529-1.179h21.7Zm-16.339-33c-1.343,3.542-4.789,14.3-.456,21.547,2.347,3.926,6.749,6.319,13.1,7.125l2.111-28.672Z" transform="translate(-1347.551 2515.083)" fill="#e2c5b1"/>
            <path id="Path_1214" data-name="Path 1214" d="M844.058,584.423l-2.758-37H863l.532,1.179c.289.643,7.03,15.856.761,26.4-3.287,5.52-9.423,8.643-18.233,9.286Zm1.552-33,2.138,28.675c6.349-.81,10.75-3.207,13.094-7.137,4.329-7.254.871-18-.475-21.547Z" transform="translate(-1472.523 2515.133)" fill="#e2c5b1"/>
            <g id="Group_403" data-name="Group 403" transform="translate(-707.938 3062.636)" opacity="0.1">
              <path id="Path_1242" data-name="Path 1242" d="M643.348,576.08c-6.292-10.545.434-25.761.723-26.4l.529-1.179h15.121l.065-.856H643.568l-.529,1.179c-.289.643-7.015,15.863-.723,26.4a16.387,16.387,0,0,0,4.12,4.626,16.32,16.32,0,0,1-3.089-3.77Z" transform="translate(-639.638 -547.64)" fill="#fff"/>
            </g>
            <path id="Path_1215" data-name="Path 1215" d="M668.62,460.02l.959.046-.084,3.9-.871.049Z" transform="translate(-1295.255 2602.532)" opacity="0.05"/>
            <rect id="Rectangle_65" data-name="Rectangle 65" width="1.035" height="3.998" transform="translate(-687.904 3062.579)" opacity="0.05"/>
            <path id="Path_1216" data-name="Path 1216" d="M764.38,693.46c-3.18,0-5.839,5.448-6.52,12.748a30.247,30.247,0,0,0,6.22.643h0a30.223,30.223,0,0,0,6.817-.761C770.2,698.839,767.553,693.456,764.38,693.46Z" transform="translate(-1420.824 2424.648)" opacity="0.1"/>
            <path id="Path_1217" data-name="Path 1217" d="M510.26,433.31h60.257v47.776a30.129,30.129,0,0,1-30.129,30.129h0a30.129,30.129,0,0,1-30.129-30.129V433.31Z" transform="translate(-1197.137 2619.082)" fill="#e2c5b1"/>
            <path id="Path_1218" data-name="Path 1218" d="M697.423,569.236,697.4,521.46H695l.019,47.776a30.129,30.129,0,0,0,30.14,30.114h0c.4,0,.8,0,1.2-.027A30.125,30.125,0,0,1,697.423,569.236Z" transform="translate(-1381.877 2531.217)" fill="#fff" opacity="0.1"/>
            <path id="Path_1219" data-name="Path 1219" d="M771.454,758.5H760c1.176,4.744,3.3,7.913,5.729,7.909S770.271,763.255,771.454,758.5Z" transform="translate(-1422.15 2384.35)" opacity="0.1"/>
            <path id="Path_1220" data-name="Path 1220" d="M759.763,770.208l-48.693.019h0c0-7.962,6.467-10.617,14.41-10.617h19.858c7.962,0,14.421,2.663,14.421,10.606Z" transform="translate(-1391.834 2383.662)" fill="#e2c5b1"/>
            <path id="Path_1221" data-name="Path 1221" d="M728.76,755.91h-1.9c-8.75,0-15.821,3.287-15.818,12.029h1.9C712.927,759.2,720.018,755.914,728.76,755.91Z" transform="translate(-1391.815 2385.955)" fill="#fff" opacity="0.1"/>
            <circle id="Ellipse_54" data-name="Ellipse 54" cx="12.067" cy="12.067" r="12.067" transform="translate(-669.062 3075.635)" fill="#fff"/>
          </g>
        </g>
      </g>
    </g>
    <text id="RECOGNITION" transform="translate(253.5 2626)" fill="#fff" font-size="22" font-family="FiraSans-Bold, Fira Sans" font-weight="700" letter-spacing="0.025em"><tspan x="-70" y="0">RECOGNITION</tspan></text>
  </g>
</svg>
