<svg xmlns="http://www.w3.org/2000/svg" xmlns:xlink="http://www.w3.org/1999/xlink" width="298.5" height="298.537" viewBox="0 0 298.5 298.537">
  <defs>
    <clipPath id="clip-path">
      <path id="Union_14" data-name="Union 14" d="M123.095,271.03a124.55,124.55,0,0,1-18.3-14.448,124.685,124.685,0,0,1-23.149-2.729,87.019,87.019,0,0,0-37.939.959,87.043,87.043,0,0,0,.959-37.942,124.608,124.608,0,0,1-2.726-23.157,125.3,125.3,0,0,1-14.433-18.268A87.172,87.172,0,0,0,0,149.282a87.172,87.172,0,0,0,27.505-26.164,125.3,125.3,0,0,1,14.439-18.286,125.273,125.273,0,0,1,2.711-23.146,87.183,87.183,0,0,0-.95-37.951,87.164,87.164,0,0,0,37.948.95,125.292,125.292,0,0,1,23.15-2.72A124.987,124.987,0,0,1,123.095,27.52,86.849,86.849,0,0,0,149.243,0a86.85,86.85,0,0,0,26.149,27.52,125.149,125.149,0,0,1,18.293,14.441,124.933,124.933,0,0,1,23.153,2.722,86.838,86.838,0,0,0,37.948-.968,86.859,86.859,0,0,0-.968,37.952,125.1,125.1,0,0,1,2.724,23.163,125.365,125.365,0,0,1,14.44,18.288A87.135,87.135,0,0,0,298.5,149.282a87.136,87.136,0,0,0-27.518,26.164,125.305,125.305,0,0,1-14.444,18.28,125.348,125.348,0,0,1-2.72,23.136,87.149,87.149,0,0,0,.959,37.961,87.126,87.126,0,0,0-37.958-.959,125.343,125.343,0,0,1-23.113,2.711,124.711,124.711,0,0,1-18.314,14.456,87.034,87.034,0,0,0-26.149,27.507A87.033,87.033,0,0,0,123.095,271.03Z" transform="translate(-2203.707 1057.375)" fill="#fff" stroke="rgba(0,0,0,0)" stroke-width="1"/>
    </clipPath>
    <clipPath id="clip-path-2">
      <rect id="Rectangle_149" data-name="Rectangle 149" width="29.607" height="63.657" fill="none"/>
    </clipPath>
    <clipPath id="clip-path-3">
      <rect id="Rectangle_150" data-name="Rectangle 150" width="19.355" height="41.197" fill="none"/>
    </clipPath>
  </defs>
  <g id="Group_614" data-name="Group 614" transform="translate(-104.5 -2378)">
    <g id="Mask_Group_1" data-name="Mask Group 1" transform="translate(2308.207 1320.625)" clip-path="url(#clip-path)">
      <g id="Group_584" data-name="Group 584" transform="translate(-2227.51 1042.58)">
        <g id="Group_598" data-name="Group 598" transform="translate(0)">
          <rect id="Rectangle_146" data-name="Rectangle 146" width="353.684" height="319.232" transform="translate(0.688)" fill="#4d0303"/>
          <g id="Group_401" data-name="Group 401" transform="translate(-2.15 18.881)">
            <path id="Path_1071" data-name="Path 1071" d="M498.086,247.832c6.58-7.113,19.857-5.673,29.568,3.311s12.846,21.388,5.6,29.221c-2.858,3.09-13.048-1.688-22.76-10.671s-15.267-18.771-12.409-21.861" transform="translate(-287.941 -130.22)" fill="#e2c5b1"/>
            <path id="Path_1072" data-name="Path 1072" d="M498.086,252.555c2.858-3.09,13.048,1.688,22.76,10.671S536.114,282,533.255,285.087s-13.048-1.688-22.76-10.671-15.267-18.771-12.409-21.861" transform="translate(-287.941 -134.943)" fill="#caac91"/>
            <path id="Path_1073" data-name="Path 1073" d="M518.1,332.15c0,9.69-10.725,17.648-23.954,17.648s-23.954-6.977-23.954-17.648c0-4.209,10.725-7.622,23.954-7.622S518.1,327.94,518.1,332.15" transform="translate(-272.487 -176.458)" fill="#e2c5b1"/>
            <path id="Path_1074" data-name="Path 1074" d="M518.1,332.15c0,4.209-10.725,7.622-23.954,7.622s-23.954-3.412-23.954-7.622,10.725-7.622,23.954-7.622S518.1,327.94,518.1,332.15" transform="translate(-272.487 -176.458)" fill="#cf5d42"/>
            <path id="Path_1075" data-name="Path 1075" d="M523.693,340.234a.148.148,0,0,1-.077-.022l-22.974-13.937a.149.149,0,0,1,.154-.254l22.974,13.937a.149.149,0,0,1-.077.276" transform="translate(-289.783 -177.296)" fill="#e2c5b1"/>
            <path id="Path_1076" data-name="Path 1076" d="M536.5,338.682a.148.148,0,0,1-.077-.022l-22.974-13.937a.149.149,0,0,1,.154-.254l22.974,13.937a.149.149,0,0,1-.077.276" transform="translate(-297.074 -176.413)" fill="#e2c5b1"/>
            <path id="Path_1077" data-name="Path 1077" d="M548,336.09a.148.148,0,0,1-.077-.021l-19.342-11.734a.148.148,0,1,1,.154-.254l19.342,11.733a.148.148,0,0,1-.077.275" transform="translate(-305.691 -176.192)" fill="#e2c5b1"/>
            <path id="Path_1078" data-name="Path 1078" d="M560.309,334.6a.148.148,0,0,1-.077-.022L545.268,325.5a.148.148,0,0,1,.154-.254l14.964,9.078a.149.149,0,0,1-.077.276" transform="translate(-315.192 -176.854)" fill="#e2c5b1"/>
            <path id="Path_1079" data-name="Path 1079" d="M511.275,342.951a.145.145,0,0,1-.077-.022l-22.974-13.937a.148.148,0,1,1,.154-.254l22.974,13.937a.149.149,0,0,1-.077.276" transform="translate(-282.713 -178.843)" fill="#e2c5b1"/>
            <path id="Path_1080" data-name="Path 1080" d="M501.186,346.831a.149.149,0,0,1-.077-.022l-22.974-13.937a.148.148,0,1,1,.154-.254l22.974,13.937a.149.149,0,0,1-.077.276" transform="translate(-276.968 -181.053)" fill="#e2c5b1"/>
            <path id="Path_1081" data-name="Path 1081" d="M493.813,352.264a.148.148,0,0,1-.077-.022l-22.974-13.937a.148.148,0,1,1,.154-.254l22.974,13.937a.149.149,0,0,1-.077.276" transform="translate(-272.77 -184.146)" fill="#e2c5b1"/>
            <path id="Path_1082" data-name="Path 1082" d="M571.525,409.6a.149.149,0,0,1-.141-.1L558.1,369.432a.149.149,0,0,1,.282-.093l13.283,40.069a.148.148,0,0,1-.094.188.157.157,0,0,1-.046.007" transform="translate(-322.535 -201.914)" fill="#e2c5b1"/>
            <path id="Path_1083" data-name="Path 1083" d="M465.11,409.6a.158.158,0,0,1-.047-.007.149.149,0,0,1-.094-.188l13.283-40.069a.149.149,0,0,1,.282.093L465.251,409.5a.148.148,0,0,1-.141.1" transform="translate(-269.508 -201.914)" fill="#e2c5b1"/>
            <path id="Path_1084" data-name="Path 1084" d="M522.942,331.386H511.4a2.014,2.014,0,0,1,0-4.029h11.542a2.014,2.014,0,1,1,0,4.029" transform="translate(-294.802 -178.069)" fill="#eeac5d"/>
            <path id="Path_1253" data-name="Path 1253" d="M23.122,14.234a.148.148,0,0,1-.077-.022L.072.276A.149.149,0,0,1,.226.022L23.2,13.958a.149.149,0,0,1-.077.276" transform="translate(204.949 156.304) rotate(-30)" fill="#e2c5b1"/>
            <path id="Path_1085" data-name="Path 1085" d="M500.192,343.8h-2.083c-.2,0-.364-.9-.364-2.014s.163-2.014.364-2.014h2.083c.2,0,.364.9.364,2.014s-.163,2.014-.364,2.014" transform="translate(-288.071 -185.139)" fill="#eeac5d"/>
            <path id="Path_1249" data-name="Path 1249" d="M500.192,343.8h-2.083c-.2,0-.364-.9-.364-2.014s.163-2.014.364-2.014h2.083c.2,0,.364.9.364,2.014s-.163,2.014-.364,2.014" transform="translate(-284.871 -185.139)" fill="#eeac5d"/>
            <path id="Path_1250" data-name="Path 1250" d="M500.192,343.8h-2.083c-.2,0-.364-.9-.364-2.014s.163-2.014.364-2.014h2.083c.2,0,.364.9.364,2.014s-.163,2.014-.364,2.014" transform="translate(-281.032 -185.139)" fill="#eeac5d"/>
            <path id="Path_1251" data-name="Path 1251" d="M500.192,343.8h-2.083c-.2,0-.364-.9-.364-2.014s.163-2.014.364-2.014h2.083c.2,0,.364.9.364,2.014s-.163,2.014-.364,2.014" transform="translate(-277.192 -185.139)" fill="#eeac5d"/>
            <path id="Path_1252" data-name="Path 1252" d="M500.192,343.8h-2.083c-.2,0-.364-.9-.364-2.014s.163-2.014.364-2.014h2.083c.2,0,.364.9.364,2.014s-.163,2.014-.364,2.014" transform="translate(-273.993 -185.139)" fill="#eeac5d"/>
          </g>
          <g id="Group_603" data-name="Group 603" transform="translate(0 38.018)">
            <g id="Group_600" data-name="Group 600" transform="translate(345.232 255.653) rotate(-180)">
              <g id="Group_602" data-name="Group 602" transform="translate(0 0)">
                <g id="Group_599" data-name="Group 599" transform="translate(199.223 0)">
                  <path id="Path_3492" data-name="Path 3492" d="M41.419,144.994,20.914,11.652,0,0,30.019,141.886Z" transform="translate(26.032 15.112)" fill="#c72b17"/>
                  <path id="Path_3508" data-name="Path 3508" d="M48.074,168.293,24.274,13.525,0,0,34.843,164.686Z" transform="translate(74.949 37.403) rotate(11)" fill="#c72b17"/>
                  <path id="Path_3493" data-name="Path 3493" d="M33.181,145.819,20.914,11.646,0,0,27.953,144.4Z" transform="translate(36.664 11.397)" fill="#eb472a"/>
                  <path id="Path_3505" data-name="Path 3505" d="M55.975,160.13,59.21,12.69,0,0,11.794,181.382Z" transform="translate(87.886 35.526) rotate(11)" fill="#eb472a"/>
                  <path id="Path_3494" data-name="Path 3494" d="M22.982,146.12,20.914,11.645,0,0,17.754,144.7Z" transform="translate(50.741 8.1)" fill="#c72b17"/>
                  <path id="Path_3495" data-name="Path 3495" d="M0,113.891C11.083,50.862,30.426,6,67.478,0V113.891Z" transform="translate(0 141.762)" fill="#c72b17"/>
                  <path id="Path_3496" data-name="Path 3496" d="M0,104.085C11.083,46.482,24.713,14.386,58.452,0V104.085Z" transform="translate(9.026 141.762)" fill="#eb472a"/>
                  <path id="Path_3497" data-name="Path 3497" d="M0,87.394C9.565,43.877,25.3,11.2,53.279,0V87.394Z" transform="translate(14.201 145.417)" fill="#c72b17"/>
                  <path id="Path_3498" data-name="Path 3498" d="M0,112.126C12.512,55.291,27.415,19.737,58.966,0V112.126Z" transform="translate(23.771 136.797)" fill="#eb472a"/>
                  <g id="Group_592" data-name="Group 592" transform="translate(32.149 157.792)" opacity="0.33">
                    <g id="Group_591" data-name="Group 591" transform="translate(0 0)">
                      <g id="Group_590" data-name="Group 590" clip-path="url(#clip-path-2)">
                        <path id="Path_3499" data-name="Path 3499" d="M.025,63.657c1.184-5.906,2.509-11.7,4.2-17.381A129.444,129.444,0,0,1,10.37,29.7,115.079,115.079,0,0,1,18.8,14.189,125.138,125.138,0,0,1,29.607,0,62.844,62.844,0,0,0,16.723,12.716,79.172,79.172,0,0,0,7.4,28.357a85.74,85.74,0,0,0-5.634,17.3,76.9,76.9,0,0,0-1.737,18" transform="translate(-0.001 0)" fill="#ff6d5a"/>
                      </g>
                    </g>
                  </g>
                  <g id="Group_595" data-name="Group 595" transform="translate(31.887 201.348)" opacity="0.33">
                    <g id="Group_594" data-name="Group 594" transform="translate(0 0)">
                      <g id="Group_593" data-name="Group 593" clip-path="url(#clip-path-3)">
                        <path id="Path_3500" data-name="Path 3500" d="M0,41.2A147,147,0,0,1,7.73,19.653,106.565,106.565,0,0,1,19.355,0,55.412,55.412,0,0,0,5.827,18.78,64.62,64.62,0,0,0,0,41.2" transform="translate(0 0.001)" fill="#ff6d5a"/>
                      </g>
                    </g>
                  </g>
                  <path id="Path_3502" data-name="Path 3502" d="M20.914,148.468V11.625L0,0,15.684,147.047Z" transform="translate(57.578 1.765)" fill="#eb472a"/>
                  <path id="Path_3504" data-name="Path 3504" d="M20.914,148.468V11.625L0,0,15.684,147.047Z" transform="translate(63.266 0)" fill="#eb472a"/>
                  <path id="Path_3506" data-name="Path 3506" d="M24.274,172.326V13.492L0,0,18.2,170.677Z" transform="translate(120.72 28.432) rotate(11)" fill="#eb472a"/>
                  <path id="Path_3503" data-name="Path 3503" d="M14.055,0,58.9,15.994,52.458,26.051,0,15.994C0,8,8.395,0,14.055,0" transform="translate(46.467 130.84)" fill="#fff"/>
                  <path id="Path_3509" data-name="Path 3509" d="M54.1,16.806s.921-.691-14.5-6.216S2.532,0,2.532,0L0,4.6S19.338,7.367,30.618,10.59,54.1,16.806,54.1,16.806Z" transform="translate(47.588 137.553)" fill="#f8dcdc"/>
                  <path id="Path_3510" data-name="Path 3510" d="M55.155,17.378s.921-.691-14.5-6.216S4.64,0,4.64,0L0,4.7s20.393,3.242,31.673,6.465S55.155,17.378,55.155,17.378Z" transform="translate(52.339 130.83) rotate(8)" fill="#f8dcdc"/>
                </g>
                <g id="Group_601" data-name="Group 601" transform="translate(0 0)">
                  <path id="Path_3492-2" data-name="Path 3492" d="M0,144.994,20.505,11.652,41.419,0,11.4,141.886Z" transform="translate(78.558 15.112)" fill="#c72b17"/>
                  <path id="Path_3508-2" data-name="Path 3508" d="M48.074,0l-23.8,154.768L0,168.293,34.843,3.607Z" transform="translate(103.171 202.604) rotate(169)" fill="#c72b17"/>
                  <path id="Path_3493-2" data-name="Path 3493" d="M0,145.819,12.267,11.646,33.181,0,5.227,144.4Z" transform="translate(76.164 11.397)" fill="#eb472a"/>
                  <path id="Path_3505-2" data-name="Path 3505" d="M55.975,21.252l3.236,147.44L0,181.382,11.794,0Z" transform="translate(92.732 213.576) rotate(169)" fill="#eb472a"/>
                  <path id="Path_3494-2" data-name="Path 3494" d="M0,146.12,2.068,11.645,22.982,0,5.227,144.7Z" transform="translate(72.285 8.1)" fill="#c72b17"/>
                  <path id="Path_3495-2" data-name="Path 3495" d="M67.478,113.891C56.4,50.862,37.053,6,0,0V113.891Z" transform="translate(78.53 141.762)" fill="#c72b17"/>
                  <path id="Path_3496-2" data-name="Path 3496" d="M58.452,104.085C47.369,46.482,33.739,14.386,0,0V104.085Z" transform="translate(78.53 141.762)" fill="#eb472a"/>
                  <path id="Path_3497-2" data-name="Path 3497" d="M53.279,87.394C43.715,43.877,27.98,11.2,0,0V87.394Z" transform="translate(78.528 145.417)" fill="#c72b17"/>
                  <path id="Path_3498-2" data-name="Path 3498" d="M58.966,112.126C46.454,55.291,31.551,19.737,0,0V112.126Z" transform="translate(63.271 136.797)" fill="#eb472a"/>
                  <g id="Group_592-2" data-name="Group 592" transform="translate(84.253 157.792)" opacity="0.33">
                    <g id="Group_591-2" data-name="Group 591" transform="translate(0 0)">
                      <g id="Group_590-2" data-name="Group 590" clip-path="url(#clip-path-2)">
                        <path id="Path_3499-2" data-name="Path 3499" d="M29.582,63.657c-1.184-5.906-2.509-11.7-4.2-17.381A129.444,129.444,0,0,0,19.237,29.7a115.079,115.079,0,0,0-8.431-15.509A125.139,125.139,0,0,0,0,0,62.844,62.844,0,0,1,12.885,12.716a79.172,79.172,0,0,1,9.327,15.641,85.74,85.74,0,0,1,5.634,17.3,76.9,76.9,0,0,1,1.737,18" transform="translate(0 0)" fill="#ff6d5a"/>
                      </g>
                    </g>
                  </g>
                  <g id="Group_595-2" data-name="Group 595" transform="translate(94.766 201.348)" opacity="0.33">
                    <g id="Group_594-2" data-name="Group 594" transform="translate(0 0)">
                      <g id="Group_593-2" data-name="Group 593" clip-path="url(#clip-path-3)">
                        <path id="Path_3500-2" data-name="Path 3500" d="M19.355,41.2a147,147,0,0,0-7.73-21.543A106.565,106.565,0,0,0,0,0,55.412,55.412,0,0,1,13.528,18.78,64.62,64.62,0,0,1,19.355,41.2" transform="translate(0 0.001)" fill="#ff6d5a"/>
                      </g>
                    </g>
                  </g>
                  <path id="Path_3502-2" data-name="Path 3502" d="M0,148.468V11.625L20.914,0,5.229,147.047Z" transform="translate(67.517 1.765)" fill="#eb472a"/>
                  <path id="Path_3504-2" data-name="Path 3504" d="M0,148.468V11.625L20.914,0,5.229,147.047Z" transform="translate(61.828 0)" fill="#eb472a"/>
                  <path id="Path_3506-2" data-name="Path 3506" d="M24.274,0V158.833L0,172.326,18.2,1.649Z" transform="translate(58.169 197.591) rotate(169)" fill="#eb472a"/>
                  <path id="Path_3503-2" data-name="Path 3503" d="M44.849,0,0,15.994,6.446,26.051,58.9,15.994C58.9,8,50.509,0,44.849,0" transform="translate(40.637 130.84)" fill="#fff"/>
                  <path id="Path_3509-2" data-name="Path 3509" d="M.01,16.806s-.921-.691,14.5-6.216S51.578,0,51.578,0l2.532,4.6S34.773,7.367,23.492,10.59.01,16.806.01,16.806Z" transform="translate(44.31 137.553)" fill="#f8dcdc"/>
                  <path id="Path_3510-2" data-name="Path 3510" d="M55.155,0s.921.691-14.5,6.216S4.64,17.378,4.64,17.378L0,12.681S20.393,9.439,31.673,6.216,55.155,0,55.155,0Z" transform="translate(96.088 148.039) rotate(172)" fill="#f8dcdc"/>
                </g>
              </g>
            </g>
          </g>
          <g id="Group_615" data-name="Group 615" transform="translate(112.322 103.918)">
            <path id="Path_1264" data-name="Path 1264" d="M588.989,413.429a1.939,1.939,0,0,0,.31-2.956l3.1-6.15-3.556.412-2.4,5.777a1.949,1.949,0,0,0,2.545,2.917Z" transform="translate(-546.284 -336.353)" fill="#e2c5b1"/>
            <path id="Path_1265" data-name="Path 1265" d="M486.767,513.792h-2.8L482.638,503h4.129Z" transform="translate(-419.163 -393.154)" fill="#e2c5b1"/>
            <path id="Path_1266" data-name="Path 1266" d="M702.462,691.239H693.44v-.114a3.512,3.512,0,0,1,3.511-3.511h5.511Z" transform="translate(-634.144 -567.889)" fill="#e2c5b1"/>
            <path id="Path_1267" data-name="Path 1267" d="M403.067,513.792h-2.8L398.938,503h4.13Z" transform="translate(-350.754 -393.154)" fill="#e2c5b1"/>
            <path id="Path_1268" data-name="Path 1268" d="M615.015,691.238h-9.022v-.114a3.512,3.512,0,0,1,3.511-3.511h5.511Z" transform="translate(-562.673 -567.888)" fill="#e2c5b1"/>
            <path id="Path_1269" data-name="Path 1269" d="M397.926,312.572l-2.739,6.309-2.259,36.265,5.706-.228,1.558-17.288,4.807-15.4,2.764,17.165,1.141,15.063,4.721.2,1.881-42.094Z" transform="translate(-345.842 -237.516)" fill="#e2c5b1"/>
            <path id="Path_1270" data-name="Path 1270" d="M658.392,272.694l-7.938.2-4.66,2.392-.256,17.65-2.906,12.186s18.16,1.25,20.67-.576l-2.967-13.922,3.979-15.045Z" transform="translate(-592.618 -228.771)" fill="#e2c5b1"/>
            <path id="Path_1271" data-name="Path 1271" d="M605.162,286.245l-.739-.5a6.474,6.474,0,0,0-3.966,5s-.692,2.048-1,3.456c-.348,1.615-8.043,16.449-8.043,16.449l4.607,1.322,8.446-13.659Z" transform="translate(-550.76 -239.439)" fill="#e2c5b1"/>
            <path id="Path_1272" data-name="Path 1272" d="M757.189,423.184a1.939,1.939,0,0,1,.518-2.927l-1.288-6.767,3.3,1.377.717,6.215a1.949,1.949,0,0,1-3.25,2.1Z" transform="translate(-685.617 -343.845)" fill="#e2c5b1"/>
            <path id="Path_1273" data-name="Path 1273" d="M744.978,288.4l.848-.276a6.474,6.474,0,0,1,2.434,5.9s.1,2.16,0,3.6c-.11,1.648,1.369,18.03,1.369,18.03h-4.793l-2.054-14.835Z" transform="translate(-674.476 -241.383)" fill="#e2c5b1"/>
            <path id="Path_1274" data-name="Path 1274" d="M690.331,207.543a5.5,5.5,0,1,1-5.5-5.5h0a5.489,5.489,0,0,1,5.5,5.475Z" transform="translate(-622.609 -171.025)" fill="#e2c5b1"/>
            <path id="Path_1275" data-name="Path 1275" d="M678.37,185.031c.645-1.386,1.892-1.112,2.983-.642,1.381-.306,2.7-1.224,4.184-.681,1.466,2.133,6.389,1.505,5.342,4.977,0,.832,1.565.348,1.292,1.71.83,2.622-3,7.588-5.192,6.542.543-1,1.784-3.257-.1-3.481-4.048,3.767-.418-7.173-5.5-3.992C679.691,191.005,677.385,186.573,678.37,185.031Z" transform="translate(-621.634 -155.903)" fill="#e2c5b1"/>
            <path id="Path_1288" data-name="Path 1288" d="M498.766,361.706a2.1,2.1,0,0,0-.211.254l-9.876-.242-1.152-2.105-3.4,1.324,1.677,3.925a1.593,1.593,0,0,0,1.657.956l11.158-1.348a2.091,2.091,0,1,0,.152-2.764Z" transform="translate(-463.066 -299.811)" fill="#e2c5b1"/>
            <path id="Path_1289" data-name="Path 1289" d="M154.372,512.8h3.247l1.545-12.525h-4.793Z" transform="translate(-150.867 -390.928)" fill="#e2c5b1"/>
            <path id="Path_1290" data-name="Path 1290" d="M383.519,693.572h6.4a4.076,4.076,0,0,1,4.075,4.075v.133H383.519Z" transform="translate(-380.842 -572.759)" fill="#e2c5b1"/>
            <path id="Path_1291" data-name="Path 1291" d="M293.764,508.487l2.986-1.276-3.5-12.125-4.407,1.883Z" transform="translate(-260.772 -386.687)" fill="#e2c5b1"/>
            <path id="Path_1292" data-name="Path 1292" d="M543.007,682.715l5.881-2.512h0a4.076,4.076,0,0,1,5.349,2.147l.052.122-9.629,4.113Z" transform="translate(-511.194 -561.564)" fill="#e2c5b1"/>
            <path id="Path_1293" data-name="Path 1293" d="M178.984,253.28l.235,3.805-6.864.735-7.182.769,2.114-5.778Z" transform="translate(-159.695 -188.671)" fill="#e2c5b1"/>
            <path id="Path_1294" data-name="Path 1294" d="M412.238,306.259c-.078-.031-7.831-3.046-12.593-.58l-.117.061-.95-4.676-.541-10.053,3.522-1.664.97-2.172,6.606-.391,1.358,1.862,4.622,1.515L412.352,306.3Z" transform="translate(-392.708 -240.285)" fill="#e2c5b1"/>
            <path id="Path_1295" data-name="Path 1295" d="M477.1,312.467l.817-6.42,1.861-.566.031.012a2.342,2.342,0,0,1,1.331,1.8c.266,1.344,2.266,9.7,2.287,9.789l.02.084-4.7,1.881Z" transform="translate(-457.327 -255.568)" fill="#e2c5b1"/>
            <path id="Path_1296" data-name="Path 1296" d="M410.112,451.231l6.258-1.284-10-27.6-3.423-9.414s-2.171-7.548-3.152-10.469l-.592-3.919L385.188,400.1s-3.914,5.748-2.725,15.117l-.538,35.214,6.258.321,5.242-35.515,9.2,19.469s2.9,8.308,4.974,10.109Z" transform="translate(-379.539 -331.632)" fill="#e2c5b1"/>
            <path id="Path_1297" data-name="Path 1297" d="M380.134,363.812a2.089,2.089,0,0,0-.33.018l-6.538-7.406.76-2.276-3.285-1.6-1.738,3.9a1.594,1.594,0,0,0,.425,1.865L378,365.58a2.091,2.091,0,1,0,2.13-1.768Z" transform="translate(-368.866 -294.038)" fill="#e2c5b1"/>
            <path id="Path_1298" data-name="Path 1298" d="M375.895,318.8l2.556-7.28c.287-.858.647-1.379,1.07-1.55a.66.66,0,0,1,.53,0l1.146,1.448,1.064,4.468-2.727,6.415Z" transform="translate(-374.611 -259.186)" fill="#e2c5b1"/>
            <path id="Path_1299" data-name="Path 1299" d="M414.405,224.013h-11.22a.872.872,0,0,1-.871-.87v-4.836a6.48,6.48,0,0,1,12.961,0v4.836A.872.872,0,0,1,414.405,224.013Z" transform="translate(-396.204 -179.023)" fill="#e2c5b1"/>
            <ellipse id="Ellipse_58" data-name="Ellipse 58" cx="4.751" cy="4.751" rx="4.751" ry="4.751" transform="translate(9.172 35.375)" fill="#e2c5b1"/>
            <path id="Path_1300" data-name="Path 1300" d="M431.457,226.579H424.6l-.07-.985-.352.985h-1.056l-.139-1.952-.7,1.952h-2.044v-.1a5.132,5.132,0,0,1,5.126-5.126h.967a5.132,5.132,0,0,1,5.126,5.126Z" transform="translate(-410.852 -186.811)" fill="#e2c5b1"/>
            <path id="Path_1301" data-name="Path 1301" d="M420.626,242.307a.887.887,0,0,1-.154-.014l-5.024-.886v-8.3h5.53l-.137.16c-1.9,2.222-.47,5.824.555,7.774a.858.858,0,0,1-.068.911A.867.867,0,0,1,420.626,242.307Z" transform="translate(-406.939 -196.413)" fill="#e2c5b1"/>
            <path id="Path_1302" data-name="Path 1302" d="M761.516,392.718a6.121,6.121,0,0,1-.943.022.206.206,0,0,0-.226.178l-.6,4.51a1.83,1.83,0,0,1-.388.893,1.947,1.947,0,0,0-.438,1.488v7.661s-.039,1.021.746,1.021a11.35,11.35,0,0,0,2.829,0s.628-.119.628-1.062v-7.543a1.846,1.846,0,0,0-.388-1.5,1.878,1.878,0,0,1-.376-.888l-.624-4.6A.206.206,0,0,0,761.516,392.718Z" transform="translate(-687.65 -326.867)" fill="#e2c5b1"/>
            <path id="Path_1303" data-name="Path 1303" d="M760.5,408.131a11.459,11.459,0,0,1-1.421-.088.764.764,0,0,1-.566-.232,1.412,1.412,0,0,1-.3-.924v-7.648a2.083,2.083,0,0,1,.468-1.579,1.7,1.7,0,0,0,.359-.829l.6-4.509a.337.337,0,0,1,.369-.29,5.967,5.967,0,0,0,.916-.022h0a.335.335,0,0,1,.356.289l.624,4.6a1.75,1.75,0,0,0,.35.826,1.969,1.969,0,0,1,.415,1.591v7.531c0,1.038-.726,1.187-.734,1.189A11.541,11.541,0,0,1,760.5,408.131Zm-.522-15.841a.078.078,0,0,0-.08.066l-.6,4.51a1.961,1.961,0,0,1-.415.957,1.826,1.826,0,0,0-.411,1.391v7.676a1.173,1.173,0,0,0,.229.74.51.51,0,0,0,.388.152h.016a11.228,11.228,0,0,0,2.8,0c.012,0,.515-.118.515-.933l0-7.566a1.713,1.713,0,0,0-.361-1.395,2.012,2.012,0,0,1-.4-.952l-.625-4.6a.077.077,0,0,0-.08-.066,6.273,6.273,0,0,1-.96.022Z" transform="translate(-687.073 -326.289)" fill="#e2c5b1"/>
            <path id="Path_1304" data-name="Path 1304" d="M527.932,301.749h.953a1.429,1.429,0,0,1,1.429,1.429v3.585a1.429,1.429,0,0,1-1.429,1.429h-.953a1.429,1.429,0,0,1-1.429-1.429v-3.585a1.429,1.429,0,0,1,1.429-1.429Z" transform="translate(-455.015 -228.67)" fill="#e2c5b1"/>
            <path id="Path_1305" data-name="Path 1305" d="M584.516,358.718a6.121,6.121,0,0,1-.943.022.206.206,0,0,0-.226.178l-.6,4.51a1.831,1.831,0,0,1-.388.893,1.947,1.947,0,0,0-.438,1.488v7.661s-.039,1.021.746,1.021a11.346,11.346,0,0,0,2.829,0s.628-.119.628-1.061v-7.543a1.845,1.845,0,0,0-.388-1.5,1.877,1.877,0,0,1-.376-.888l-.624-4.6A.206.206,0,0,0,584.516,358.718Z" transform="translate(-542.985 -299.078)" fill="#e2c5b1"/>
            <path id="Path_1306" data-name="Path 1306" d="M583.5,374.131a11.453,11.453,0,0,1-1.421-.088.764.764,0,0,1-.566-.232,1.413,1.413,0,0,1-.3-.924v-7.648a2.083,2.083,0,0,1,.468-1.579,1.7,1.7,0,0,0,.359-.829l.6-4.509a.337.337,0,0,1,.369-.29,5.971,5.971,0,0,0,.916-.022h0a.335.335,0,0,1,.356.288l.625,4.6a1.75,1.75,0,0,0,.35.826,1.969,1.969,0,0,1,.415,1.591v7.531c0,1.038-.726,1.187-.734,1.189A11.538,11.538,0,0,1,583.5,374.131Zm-.522-15.841a.078.078,0,0,0-.08.066l-.6,4.51a1.962,1.962,0,0,1-.415.957,1.825,1.825,0,0,0-.411,1.391v7.676a1.172,1.172,0,0,0,.229.74.51.51,0,0,0,.388.152h.016a11.226,11.226,0,0,0,2.8,0c.012,0,.515-.118.515-.933l0-7.566a1.713,1.713,0,0,0-.361-1.395,2.012,2.012,0,0,1-.4-.952l-.625-4.6a.077.077,0,0,0-.08-.066,6.268,6.268,0,0,1-.96.022Z" transform="translate(-542.409 -298.5)" fill="#e2c5b1"/>
            <path id="Path_1307" data-name="Path 1307" d="M350.932,267.749h.953a1.429,1.429,0,0,1,1.429,1.429v3.585a1.429,1.429,0,0,1-1.429,1.429h-.953a1.429,1.429,0,0,1-1.429-1.429v-3.585a1.429,1.429,0,0,1,1.429-1.429Z" transform="translate(-310.351 -200.881)" fill="#e2c5b1"/>
            <path id="Path_1308" data-name="Path 1308" d="M554.516,322.718a6.121,6.121,0,0,1-.943.022.206.206,0,0,0-.226.178l-.6,4.51a1.831,1.831,0,0,1-.388.893,1.947,1.947,0,0,0-.438,1.488v7.661s-.039,1.021.746,1.021a11.343,11.343,0,0,0,2.829,0s.628-.119.628-1.061v-7.543a1.845,1.845,0,0,0-.388-1.5,1.877,1.877,0,0,1-.376-.888l-.625-4.6A.206.206,0,0,0,554.516,322.718Z" transform="translate(-518.466 -269.655)" fill="#e2c5b1"/>
            <path id="Path_1309" data-name="Path 1309" d="M553.5,338.131a11.448,11.448,0,0,1-1.421-.088.764.764,0,0,1-.566-.232,1.412,1.412,0,0,1-.3-.924v-7.648a2.084,2.084,0,0,1,.468-1.579,1.7,1.7,0,0,0,.359-.829l.6-4.509a.337.337,0,0,1,.368-.29,5.971,5.971,0,0,0,.916-.022h0a.335.335,0,0,1,.356.288l.625,4.6a1.749,1.749,0,0,0,.35.826,1.97,1.97,0,0,1,.415,1.591v7.531c0,1.038-.726,1.187-.734,1.189A11.535,11.535,0,0,1,553.5,338.131Zm-.522-15.841a.077.077,0,0,0-.08.066l-.6,4.51a1.961,1.961,0,0,1-.415.957,1.825,1.825,0,0,0-.411,1.391v7.676a1.172,1.172,0,0,0,.229.74.51.51,0,0,0,.388.152h.016a11.228,11.228,0,0,0,2.8,0c.012,0,.515-.118.515-.933l0-7.566a1.713,1.713,0,0,0-.361-1.395,2.012,2.012,0,0,1-.4-.952l-.625-4.6a.077.077,0,0,0-.08-.066,6.278,6.278,0,0,1-.96.022h-.011Z" transform="translate(-517.889 -269.077)" fill="#e2c5b1"/>
            <path id="Path_1310" data-name="Path 1310" d="M320.932,231.749h.953a1.429,1.429,0,0,1,1.429,1.429v3.585a1.429,1.429,0,0,1-1.429,1.429h-.953a1.429,1.429,0,0,1-1.429-1.429v-3.585a1.429,1.429,0,0,1,1.429-1.429Z" transform="translate(-285.831 -171.458)" fill="#e2c5b1"/>
            <ellipse id="Ellipse_59" data-name="Ellipse 59" cx="4.567" cy="4.567" rx="4.567" ry="4.567" transform="translate(11.922 16.66)" fill="#e2c5b1"/>
            <ellipse id="Ellipse_60" data-name="Ellipse 60" cx="4.567" cy="4.567" rx="4.567" ry="4.567" transform="translate(60.53 0)" fill="#e2c5b1"/>
            <ellipse id="Ellipse_61" data-name="Ellipse 61" cx="3.288" cy="3.288" rx="3.288" ry="3.288" transform="translate(35.259 32.02)" fill="#e2c5b1"/>
          </g>
          <g id="Group_616" data-name="Group 616" transform="matrix(0.996, 0.087, -0.087, 0.996, 188.842, 135.101)">
            <path id="Path_1254" data-name="Path 1254" d="M1.637,0A6.117,6.117,0,0,0,2.58.023.206.206,0,0,1,2.806.2l.6,4.51a1.83,1.83,0,0,0,.388.893,1.947,1.947,0,0,1,.438,1.488v7.661s.039,1.021-.746,1.021a11.348,11.348,0,0,1-2.829,0S.03,15.655.03,14.713V7.17a1.845,1.845,0,0,1,.388-1.5,1.877,1.877,0,0,0,.376-.888l.624-4.6A.206.206,0,0,1,1.637,0Z" transform="translate(0.13 16.009)" fill="#e2c5b1"/>
            <path id="Path_1255" data-name="Path 1255" d="M2.2,16.121a11.466,11.466,0,0,0,1.421-.088.764.764,0,0,0,.566-.232,1.412,1.412,0,0,0,.3-.924V7.229A2.084,2.084,0,0,0,4.024,5.65a1.7,1.7,0,0,1-.359-.829L3.064.313A.337.337,0,0,0,2.7.023,5.964,5.964,0,0,1,1.779,0h0A.335.335,0,0,0,1.42.289L.8,4.894a1.75,1.75,0,0,1-.35.826A1.969,1.969,0,0,0,.03,7.311v7.531c0,1.038.726,1.187.734,1.189a11.533,11.533,0,0,0,1.441.09ZM2.727.28a.077.077,0,0,1,.08.066l.6,4.511a1.96,1.96,0,0,0,.415.957,1.825,1.825,0,0,1,.411,1.391v7.676a1.173,1.173,0,0,1-.229.74.51.51,0,0,1-.388.152H3.6a11.231,11.231,0,0,1-2.8,0c-.012,0-.515-.118-.515-.933l0-7.566A1.713,1.713,0,0,1,.647,5.881a2.012,2.012,0,0,0,.4-.952l.625-4.6a.077.077,0,0,1,.08-.066,6.277,6.277,0,0,0,.96.022h.011Z" transform="translate(0 15.88)" fill="#e2c5b1"/>
            <path id="Path_1256" data-name="Path 1256" d="M2.382,0H1.429A1.429,1.429,0,0,0,0,1.429V5.014A1.429,1.429,0,0,0,1.429,6.443h.953A1.429,1.429,0,0,0,3.81,5.014V1.429A1.429,1.429,0,0,0,2.382,0Z" transform="translate(0.334 23.239)" fill="#e2c5b1"/>
            <path id="Path_1257" data-name="Path 1257" d="M4.585,11.983H1.478L0,0H4.585Z" transform="translate(15.649 77.105)" fill="#e2c5b1"/>
            <path id="Path_1258" data-name="Path 1258" d="M10.017,0H3.9A3.9,3.9,0,0,0,0,3.9v.127H10.017Z" transform="translate(10.801 88.699) rotate(-7)" fill="#e2c5b1"/>
            <path id="Path_1259" data-name="Path 1259" d="M12.195,0s1.346,1.522-.883,7.455l.393,32.53-7.225-.141L2.891,23.976,0,.82Z" transform="translate(9.992 46.289)" fill="#e2c5b1"/>
            <path id="Path_1260" data-name="Path 1260" d="M1.043,38.981l.079-.012c9.242-1.41,16.217-2.761,16.286-2.774l.087-.017-2.423-5.893c.019-.616.544-17.908-.46-22.876A7.262,7.262,0,0,0,8.537,1.737L8.012,0,1.39,3.446.235,7.421,0,18.317Z" transform="translate(6.471 11.805)" fill="#e2c5b1"/>
            <path id="Path_1261" data-name="Path 1261" d="M2.17,0A2.162,2.162,0,0,1,3.758.695H14.889l4.077.868L18.3,6.726,3.792,3.606A2.169,2.169,0,1,1,2.17,0Z" transform="translate(1.356 28.361)" fill="#e2c5b1"/>
            <ellipse id="Ellipse_56" data-name="Ellipse 56" cx="5.365" cy="5.365" rx="5.365" ry="5.365" transform="translate(6.002 14.561) rotate(-118.663)" fill="#e2c5b1"/>
            <path id="Path_1262" data-name="Path 1262" d="M10.846,2.98l.26-.523L9.8,1.806A3.836,3.836,0,0,0,5.742.117C3.129.777,1.954,1.172,1.954,1.172L.649,1.829l.655.652-1.175.4.785.39L0,3.791.492,6.483s.817-2.042,2.387-1.261,4.443-.4,4.443-.4l2.5,4.83s.515-1.693,1.433-1.242C11.25,8.406,13.6,4.672,10.846,2.98Z" transform="translate(2.336 0.012)" fill="#e2c5b1"/>
            <path id="Path_1263" data-name="Path 1263" d="M14.188,21.753l1.273-3.787.308-12.623-.542-1.791a5,5,0,1,0-9.45,3.269l2.907,7.45-.148.287-6.3-.051L0,18.535Z" transform="translate(5.394 14.302)" fill="#e2c5b1"/>
          </g>
          <g id="Group_408" data-name="Group 408" transform="translate(-6.952 -56.242) rotate(-14)">
            <path id="Path_1245" data-name="Path 1245" d="M124.6,242.662l13.86-19.766-24.048-2.121Z" transform="translate(13.279 -32.098)" fill="#e2c5b1"/>
            <path id="Path_1246" data-name="Path 1246" d="M169.7,243.06l10.771-21.605-24.1,1.474Z" transform="translate(7.788 -32.187)" fill="#e2c5b1"/>
            <path id="Path_1247" data-name="Path 1247" d="M213.414,236.473l7.449-22.964-23.612,5.031Z" transform="translate(2.44 -31.147)" fill="#e2c5b1"/>
            <path id="Path_1243" data-name="Path 1243" d="M36.089,218.816,55.6,204.6,33.529,194.81Z" transform="translate(23.864 -28.7)" fill="#e2c5b1"/>
            <path id="Path_1244" data-name="Path 1244" d="M77.679,233.572l17.185-16.955-23.276-6.4Z" transform="translate(18.883 -30.716)" fill="#e2c5b1"/>
            <path id="Path_1248" data-name="Path 1248" d="M135.441,217.891a230.38,230.38,0,0,1-25.753-1.443,232.019,232.019,0,0,1-49.027-11.005A231.679,231.679,0,0,1,15.115,184.1a.3.3,0,1,1,.312-.511,229.013,229.013,0,0,0,195.2,20.983.3.3,0,1,1,.2.566,229.308,229.308,0,0,1-50.469,11.4,229.318,229.318,0,0,1-24.913,1.354" transform="translate(26.292 -27.225)" fill="#e2c5b1"/>
          </g>
        </g>
      </g>
    </g>
    <text id="Venues" transform="translate(253.5 2626)" fill="#fff" font-size="22" font-family="FiraSans-Bold, Fira Sans" font-weight="700" letter-spacing="0.025em"><tspan x="-39" y="0">VENUES</tspan></text>
  </g>
</svg>
