<svg xmlns="http://www.w3.org/2000/svg" xmlns:xlink="http://www.w3.org/1999/xlink" width="298.5" height="298.537" viewBox="0 0 298.5 298.537">
  <defs>
    <clipPath id="clip-path">
      <path id="Union_14" data-name="Union 14" d="M123.095,271.03a124.55,124.55,0,0,1-18.3-14.448,124.685,124.685,0,0,1-23.149-2.729,87.019,87.019,0,0,0-37.939.959,87.043,87.043,0,0,0,.959-37.942,124.608,124.608,0,0,1-2.726-23.157,125.3,125.3,0,0,1-14.433-18.268A87.172,87.172,0,0,0,0,149.282a87.172,87.172,0,0,0,27.505-26.164,125.3,125.3,0,0,1,14.439-18.286,125.273,125.273,0,0,1,2.711-23.146,87.183,87.183,0,0,0-.95-37.951,87.164,87.164,0,0,0,37.948.95,125.292,125.292,0,0,1,23.15-2.72A124.987,124.987,0,0,1,123.095,27.52,86.849,86.849,0,0,0,149.243,0a86.85,86.85,0,0,0,26.149,27.52,125.149,125.149,0,0,1,18.293,14.441,124.933,124.933,0,0,1,23.153,2.722,86.838,86.838,0,0,0,37.948-.968,86.859,86.859,0,0,0-.968,37.952,125.1,125.1,0,0,1,2.724,23.163,125.365,125.365,0,0,1,14.44,18.288A87.135,87.135,0,0,0,298.5,149.282a87.136,87.136,0,0,0-27.518,26.164,125.305,125.305,0,0,1-14.444,18.28,125.348,125.348,0,0,1-2.72,23.136,87.149,87.149,0,0,0,.959,37.961,87.126,87.126,0,0,0-37.958-.959,125.343,125.343,0,0,1-23.113,2.711,124.711,124.711,0,0,1-18.314,14.456,87.034,87.034,0,0,0-26.149,27.507A87.033,87.033,0,0,0,123.095,271.03Z" transform="translate(-2203.707 1057.375)" fill="#fff" stroke="rgba(0,0,0,0)" stroke-width="1"/>
    </clipPath>
    <clipPath id="clip-path-2">
      <rect id="Rectangle_149" data-name="Rectangle 149" width="29.607" height="63.657" fill="none"/>
    </clipPath>
    <clipPath id="clip-path-3">
      <rect id="Rectangle_150" data-name="Rectangle 150" width="19.355" height="41.197" fill="none"/>
    </clipPath>
    <linearGradient id="linear-gradient" x1="0.5" y1="1" x2="0.5" gradientUnits="objectBoundingBox">
      <stop offset="0" stop-color="gray" stop-opacity="0.251"/>
      <stop offset="0.535" stop-color="gray" stop-opacity="0.122"/>
      <stop offset="1" stop-color="gray" stop-opacity="0.102"/>
    </linearGradient>
  </defs>
  <g id="Group_607" data-name="Group 607" transform="translate(-104.5 -2378)">
    <g id="Mask_Group_1" data-name="Mask Group 1" transform="translate(2308.207 1320.625)" clip-path="url(#clip-path)">
      <g id="Group_584" data-name="Group 584" transform="translate(-2227.51 1042.58)">
        <g id="Group_598" data-name="Group 598" transform="translate(0)">
          <rect id="Rectangle_146" data-name="Rectangle 146" width="353.684" height="319.232" transform="translate(0.688)" fill="#4d0303"/>
          <g id="Group_603" data-name="Group 603" transform="translate(0 38.018)">
            <g id="Group_600" data-name="Group 600" transform="translate(345.232 255.653) rotate(-180)">
              <g id="Group_602" data-name="Group 602" transform="translate(0 0)">
                <g id="Group_599" data-name="Group 599" transform="translate(199.223 0)">
                  <path id="Path_3492" data-name="Path 3492" d="M41.419,144.994,20.914,11.652,0,0,30.019,141.886Z" transform="translate(26.032 15.112)" fill="#c72b17"/>
                  <path id="Path_3508" data-name="Path 3508" d="M48.074,168.293,24.274,13.525,0,0,34.843,164.686Z" transform="translate(74.949 37.403) rotate(11)" fill="#c72b17"/>
                  <path id="Path_3493" data-name="Path 3493" d="M33.181,145.819,20.914,11.646,0,0,27.953,144.4Z" transform="translate(36.664 11.397)" fill="#eb472a"/>
                  <path id="Path_3505" data-name="Path 3505" d="M55.975,160.13,59.21,12.69,0,0,11.794,181.382Z" transform="translate(87.886 35.526) rotate(11)" fill="#eb472a"/>
                  <path id="Path_3494" data-name="Path 3494" d="M22.982,146.12,20.914,11.645,0,0,17.754,144.7Z" transform="translate(50.741 8.1)" fill="#c72b17"/>
                  <path id="Path_3495" data-name="Path 3495" d="M0,113.891C11.083,50.862,30.426,6,67.478,0V113.891Z" transform="translate(0 141.762)" fill="#c72b17"/>
                  <path id="Path_3496" data-name="Path 3496" d="M0,104.085C11.083,46.482,24.713,14.386,58.452,0V104.085Z" transform="translate(9.026 141.762)" fill="#eb472a"/>
                  <path id="Path_3497" data-name="Path 3497" d="M0,87.394C9.565,43.877,25.3,11.2,53.279,0V87.394Z" transform="translate(14.201 145.417)" fill="#c72b17"/>
                  <path id="Path_3498" data-name="Path 3498" d="M0,112.126C12.512,55.291,27.415,19.737,58.966,0V112.126Z" transform="translate(23.771 136.797)" fill="#eb472a"/>
                  <g id="Group_592" data-name="Group 592" transform="translate(32.149 157.792)" opacity="0.33">
                    <g id="Group_591" data-name="Group 591" transform="translate(0 0)">
                      <g id="Group_590" data-name="Group 590" clip-path="url(#clip-path-2)">
                        <path id="Path_3499" data-name="Path 3499" d="M.025,63.657c1.184-5.906,2.509-11.7,4.2-17.381A129.444,129.444,0,0,1,10.37,29.7,115.079,115.079,0,0,1,18.8,14.189,125.138,125.138,0,0,1,29.607,0,62.844,62.844,0,0,0,16.723,12.716,79.172,79.172,0,0,0,7.4,28.357a85.74,85.74,0,0,0-5.634,17.3,76.9,76.9,0,0,0-1.737,18" transform="translate(-0.001 0)" fill="#ff6d5a"/>
                      </g>
                    </g>
                  </g>
                  <g id="Group_595" data-name="Group 595" transform="translate(31.887 201.348)" opacity="0.33">
                    <g id="Group_594" data-name="Group 594" transform="translate(0 0)">
                      <g id="Group_593" data-name="Group 593" clip-path="url(#clip-path-3)">
                        <path id="Path_3500" data-name="Path 3500" d="M0,41.2A147,147,0,0,1,7.73,19.653,106.565,106.565,0,0,1,19.355,0,55.412,55.412,0,0,0,5.827,18.78,64.62,64.62,0,0,0,0,41.2" transform="translate(0 0.001)" fill="#ff6d5a"/>
                      </g>
                    </g>
                  </g>
                  <path id="Path_3502" data-name="Path 3502" d="M20.914,148.468V11.625L0,0,15.684,147.047Z" transform="translate(57.578 1.765)" fill="#eb472a"/>
                  <path id="Path_3504" data-name="Path 3504" d="M20.914,148.468V11.625L0,0,15.684,147.047Z" transform="translate(63.266 0)" fill="#eb472a"/>
                  <path id="Path_3506" data-name="Path 3506" d="M24.274,172.326V13.492L0,0,18.2,170.677Z" transform="translate(120.72 28.432) rotate(11)" fill="#eb472a"/>
                  <path id="Path_3503" data-name="Path 3503" d="M14.055,0,58.9,15.994,52.458,26.051,0,15.994C0,8,8.395,0,14.055,0" transform="translate(46.467 130.84)" fill="#fff"/>
                  <path id="Path_3509" data-name="Path 3509" d="M54.1,16.806s.921-.691-14.5-6.216S2.532,0,2.532,0L0,4.6S19.338,7.367,30.618,10.59,54.1,16.806,54.1,16.806Z" transform="translate(47.588 137.553)" fill="#f8dcdc"/>
                  <path id="Path_3510" data-name="Path 3510" d="M55.155,17.378s.921-.691-14.5-6.216S4.64,0,4.64,0L0,4.7s20.393,3.242,31.673,6.465S55.155,17.378,55.155,17.378Z" transform="translate(52.339 130.83) rotate(8)" fill="#f8dcdc"/>
                </g>
                <g id="Group_601" data-name="Group 601" transform="translate(0 0)">
                  <path id="Path_3492-2" data-name="Path 3492" d="M0,144.994,20.505,11.652,41.419,0,11.4,141.886Z" transform="translate(78.558 15.112)" fill="#c72b17"/>
                  <path id="Path_3508-2" data-name="Path 3508" d="M48.074,0l-23.8,154.768L0,168.293,34.843,3.607Z" transform="translate(103.171 202.604) rotate(169)" fill="#c72b17"/>
                  <path id="Path_3493-2" data-name="Path 3493" d="M0,145.819,12.267,11.646,33.181,0,5.227,144.4Z" transform="translate(76.164 11.397)" fill="#eb472a"/>
                  <path id="Path_3505-2" data-name="Path 3505" d="M55.975,21.252l3.236,147.44L0,181.382,11.794,0Z" transform="translate(92.732 213.576) rotate(169)" fill="#eb472a"/>
                  <path id="Path_3494-2" data-name="Path 3494" d="M0,146.12,2.068,11.645,22.982,0,5.227,144.7Z" transform="translate(72.285 8.1)" fill="#c72b17"/>
                  <path id="Path_3495-2" data-name="Path 3495" d="M67.478,113.891C56.4,50.862,37.053,6,0,0V113.891Z" transform="translate(78.53 141.762)" fill="#c72b17"/>
                  <path id="Path_3496-2" data-name="Path 3496" d="M58.452,104.085C47.369,46.482,33.739,14.386,0,0V104.085Z" transform="translate(78.53 141.762)" fill="#eb472a"/>
                  <path id="Path_3497-2" data-name="Path 3497" d="M53.279,87.394C43.715,43.877,27.98,11.2,0,0V87.394Z" transform="translate(78.528 145.417)" fill="#c72b17"/>
                  <path id="Path_3498-2" data-name="Path 3498" d="M58.966,112.126C46.454,55.291,31.551,19.737,0,0V112.126Z" transform="translate(63.271 136.797)" fill="#eb472a"/>
                  <g id="Group_592-2" data-name="Group 592" transform="translate(84.253 157.792)" opacity="0.33">
                    <g id="Group_591-2" data-name="Group 591" transform="translate(0 0)">
                      <g id="Group_590-2" data-name="Group 590" clip-path="url(#clip-path-2)">
                        <path id="Path_3499-2" data-name="Path 3499" d="M29.582,63.657c-1.184-5.906-2.509-11.7-4.2-17.381A129.444,129.444,0,0,0,19.237,29.7a115.079,115.079,0,0,0-8.431-15.509A125.139,125.139,0,0,0,0,0,62.844,62.844,0,0,1,12.885,12.716a79.172,79.172,0,0,1,9.327,15.641,85.74,85.74,0,0,1,5.634,17.3,76.9,76.9,0,0,1,1.737,18" transform="translate(0 0)" fill="#ff6d5a"/>
                      </g>
                    </g>
                  </g>
                  <g id="Group_595-2" data-name="Group 595" transform="translate(94.766 201.348)" opacity="0.33">
                    <g id="Group_594-2" data-name="Group 594" transform="translate(0 0)">
                      <g id="Group_593-2" data-name="Group 593" clip-path="url(#clip-path-3)">
                        <path id="Path_3500-2" data-name="Path 3500" d="M19.355,41.2a147,147,0,0,0-7.73-21.543A106.565,106.565,0,0,0,0,0,55.412,55.412,0,0,1,13.528,18.78,64.62,64.62,0,0,1,19.355,41.2" transform="translate(0 0.001)" fill="#ff6d5a"/>
                      </g>
                    </g>
                  </g>
                  <path id="Path_3502-2" data-name="Path 3502" d="M0,148.468V11.625L20.914,0,5.229,147.047Z" transform="translate(67.517 1.765)" fill="#eb472a"/>
                  <path id="Path_3504-2" data-name="Path 3504" d="M0,148.468V11.625L20.914,0,5.229,147.047Z" transform="translate(61.828 0)" fill="#eb472a"/>
                  <path id="Path_3506-2" data-name="Path 3506" d="M24.274,0V158.833L0,172.326,18.2,1.649Z" transform="translate(58.169 197.591) rotate(169)" fill="#eb472a"/>
                  <path id="Path_3503-2" data-name="Path 3503" d="M44.849,0,0,15.994,6.446,26.051,58.9,15.994C58.9,8,50.509,0,44.849,0" transform="translate(40.637 130.84)" fill="#fff"/>
                  <path id="Path_3509-2" data-name="Path 3509" d="M.01,16.806s-.921-.691,14.5-6.216S51.578,0,51.578,0l2.532,4.6S34.773,7.367,23.492,10.59.01,16.806.01,16.806Z" transform="translate(44.31 137.553)" fill="#f8dcdc"/>
                  <path id="Path_3510-2" data-name="Path 3510" d="M55.155,0s.921.691-14.5,6.216S4.64,17.378,4.64,17.378L0,12.681S20.393,9.439,31.673,6.216,55.155,0,55.155,0Z" transform="translate(96.088 148.039) rotate(172)" fill="#f8dcdc"/>
                </g>
              </g>
            </g>
          </g>
          <g id="Group_608" data-name="Group 608" transform="translate(-517.871 -2339.678)">
            <path id="Path_1174" data-name="Path 1174" d="M761.436,283.929c-.4-1.024.171-1.536.4-2.446a13.394,13.394,0,0,0-.512-3.754s-2.389-9.84-3.128-11.774a3.555,3.555,0,0,0-1.672-1.759c-.046-.251-.113-.413-.2-.459a15.891,15.891,0,0,0-3.394-1.243,5.546,5.546,0,0,0-.723-.978,2.313,2.313,0,0,0,.258-1.2c-.07-1.073-.882-2.035-.777-3.1a13.3,13.3,0,0,1,.9-2.261,2.659,2.659,0,0,0-.3-2.1l.5.537a1.886,1.886,0,0,0-.141-2.279c-.533-.589-1.424-.809-1.837-1.487-.425-.7-.2-1.643-.6-2.353-.984-1.739-3.5-.506-5.012-1.113a4.163,4.163,0,0,0-1.789-.5,6.988,6.988,0,0,0-1.745.326,3.687,3.687,0,0,0-2,1.433,1.239,1.239,0,0,1,.156-.149.808.808,0,0,1,1.2.16.708.708,0,0,1,.056.337,1.586,1.586,0,0,1-.919,1.144,3.453,3.453,0,0,0-1.228.889c-.476.695-.2,1.627-.2,2.469a3.579,3.579,0,0,1-1.356,2.779l1.605-.656a12.13,12.13,0,0,0-1.482,4.347l2.17-1.793a9.544,9.544,0,0,0-1.425,4.236l1.742-1.785a.881.881,0,0,1,.115.458l-.182.7q-.1.209-.213.407c-.28.481-.57,1.074-.308,1.565h0a3.438,3.438,0,0,1-1.618,2.309,2.7,2.7,0,0,0,2.563-1.224,2.29,2.29,0,0,0,.272.413l.089.111-.256.171-.686.457s-4.493.91-4.209,2.616l.041.248-1.293,2.2-1.877,6.371s-.967,2.048-.8,2.9a14.077,14.077,0,0,1,0,2.73c0,1.536-.739,2.161,0,3.413s2.958,4.892,2.958,4.892l.487.365a2.273,2.273,0,0,0,.025.658c.455,2.275,4.721,24.06,4.721,24.06s-2.161,17.235,2.218,18.315c.549.136,1.089.259,1.613.368l.662,4.353-.4,5.517s-3.015,6.826,2.5,7.224,3.015-5.915,3.015-5.915a3,3,0,0,0,.341-1.763c-.056-.506-.53-3.141-.994-5.675,2.094-.251,1.7-2.473,1.423-3.45a.566.566,0,0,0,.254-.316,9.7,9.7,0,0,0-.35-2.37c-.217-1.243-.588-3.256-.84-4.62l1.361.222,5.745-33.673s.038-.536.021-1.32a21.314,21.314,0,0,1,2.425-1.069c1.877-.739,2.616-3.47,3.242-4.607S761.834,284.953,761.436,283.929Zm-20.4-21.44a1.216,1.216,0,0,1,.629-.213c-.049.265-.5.342-.885.48a1.127,1.127,0,0,1,.256-.267Zm-2.866,16.946c.461.757-.374,2.809-1.125,4.437-.431-.371-.88-.254-.353-1.308a5.35,5.35,0,0,0,.626-2.161,2.083,2.083,0,0,1,.627-1.483,2.976,2.976,0,0,0,.226.516Zm-1.726,6.534c.261-.106.656-.269,1.189-.451-.255.335-.547.735-.841,1.171a.881.881,0,0,1-.349-.72Zm18.449.746c-.346-.367-.625-.7-.855-.99q.644.169,1.31.364a1.558,1.558,0,0,0,.663-.044c.02.393.02.954.02.954l-.623.431a3.656,3.656,0,0,0-.515-.716Zm1.765-1.973-.021.018a3.788,3.788,0,0,0-.152-.662,24.89,24.89,0,0,1-.678-5.042l1.076,3.62s.057,1.82-.226,2.066Z" transform="translate(-69.255 2211.434)" fill="#e2c5b1"/>
            <path id="Path_1175" data-name="Path 1175" d="M621.355,244.8s-5.835-10.03-6.018-11.124-3.1-3.1-3.1-3.1a6.036,6.036,0,0,0-4.354-1.3c.648-.536-1.666-.9-1.846-1.257s-.729-.365-1.459-.912-2.55-.091-2.55-.091a6.721,6.721,0,0,1-.566-1.817,5.085,5.085,0,0,0,1.2-3.289c0-.013,0-.026,0-.039.046.072.093.145.139.22.342-2.046.945-3.747-.2-5.614a6.294,6.294,0,0,0-3.58-2.737l-1.095.876.426-1.021a5.793,5.793,0,0,0-1.082-.063l-.985,1.266.408-1.223a6.234,6.234,0,0,0-4.3,2.558,5.524,5.524,0,0,0,.063,6.142c0-.013.007-.025.012-.038a5.1,5.1,0,0,0,2.609,4.133l.31,2.478h0a1.7,1.7,0,0,1-1.015.448c-.547,0-1.094,1.459-1.094,1.459s-.31.156-.644.9a24.083,24.083,0,0,0-4.461,3.713,2.143,2.143,0,0,0-1.095,2.321c.182,2.553,0,14.406,0,14.406s-1.641,10.03-1.094,10.759-.182,3.1-.182,3.1l.547.122v.608s-1.645,7.628.912,7.294c4.194-.547,1.094-6.747,1.094-6.747v-.709l.729.162s.365-2.553,1.094-2.735c.254-.063.551-.745.832-1.607l.262,2.154,1.141-.254.318,1.165a1.578,1.578,0,0,0,.245.111l-.245,1.348a9.458,9.458,0,0,0,0,2.371c.092.46,3.477,10.289,6.81,19.92l-.063,2.328s-1.641,1.824-1.277,3.1-.912,11.853-.912,11.853l-1.094,5.288.275.085-.253.927a1.84,1.84,0,0,0-.57.448c-1.459,1.641-3.282,6.383-3.282,6.383s-3.282,4.924,1.824,4.741,5.471-2.006,5.471-2.006.729-4.741.729-4.924-.365-2.057-.365-2.057l-.142-.156.1-2.275.955.294s.912-4.741,1.641-5.288a25.717,25.717,0,0,0,1.707-5.057c.792,2.279,1.558,10.16,1.807,10.875a2.59,2.59,0,0,0-.232.382,44.326,44.326,0,0,1-2.735,4.559s-5.836,3.465,0,4.377c0,0,3.282.182,4.924-.912s6.018-2.735,6.018-3.1-1.094-5.726-2.188-5.143h0l-.733-1.686.733-.284-4.617-20.723a10.476,10.476,0,0,0,.24-1.342c0-.955,2.361-19.55,2.962-24.266,2.645.749,5.062-4.729,5.062-4.729l.6-1.079.859.532s.729-1.824,1.824-2.006,3.1-9.847,3.1-11.124A5.934,5.934,0,0,0,621.355,244.8Zm-8.5,14.288a4.912,4.912,0,0,0-.621-.793,22.593,22.593,0,0,0,1.094-3.83c.365-2.006-.547-8.571-.547-8.571l-.016-.446a12.561,12.561,0,0,1,2.022,3.181,1.368,1.368,0,0,0,.547,1.094l-1.094,3.83a22.663,22.663,0,0,0-.912,2.735,9.31,9.31,0,0,0-.182,1.641l.258.16Z" transform="translate(121.225 2238.127)" fill="#e2c5b1"/>
            <path id="Path_1176" data-name="Path 1176" d="M260.04,264.041l.973-.219L257,252.516l-8.662-3.191s-.033.037-.094.1a4.59,4.59,0,0,1-1.183-2.569,5.1,5.1,0,0,0,2.38-7.5c.714-.171.969-.819,1.208-1.591a3.191,3.191,0,0,0-.453-.1l.337-.755-.592-.053.151-.706-.755.521a1.542,1.542,0,0,0-.257-1.472,2.945,2.945,0,0,0-1.262-.89,5.632,5.632,0,0,0-5.779,1.01l-.055-.213a7.334,7.334,0,0,0-2.8,4.854,7.491,7.491,0,0,0,1.861,5.347c-.01-.066-.021-.131-.032-.2q.077.106.159.208l.146,5.551-.366.314s-6.138,2.777-6.377,6.093v0c-.368,1.615-.551,10-.551,10h.5l-.5,3.282-3.283,12.765s-4.194,5.471-.547,6.565c2.266.68,2.913-1.95,3.078-4.038a1.283,1.283,0,0,0,1.3.938l.189.015c-1.725,4.457-.554,18.95-.554,18.95-.912,1.824,9.847,14.406,9.847,14.406l.648-.345.14.28c-.361.035-.606.065-.606.065v5.653s-1.641,5.653.547,6.747a1.559,1.559,0,0,0,1.721-.383c-.108,1.745-.262,4.348-.262,4.942,0,.912,2.371,2.553,2.371,2.553s.547,2.006,4.924,2.006,1.094-5.288,1.094-5.288l-2.371-5.288s-.177.087-.714-.35l.192-2.115,1.069.094,1.459-21.336s1.277-18.965,1.459-21.883a20.313,20.313,0,0,0-.066-2.805l5.354-11.054Zm-3.951,7.075-.547,1.906v-4.216ZM233.323,284.64c0-.668-.029-1.123-.029-1.123l3.565-7.13-.1,2.207S233.9,282.2,233.323,284.64Zm8.36,20.578L245.148,293l2.006,14.771-.144,5.37a8.563,8.563,0,0,1-.586-1.54C245.877,309.412,241.683,305.217,241.683,305.217Z" transform="translate(405.751 2220.754)" fill="#e2c5b1"/>
            <g id="Group_396" data-name="Group 396" transform="translate(634.787 2445.806)">
              <ellipse id="Ellipse_25" data-name="Ellipse 25" cx="60.78" cy="2.166" rx="60.78" ry="2.166" transform="translate(0 115.1)" fill="#e2c5b1" opacity="0.36"/>
              <path id="Path_1119" data-name="Path 1119" d="M445.429,194.242c-.265-.512-1.664-3.7-1.664-3.7l-2.344-6.075a17.393,17.393,0,0,1-1.664-3.037c0-.476-3.025-2.379-3.025-2.379s-2.458-.732-2.647-.805-3.1-1.036-3.1-1.036-1.147-1.508-1.31-1.114h0l-.018-.029a3.892,3.892,0,0,1-.437-1.41c-.006-.044-.012-.09-.017-.136a5.611,5.611,0,0,0,2.463-4.62,5.531,5.531,0,0,0-.048-.718.5.5,0,0,1,.065-.034c.047-.02.035-.037,0-.054l.036-.018c.063-.027.021-.048-.04-.072l0,0c.085-.037-.023-.062-.109-.1,0-.025-.009-.051-.014-.076a.511.511,0,0,0,.035-.151l.023.012a.641.641,0,0,0,0-.286.5.5,0,0,1-.02.056.478.478,0,0,0-.22-.433l-.014-.012.16-1.642c2.365-.112,2.779-4.135,2.24-4.358s0-.708,0-1.676-1.784-2.049-1.784-2.049-.747.372-1.908-1.49-5.434-2.16-5.725-1.676-2.2,1.117-4.688,1.825-2.033,3.65-1.618,4.284a3.615,3.615,0,0,1,.581,1.751,10.25,10.25,0,0,0,.788,1.937c-.249.542.384,3.512.571,4.356,0,.026-.006.052-.009.078l-.005.007a.392.392,0,0,0-.024.042.486.486,0,0,0-.038.28.585.585,0,0,0,.042.306,5.582,5.582,0,0,0,1.98,4.165c0,.051.006.1.009.154.035.689.054,1.5.018,2.285,0,.04,0,.079-.007.119a.893.893,0,0,0-.633.5c-.234.451-1.6,1.146-1.6,1.146s-2.382.11-2.609.549-3.668,1.9-3.668,1.9-1.815,1.061-1.55,2.269a4.371,4.371,0,0,1-.652,2.4,11.414,11.414,0,0,0-2.61-.651l1.928,1.844-.064.1-1.1,3.879a5.265,5.265,0,0,1-.756,1.683c-.378.329.34,3.33.34,3.33a14.069,14.069,0,0,1-.756,2.671c-.34.549.529,1.9.529,1.9l1.739,3.952,4.613,1.171.8.171q-.023.142-.048.282a6.362,6.362,0,0,1-.87,2.73c-.87.768-.832,4.208-.832,4.208l.038,4.867s.3,6,.151,6.221c-.1.139.1.365.6.568q-.022.135-.042.275a4.728,4.728,0,0,0,.121,2.633,2,2,0,0,1,.227.878,4.107,4.107,0,0,0,.718,1.464s-.567,4.062.378,5.453,1.739,3.916,1.286,4.5c0,0-.794,1.72-.416,2.488a.9.9,0,0,1-.492,1.391c-.492.183-.449,1.683-.449,1.683l.9,7.136s.492,1.464.076,1.976a5.206,5.206,0,0,0,.227,3.952c.643.878-.907,2.488-.907,2.488s-.945,1.354.567,1.793c0,0,.3.073-.265.659s-.681,1.317-.3,1.574a1.729,1.729,0,0,0,.245.122c-.014.087-.029.177-.047.272a4.586,4.586,0,0,1-.917,2.241,15.974,15.974,0,0,0-2.476,3.3c-.519.984-.746,1.9-.171,2.336a4.731,4.731,0,0,0,4.122.951,11.6,11.6,0,0,0,2.458-1.647l.34-1.427s-.227-.878.907-1.208a5.828,5.828,0,0,0,2.193-1.5v-1.9a8.046,8.046,0,0,0,.794-.518s.529-1.866,0-2.488-.718-.842-.038-1.244a1.394,1.394,0,0,0,.274-2.049,3.437,3.437,0,0,1-.614-3.513c.681-1.61.93-6.55.93-6.55s-.318-3.367,0-4.135-.363-2.305-.363-2.305a12.321,12.321,0,0,1,.643-2.781c.416-.878.756-5.526.756-5.526a11.92,11.92,0,0,0,.756-3.257c0-1.281-1.172-4.355.567-5.16,0,0,.756.659.454,3.293a27.368,27.368,0,0,1,.87,4.025c0,.951.643,4.391.643,4.391a4.477,4.477,0,0,0,.34,1.5c.265.4,0,1.5,0,1.5s.983.915.718,1.5a4.182,4.182,0,0,0,.045,1.906l-.234,8.194s-.681,3.513.907,5.636c0,0-.567,3.111-.907,3.33s1.248,2.122,1.248,2.122-.44,1.233.454,1.293V267.5a4.351,4.351,0,0,0,1.248,1.391c.832.586.492,2.6.492,2.6a3.456,3.456,0,0,0,3.857,2.013c2.8-.549,3.176-.805,3.025-1.72-.054-.334-.175-.93-.349-1.606a10.257,10.257,0,0,0-1.314-3.293,13.586,13.586,0,0,1-1.588-3.408s-.34-.768,0-1.025a.7.7,0,0,0,.189-.732,2.4,2.4,0,0,0,.033-1.537c-.3-.586.572-1.793.572-1.793l-.265-5.636.265-8.2s-1.172-1.354-.681-2.159-.567-1.939-.567-1.939-.113-.037.189-.951a2.28,2.28,0,0,0-.076-1.647,5.4,5.4,0,0,1,.492-3.989s.492-2.269.643-3.44c.1-.814.758-3.854,1.147-5.633l.063-.289c.56.031.983.066.983.066s-.87-6.038,0-7.282-.681-10.759-.681-10.759-.371-1.663-.6-3.359c-.013-.1-.025-.193-.037-.29a18.332,18.332,0,0,1,2.111-.047c1.815.11,3.592-.586,3.63-1.281s1.021-3.44,1.172-4.062A8.573,8.573,0,0,0,445.429,194.242Z" transform="translate(-360.649 -154.92)" fill="url(#linear-gradient)"/>
              <path id="Path_1120" data-name="Path 1120" d="M446.068,738.006v3.388a5.625,5.625,0,0,1-2.113,1.494c-1.093.328-.874,1.2-.874,1.2l-.328,1.421a11.176,11.176,0,0,1-2.368,1.64,4.445,4.445,0,0,1-3.971-.947c-.554-.43-.335-1.347.165-2.326a15.864,15.864,0,0,1,2.386-3.285,4.649,4.649,0,0,0,.883-2.231c.1-.57.137-1.011.137-1.011Z" transform="translate(-383.351 -628.09)" fill="#865a61"/>
              <path id="Path_1121" data-name="Path 1121" d="M446.068,754.325v.86a5.625,5.625,0,0,1-2.113,1.494c-1.093.328-.874,1.2-.874,1.2l-.328,1.421a11.178,11.178,0,0,1-2.368,1.64,4.445,4.445,0,0,1-3.971-.947c-.554-.43-.335-1.347.165-2.326-.023,1.029.281,2.185,1.766,2.144a7.523,7.523,0,0,0,4.409-1.6s-.036-2.4,1.64-2.951A5.1,5.1,0,0,0,446.068,754.325Z" transform="translate(-383.351 -641.881)" opacity="0.1"/>
              <path id="Path_1122" data-name="Path 1122" d="M537.023,736.579a3.325,3.325,0,0,1-3.716-2s.328-2-.474-2.587a4.3,4.3,0,0,1-1.2-1.385v-3.352l3.279-2.332,1.775,1.571.12.1a13.749,13.749,0,0,0,1.53,3.393,10.411,10.411,0,0,1,1.267,3.279c.168.673.284,1.267.337,1.6C540.084,735.777,539.72,736.032,537.023,736.579Z" transform="translate(-460.971 -617.992)" fill="#865a61"/>
              <path id="Path_1123" data-name="Path 1123" d="M537.023,755.57a3.325,3.325,0,0,1-3.716-2s.328-2-.474-2.587a4.3,4.3,0,0,1-1.2-1.385v-1.3a13.683,13.683,0,0,1,1.712,2.064c.292.619.328,2.878,1.676,3.279s3.971.765,4.19-.255a5.671,5.671,0,0,1,.392-1.125c.168.673.284,1.267.337,1.6C540.084,754.769,539.72,755.024,537.023,755.57Z" transform="translate(-460.971 -636.983)" opacity="0.1"/>
              <path id="Path_1124" data-name="Path 1124" d="M456.263,737.35l6.085.656V739.8c-.686.407-1.67.838-2.223.395a25.605,25.605,0,0,0-4-1.83C456.229,737.792,456.263,737.35,456.263,737.35Z" transform="translate(-399.63 -628.09)" opacity="0.1"/>
              <path id="Path_1125" data-name="Path 1125" d="M536.805,726.887c-.838-.292-2.332.984-4.3,1.785a2.05,2.05,0,0,1-.875.2v-1.616l3.279-2.332,1.775,1.571A2.228,2.228,0,0,0,536.805,726.887Z" transform="translate(-460.971 -617.992)" opacity="0.1"/>
              <path id="Path_1126" data-name="Path 1126" d="M469.329,519.045s-.115.536-.28,1.315c-.375,1.771-1,4.8-1.1,5.608-.146,1.166-.619,3.425-.619,3.425a5.539,5.539,0,0,0-.474,3.971,2.339,2.339,0,0,1,.073,1.64c-.292.911-.182.947-.182.947s1.02,1.129.547,1.931.656,2.15.656,2.15l-.255,8.161.255,5.611s-.838,1.2-.551,1.785a2.466,2.466,0,0,1-.032,1.53.714.714,0,0,1-.182.729c-.328.255,0,1.02,0,1.02-.838-.291-2.332.984-4.3,1.785s-1.312-1.093-1.312-1.093-1.53-1.895-1.2-2.113.874-3.316.874-3.316c-1.53-2.113-.874-5.611-.874-5.611l.226-8.158a4.3,4.3,0,0,1-.044-1.9c.255-.583-.692-1.494-.692-1.494s.255-1.093,0-1.494a4.582,4.582,0,0,1-.328-1.494s-.619-3.425-.619-4.372a28.032,28.032,0,0,0-.838-4.008c.291-2.623-.437-3.279-.437-3.279-1.676.8-.547,3.862-.547,5.137a12.191,12.191,0,0,1-.729,3.243,35.827,35.827,0,0,1-.729,5.5,12.618,12.618,0,0,0-.619,2.769,4.162,4.162,0,0,1,.35,2.3,18.163,18.163,0,0,0,0,4.117s-.241,4.919-.9,6.522a3.508,3.508,0,0,0,.592,3.5,1.417,1.417,0,0,1-.264,2.04c-.656.4-.474.619.036,1.239s0,2.478,0,2.478-2.077,1.64-2.988.911-3.826-1.676-4.19-1.931-.255-.984.292-1.567.255-.656.255-.656c-1.457-.437-.547-1.785-.547-1.785s1.494-1.6.874-2.477a5.342,5.342,0,0,1-.219-3.935c.4-.51-.073-1.967-.073-1.967l-.87-7.1s-.041-1.494.433-1.676a.9.9,0,0,0,.474-1.385c-.364-.765.4-2.478.4-2.478.437-.583-.328-3.1-1.239-4.481s-.364-5.429-.364-5.429a4.143,4.143,0,0,1-.692-1.457,2.043,2.043,0,0,0-.219-.875,4.856,4.856,0,0,1-.117-2.622c.133-.959.335-1.787.335-1.787Z" transform="translate(-391.345 -450.264)" fill="#f9f9f9"/>
              <path id="Path_1127" data-name="Path 1127" d="M489.4,252.814l-7.178,1.676s-3.534-2.988-2.66-4.591a6.368,6.368,0,0,0,.478-2.485c.035-.777.016-1.589-.017-2.275-.051-.993-.133-1.726-.133-1.726s7.36-4.154,7.1,0a10.6,10.6,0,0,0,.048,2.075,3.967,3.967,0,0,0,.421,1.4c.393.7.879.711.879.711Z" transform="translate(-418.555 -225.313)" fill="#fdc2cc"/>
              <path id="Path_1128" data-name="Path 1128" d="M489.063,245.489a5.645,5.645,0,0,1-7.02-.35c-.051-.992-.133-1.726-.133-1.726s7.36-4.154,7.1,0A10.607,10.607,0,0,0,489.063,245.489Z" transform="translate(-420.578 -225.313)" opacity="0.1"/>
              <circle id="Ellipse_27" data-name="Ellipse 27" cx="5.647" cy="5.647" r="5.647" transform="translate(59.547 9.793)" fill="#fdc2cc"/>
              <path id="Path_1129" data-name="Path 1129" d="M489.4,275.873l-7.178,1.676s-3.534-2.988-2.66-4.591a6.368,6.368,0,0,0,.478-2.485,3.662,3.662,0,0,0,1.307,2.193,2.558,2.558,0,0,1,1.385,2.441l2.951-.109a1.969,1.969,0,0,1,1.275-2c.364-.146.182-.8.182-.8l.324-2.241c.393.7.879.711.879.711Z" transform="translate(-418.555 -248.373)" opacity="0.1"/>
              <path id="Path_1130" data-name="Path 1130" d="M469.812,519.045s-.115.536-.28,1.315a11.468,11.468,0,0,0-2.307.034,40.147,40.147,0,0,1-4.008.255l-7.943.281v-.245a23.427,23.427,0,0,0-2.733.182,19.419,19.419,0,0,1-4.809-.291,5.187,5.187,0,0,1-1.21-.327c.133-.959.335-1.787.335-1.787Z" transform="translate(-391.829 -450.264)" opacity="0.1"/>
              <path id="Path_1131" data-name="Path 1131" d="M450.763,293.855a11.6,11.6,0,0,0,.115,2.922c.22,1.689.577,3.345.577,3.345s1.494,9.473.656,10.712,0,7.25,0,7.25a18.6,18.6,0,0,0-3.316-.036,40.146,40.146,0,0,1-4.008.255l-7.943.281v-.245a23.409,23.409,0,0,0-2.733.182,19.42,19.42,0,0,1-4.809-.292c-1.348-.219-1.895-.656-1.749-.874s-.146-6.194-.146-6.194l-.036-4.846s-.036-3.425.8-4.19a6.477,6.477,0,0,0,.838-2.718c.307-1.814.474-3.84.474-3.84l-5.538-14.829-.109-.292s1.6-2.478,1.348-3.68,1.494-2.259,1.494-2.259,3.316-1.457,3.534-1.895,2.514-.547,2.514-.547,1.312-.692,1.538-1.141a.862.862,0,0,1,.611-.5,3.67,3.67,0,0,0,1.313,2.221,2.558,2.558,0,0,1,1.385,2.441l2.951-.109a1.969,1.969,0,0,1,1.275-2c.364-.146.182-.8.182-.8l.341-2.36c.157-.392,1.262,1.109,1.262,1.109s2.805.959,2.988,1.032,2.55.8,2.55.8,2.915,1.895,2.915,2.368a17.5,17.5,0,0,0,1.6,3.024l-.054.289C453.218,280.449,451.03,292.289,450.763,293.855Z" transform="translate(-373.4 -248.21)" fill="#fff"/>
              <path id="Path_1132" data-name="Path 1132" d="M466.607,357.587s-6.3-1.676-6.923-2.077-4.263,1.931.182,5.1c0,0,5.435,1.129,6.889,0S466.607,357.587,466.607,357.587Z" transform="translate(-400.902 -317.844)" fill="#fdc2cc"/>
              <path id="Path_1133" data-name="Path 1133" d="M515.471,313.559l.765.036,2.259,6.048s1.348,3.17,1.6,3.68a8.814,8.814,0,0,1,0,3.243c-.146.619-1.093,3.352-1.13,4.044s-1.749,1.385-3.5,1.275a45.2,45.2,0,0,0-5.829.437s-4.358-.456-7.032.911c0,0-1.712-3.534-1.53-10.129a17.426,17.426,0,0,1,3.789.109c.765.292,4.481,1.13,4.955.692s2.623.8,2.623.8a1.846,1.846,0,0,0,0-1.53c-.364-.874-.984-3.607-.182-4.481A55.183,55.183,0,0,0,515.471,313.559Z" transform="translate(-436.14 -283.799)" opacity="0.1"/>
              <path id="Path_1134" data-name="Path 1134" d="M514.251,334.26c-1.809.122-3.831.393-3.831.393s-4.358-.456-7.032.911c0,0-1.712-3.534-1.53-10.129a17.428,17.428,0,0,1,3.789.109c.765.292,4.481,1.13,4.955.692s2.623.8,2.623.8a1.847,1.847,0,0,0,0-1.53c-.364-.874-.984-3.607-.182-4.481a55.189,55.189,0,0,0,3.206-5.137l.711.034c-.37,2.008-2.558,13.848-2.824,15.415A11.594,11.594,0,0,0,514.251,334.26Z" transform="translate(-436.771 -285.693)" opacity="0.1"/>
              <path id="Path_1135" data-name="Path 1135" d="M516.249,314.336l.765.036,2.259,6.048s1.348,3.17,1.6,3.68a8.816,8.816,0,0,1,0,3.243c-.146.619-1.093,3.352-1.13,4.044s-1.749,1.385-3.5,1.275a45.2,45.2,0,0,0-5.83.437s-4.358-.456-7.032.911c0,0-1.712-3.534-1.53-10.129a17.426,17.426,0,0,1,3.789.109c.765.291,4.481,1.129,4.955.692s2.623.8,2.623.8a1.847,1.847,0,0,0,0-1.53c-.364-.874-.984-3.607-.182-4.481A55.2,55.2,0,0,0,516.249,314.336Z" transform="translate(-436.771 -284.431)" fill="#fff"/>
              <rect id="Rectangle_56" data-name="Rectangle 56" width="1.069" height="9.624" transform="translate(72.689 43.851) rotate(-148.235)" fill="#dfe6f5"/>
              <ellipse id="Ellipse_28" data-name="Ellipse 28" cx="3.08" cy="2.16" rx="3.08" ry="2.16" transform="translate(75.059 34.905) rotate(-58.235)" fill="#dfe6f5"/>
              <ellipse id="Ellipse_29" data-name="Ellipse 29" cx="2.21" cy="1.55" rx="2.21" ry="1.55" transform="translate(76.034 34.487) rotate(-58.235)" opacity="0.1"/>
              <rect id="Rectangle_57" data-name="Rectangle 57" width="1.069" height="5.988" transform="translate(70.1 48.033) rotate(-148.235)" fill="#53526b"/>
              <path id="Path_1136" data-name="Path 1136" d="M488.212,384.813l2.223-.619s10.967.292,7.287-4.226c0,0-1.931-1.858-5.975-.364a36.572,36.572,0,0,1-5.174,1.676Z" transform="translate(-424.365 -336.982)" fill="#fdc2cc"/>
              <circle id="Ellipse_30" data-name="Ellipse 30" cx="0.437" cy="0.437" r="0.437" transform="translate(61.77 27.901)" opacity="0.1"/>
              <circle id="Ellipse_31" data-name="Ellipse 31" cx="0.437" cy="0.437" r="0.437" transform="translate(69.275 27.646)" opacity="0.1"/>
              <circle id="Ellipse_32" data-name="Ellipse 32" cx="0.437" cy="0.437" r="0.437" transform="translate(61.77 27.756)" fill="#fff"/>
              <circle id="Ellipse_33" data-name="Ellipse 33" cx="0.437" cy="0.437" r="0.437" transform="translate(62.389 33.95)" opacity="0.1"/>
              <circle id="Ellipse_34" data-name="Ellipse 34" cx="0.437" cy="0.437" r="0.437" transform="translate(69.494 33.512)" opacity="0.1"/>
              <circle id="Ellipse_35" data-name="Ellipse 35" cx="0.437" cy="0.437" r="0.437" transform="translate(62.389 33.804)" fill="#fff"/>
              <circle id="Ellipse_36" data-name="Ellipse 36" cx="0.437" cy="0.437" r="0.437" transform="translate(69.312 54.61)" opacity="0.1"/>
              <circle id="Ellipse_37" data-name="Ellipse 37" cx="0.437" cy="0.437" r="0.437" transform="translate(63.558 54.61)" opacity="0.1"/>
              <circle id="Ellipse_38" data-name="Ellipse 38" cx="0.437" cy="0.437" r="0.437" transform="translate(69.312 54.465)" fill="#fff"/>
              <circle id="Ellipse_39" data-name="Ellipse 39" cx="0.437" cy="0.437" r="0.437" transform="translate(63.995 61.931)" opacity="0.1"/>
              <circle id="Ellipse_40" data-name="Ellipse 40" cx="0.437" cy="0.437" r="0.437" transform="translate(69.494 61.494)" opacity="0.1"/>
              <circle id="Ellipse_41" data-name="Ellipse 41" cx="0.437" cy="0.437" r="0.437" transform="translate(63.995 61.786)" fill="#fff"/>
              <circle id="Ellipse_42" data-name="Ellipse 42" cx="0.437" cy="0.437" r="0.437" transform="translate(63.558 54.465)" fill="#fff"/>
              <circle id="Ellipse_43" data-name="Ellipse 43" cx="0.437" cy="0.437" r="0.437" transform="translate(69.494 61.348)" fill="#fff"/>
              <circle id="Ellipse_44" data-name="Ellipse 44" cx="0.437" cy="0.437" r="0.437" transform="translate(69.275 27.501)" fill="#fff"/>
              <circle id="Ellipse_45" data-name="Ellipse 45" cx="0.437" cy="0.437" r="0.437" transform="translate(69.494 33.366)" fill="#fff"/>
              <path id="Path_1137" data-name="Path 1137" d="M531.243,416.885s.073,9.983.291,11.768C531.534,428.653,531.614,417.355,531.243,416.885Z" transform="translate(-460.656 -367.742)" opacity="0.1"/>
              <path id="Path_1138" data-name="Path 1138" d="M541.125,441.551c-.15,0,2.988,11.7,3.133,12.534S542,441.551,541.125,441.551Z" transform="translate(-468.68 -387.781)" opacity="0.1"/>
              <path id="Path_1139" data-name="Path 1139" d="M554.355,431.451c0,.109,1.749,6.34,2.623,6.668S554.355,431.451,554.355,431.451Z" transform="translate(-479.432 -379.576)" opacity="0.1"/>
              <path id="Path_1140" data-name="Path 1140" d="M574.486,366.775s-3.716.166-3.826.7S574.486,366.775,574.486,366.775Z" transform="translate(-492.677 -327.032)" opacity="0.1"/>
              <path id="Path_1141" data-name="Path 1141" d="M546.142,620.04s-2.66,1.129-2.259,1.2S546.142,620.04,546.142,620.04Z" transform="translate(-470.891 -532.787)" opacity="0.1"/>
              <path id="Path_1142" data-name="Path 1142" d="M526.758,610.974c-.1-.233,1.785.947,1.785,1.093A4.44,4.44,0,0,1,526.758,610.974Z" transform="translate(-457.009 -525.397)" opacity="0.1"/>
              <path id="Path_1143" data-name="Path 1143" d="M539.983,631.479s2.077-.1,2.223.694S539.983,631.479,539.983,631.479Z" transform="translate(-467.756 -542.076)" opacity="0.1"/>
              <path id="Path_1144" data-name="Path 1144" d="M460.352,630.625s2.259-.442,2.441,0S460.352,630.625,460.352,630.625Z" transform="translate(-403.064 -541.226)" opacity="0.1"/>
              <path id="Path_1145" data-name="Path 1145" d="M462.35,704.721s.148,1.858-.4,2.3S462.35,704.721,462.35,704.721Z" transform="translate(-404.224 -601.582)" opacity="0.1"/>
              <path id="Path_1146" data-name="Path 1146" d="M463.348,724.642c.713.073,4.466-.583,4.429,0S463.348,724.642,463.348,724.642Z" transform="translate(-405.497 -617.568)" opacity="0.1"/>
              <path id="Path_1147" data-name="Path 1147" d="M550.728,713.572s-1.28-.2-.968.667Z" transform="translate(-475.66 -608.757)" opacity="0.1"/>
              <path id="Path_1148" data-name="Path 1148" d="M415.51,322.832h-.692l-1.057,3.862a5.332,5.332,0,0,1-.729,1.676c-.364.328.328,3.316.328,3.316a14.378,14.378,0,0,1-.729,2.66c-.328.547.51,1.895.51,1.895l1.676,3.935,4.445,1.166s7.833,1.712,8.2,1.967.692-.109.947-2.478.947-6.959,1.494-7.178c0,0-4.372.474-4.736.4a18.509,18.509,0,0,0-2.113.036,11.231,11.231,0,0,0-2.66.073c-.364.219.474-1.058.474-1.058a3.515,3.515,0,0,0,0-1.784C420.611,330.338,420.466,319.189,415.51,322.832Z" transform="translate(-364.234 -290.741)" opacity="0.1"/>
              <path id="Path_1149" data-name="Path 1149" d="M439.4,335.984c-.546.219-1.239,4.809-1.494,7.178s-.583,2.733-.947,2.478c-.3-.207-5.518-1.376-7.469-1.807.308-1.814.474-3.84.474-3.84l-5.538-14.829H425c4.955-3.643,5.1,7.506,5.356,8.489a3.515,3.515,0,0,1,0,1.784s-.838,1.277-.474,1.058a11.231,11.231,0,0,1,2.66-.073,18.516,18.516,0,0,1,2.113-.036C435.023,336.458,439.4,335.984,439.4,335.984Z" transform="translate(-373.873 -292.635)" opacity="0.1"/>
              <path id="Path_1150" data-name="Path 1150" d="M414.734,323.609h-.692l-1.057,3.862a5.331,5.331,0,0,1-.729,1.676c-.364.328.328,3.316.328,3.316a14.375,14.375,0,0,1-.729,2.66c-.328.547.51,1.895.51,1.895l1.676,3.935,4.445,1.166s7.833,1.712,8.2,1.967.692-.109.947-2.478.947-6.959,1.494-7.178c0,0-4.372.474-4.737.4a18.524,18.524,0,0,0-2.113.036,11.234,11.234,0,0,0-2.66.073c-.364.219.474-1.058.474-1.058a3.513,3.513,0,0,0,0-1.784C419.835,331.115,419.689,319.966,414.734,323.609Z" transform="translate(-363.603 -291.372)" fill="#fff"/>
              <path id="Path_1151" data-name="Path 1151" d="M429.752,397.074s-2,3.789-2.368,3.352S429.752,397.074,429.752,397.074Z" transform="translate(-376.253 -351.648)" opacity="0.1"/>
              <path id="Path_1152" data-name="Path 1152" d="M423.808,385.572s-1.858,1.538-.984,1.939S423.808,385.572,423.808,385.572Z" transform="translate(-372.386 -342.303)" opacity="0.1"/>
              <path id="Path_1153" data-name="Path 1153" d="M438.4,375.515a13.028,13.028,0,0,1,2.733.763C441.174,376.5,438.4,375.515,438.4,375.515Z" transform="translate(-385.234 -334.133)" opacity="0.1"/>
              <path id="Path_1154" data-name="Path 1154" d="M483.536,209.1a.376.376,0,0,0-.249.391c-.149.131-.357-.023-.478-.191s-.261-.372-.446-.348a1.6,1.6,0,0,0-.255.106c-.291.093-.538-.249-.7-.549l-.853-1.577c-.57.331-1.243-.016-1.809-.359s-1.239-.691-1.81-.36c-.838.484-.869,2.1-1.737,2.5-.28.128-.6.1-.864.277a1.648,1.648,0,0,0-.51.834.883.883,0,0,1-.286.471.628.628,0,0,1-.294.071,1.263,1.263,0,0,1-.758-.106.641.641,0,0,1-.262-.758.4.4,0,0,1,.023-.042,2.648,2.648,0,0,0,.251-.36c.087-.232-.038-.5-.01-.752.045-.428.5-.654.576-1.076.032-.165,0-.341.029-.507a.454.454,0,0,1,.017-.064l-.267.184a6.389,6.389,0,0,0,.668-1.255,3.864,3.864,0,0,1,2.358-1.919,5.628,5.628,0,0,1,2.913.034,9.592,9.592,0,0,1,2.593,1.068,2.572,2.572,0,0,1,.755.614,4.724,4.724,0,0,1,.447.826c.283.586,1.055,1.128.44,1.21-.512.069-.045.427.223.669a.7.7,0,0,1,.154.169.6.6,0,0,1-.032.584C483.259,209.013,483.679,209.039,483.536,209.1Z" transform="translate(-412.678 -194.412)" opacity="0.1"/>
              <path id="Path_1155" data-name="Path 1155" d="M483.536,208.327a.376.376,0,0,0-.249.391c-.149.131-.357-.023-.478-.191s-.261-.372-.446-.348a1.6,1.6,0,0,0-.255.106c-.291.093-.538-.249-.7-.549l-.853-1.577c-.57.331-1.243-.016-1.809-.359s-1.239-.691-1.81-.36c-.838.484-.869,2.1-1.737,2.5-.28.128-.6.1-.864.277a1.648,1.648,0,0,0-.51.834.883.883,0,0,1-.286.471.627.627,0,0,1-.294.071,1.263,1.263,0,0,1-.758-.106.64.64,0,0,1-.262-.758.4.4,0,0,1,.023-.042,2.655,2.655,0,0,0,.251-.36c.087-.232-.038-.5-.01-.752.045-.428.5-.654.576-1.076.032-.165,0-.341.029-.507a.461.461,0,0,1,.017-.064l-.267.184a6.389,6.389,0,0,0,.668-1.255,3.864,3.864,0,0,1,2.358-1.919,5.628,5.628,0,0,1,2.913.034,9.591,9.591,0,0,1,2.593,1.068,2.572,2.572,0,0,1,.755.614,4.723,4.723,0,0,1,.447.826c.283.586,1.055,1.128.44,1.21-.512.069-.045.427.223.669a.7.7,0,0,1,.154.169.605.605,0,0,1-.032.584C483.259,208.237,483.679,208.263,483.536,208.327Z" transform="translate(-412.678 -193.781)" fill="#865a61"/>
              <path id="Path_1156" data-name="Path 1156" d="M483.5,207.352l-.058.614s-6.115-7.75-10.872,1l-.063-.286a2.649,2.649,0,0,0,.251-.36c.087-.232-.038-.5-.01-.752.045-.428.5-.654.576-1.076.032-.165,0-.341.029-.507a.47.47,0,0,1,.018-.064l-.267.184a6.389,6.389,0,0,0,.667-1.255,3.865,3.865,0,0,1,2.358-1.919,5.629,5.629,0,0,1,2.913.034,9.593,9.593,0,0,1,2.593,1.068,2.572,2.572,0,0,1,.755.614,4.72,4.72,0,0,1,.447.826c.283.586,1.055,1.128.44,1.21C482.769,206.751,483.235,207.11,483.5,207.352Z" transform="translate(-412.941 -193.781)" opacity="0.1"/>
              <g id="Group_393" data-name="Group 393" transform="translate(59.544 11.308)" opacity="0.1">
                <path id="Path_1157" data-name="Path 1157" d="M483.543,218.357a.3.3,0,0,0-.069.252c-.149.131-.357-.023-.478-.191s-.261-.372-.446-.348a1.6,1.6,0,0,0-.255.106c-.292.093-.538-.249-.7-.549l-.853-1.577c-.57.331-1.243-.016-1.809-.359s-1.239-.691-1.81-.36c-.838.484-.869,2.1-1.737,2.5-.28.128-.6.1-.864.277a1.647,1.647,0,0,0-.51.834.883.883,0,0,1-.286.471.628.628,0,0,1-.294.071,1.263,1.263,0,0,1-.758-.106.681.681,0,0,1-.284-.4.655.655,0,0,0,.284.692,1.263,1.263,0,0,0,.758.106.628.628,0,0,0,.294-.071.883.883,0,0,0,.286-.471,1.647,1.647,0,0,1,.51-.834c.259-.176.584-.149.864-.277.869-.4.9-2.011,1.737-2.5.571-.331,1.245.018,1.81.36s1.239.689,1.809.359q.426.787.853,1.577c.163.3.41.643.7.549a1.6,1.6,0,0,1,.255-.106c.185-.023.324.182.446.348s.329.322.478.191a.376.376,0,0,1,.249-.391C483.836,218.459,483.595,218.432,483.543,218.357Z" transform="translate(-472.373 -215.198)"/>
                <path id="Path_1158" data-name="Path 1158" d="M528.978,222.648a.529.529,0,0,1,.138-.035c.271-.036.272-.162.165-.341a.426.426,0,0,1-.165.049C528.823,222.361,528.851,222.5,528.978,222.648Z" transform="translate(-518.285 -220.945)"/>
                <path id="Path_1159" data-name="Path 1159" d="M531.953,229.548a.66.66,0,0,0,0-.285.419.419,0,0,1-.074.16C531.832,229.481,531.888,229.519,531.953,229.548Z" transform="translate(-520.701 -226.624)"/>
                <path id="Path_1160" data-name="Path 1160" d="M473.979,228.544c0,.017-.007.033-.008.05a1.666,1.666,0,0,0,.028.392A1.38,1.38,0,0,0,473.979,228.544Z" transform="translate(-473.67 -226.04)"/>
                <path id="Path_1161" data-name="Path 1161" d="M476.118,219.066a2.114,2.114,0,0,1-.245.365l.235-.162A1.622,1.622,0,0,1,476.118,219.066Z" transform="translate(-475.217 -218.34)"/>
              </g>
              <path id="Path_1162" data-name="Path 1162" d="M463.169,172.211s-.879-3.931-.6-4.562a10.4,10.4,0,0,1-.759-1.928,3.683,3.683,0,0,0-.56-1.743c-.4-.63-.839-3.56,1.559-4.265s4.237-1.335,4.517-1.817,4.4-.185,5.516,1.669,1.839,1.483,1.839,1.483,1.719,1.076,1.719,2.04-.52,1.446,0,1.669.12,4.228-2.158,4.339l-.2,2.114S467.925,163.459,463.169,172.211Z" transform="translate(-403.537 -157.171)" fill="#fff"/>
              <path id="Path_1163" data-name="Path 1163" d="M473.614,172.554s-.528,3.1.437,4.135Z" transform="translate(-413.721 -169.246)" opacity="0.1"/>
              <path id="Path_1164" data-name="Path 1164" d="M482.805,168.767s-1.348,3.316-1.02,3.953Z" transform="translate(-420.434 -166.169)" opacity="0.1"/>
              <path id="Path_1165" data-name="Path 1165" d="M491.1,163.134s-.911,4.317-.474,4.664Z" transform="translate(-427.559 -161.593)" opacity="0.1"/>
              <path id="Path_1166" data-name="Path 1166" d="M498.624,169.349s-1.129,2.769-.674,3.152Z" transform="translate(-433.521 -166.642)" opacity="0.1"/>
              <path id="Path_1167" data-name="Path 1167" d="M508.638,171.1s-1.33,2.259-1.057,2.66Z" transform="translate(-441.403 -168.062)" opacity="0.1"/>
              <path id="Path_1168" data-name="Path 1168" d="M522.879,182.848s-1.421.383-1.129.838Z" transform="translate(-452.911 -177.609)" opacity="0.1"/>
              <path id="Path_1169" data-name="Path 1169" d="M530.5,195.375s-1.275.619-1.038.947Z" transform="translate(-459.187 -187.786)" opacity="0.1"/>
              <path id="Path_1170" data-name="Path 1170" d="M469.647,205.926s8.145-3.308,11.672,1.446C481.319,207.372,477.038,203.733,469.647,205.926Z" transform="translate(-410.615 -195.448)" opacity="0.1"/>
              <path id="Path_1171" data-name="Path 1171" d="M298.991,247.08l1.135-1.148,3.209,3.172-1.135,1.148-2.951-2.917Z" transform="translate(-242.902 -209.417)" fill="#53526b"/>
              <path id="Path_1172" data-name="Path 1172" d="M414.267,316.454s4.967.423,9.591,5.626l-1.927,1.949Z" transform="translate(-365.624 -286.151)" fill="#dfe6f5"/>
              <path id="Path_1173" data-name="Path 1173" d="M464.445,356.512a51.61,51.61,0,0,1-5.244-2.157c-.469-.416-3.229,2.005.138,5.3,0,0,4.117,1.173,5.218,0S464.445,356.512,464.445,356.512Z" transform="translate(-400.903 -316.904)" fill="#fdc2cc"/>
            </g>
          </g>
        </g>
      </g>
    </g>
    <text id="teams" transform="translate(253.5 2626)" fill="#fff" font-size="22" font-family="FiraSans-Bold, Fira Sans" font-weight="700" letter-spacing="0.025em"><tspan x="-34" y="0">TEAMS</tspan></text>
  </g>
</svg>
